%TF.GenerationSoftware,KiCad,Pcbnew,8.0.7-8.0.7-0~ubuntu22.04.1*%
%TF.CreationDate,2024-12-13T16:21:25+09:00*%
%TF.ProjectId,M252VOLTERA,4d323532-564f-44c5-9445-52412e6b6963,rev?*%
%TF.SameCoordinates,Original*%
%TF.FileFunction,Copper,L1,Top*%
%TF.FilePolarity,Positive*%
%FSLAX46Y46*%
G04 Gerber Fmt 4.6, Leading zero omitted, Abs format (unit mm)*
G04 Created by KiCad (PCBNEW 8.0.7-8.0.7-0~ubuntu22.04.1) date 2024-12-13 16:21:25*
%MOMM*%
%LPD*%
G01*
G04 APERTURE LIST*
G04 Aperture macros list*
%AMRoundRect*
0 Rectangle with rounded corners*
0 $1 Rounding radius*
0 $2 $3 $4 $5 $6 $7 $8 $9 X,Y pos of 4 corners*
0 Add a 4 corners polygon primitive as box body*
4,1,4,$2,$3,$4,$5,$6,$7,$8,$9,$2,$3,0*
0 Add four circle primitives for the rounded corners*
1,1,$1+$1,$2,$3*
1,1,$1+$1,$4,$5*
1,1,$1+$1,$6,$7*
1,1,$1+$1,$8,$9*
0 Add four rect primitives between the rounded corners*
20,1,$1+$1,$2,$3,$4,$5,0*
20,1,$1+$1,$4,$5,$6,$7,0*
20,1,$1+$1,$6,$7,$8,$9,0*
20,1,$1+$1,$8,$9,$2,$3,0*%
G04 Aperture macros list end*
%ADD10C,0.500000*%
%TA.AperFunction,NonConductor*%
%ADD11C,0.500000*%
%TD*%
%TA.AperFunction,ComponentPad*%
%ADD12RoundRect,0.250000X0.725000X-0.600000X0.725000X0.600000X-0.725000X0.600000X-0.725000X-0.600000X0*%
%TD*%
%TA.AperFunction,ComponentPad*%
%ADD13O,1.950000X1.700000*%
%TD*%
%TA.AperFunction,ComponentPad*%
%ADD14C,1.600000*%
%TD*%
%TA.AperFunction,ComponentPad*%
%ADD15O,1.600000X1.600000*%
%TD*%
%TA.AperFunction,ComponentPad*%
%ADD16C,2.000000*%
%TD*%
%TA.AperFunction,WasherPad*%
%ADD17C,5.000000*%
%TD*%
%TA.AperFunction,ComponentPad*%
%ADD18R,2.400000X1.600000*%
%TD*%
%TA.AperFunction,ComponentPad*%
%ADD19O,2.400000X1.600000*%
%TD*%
%TA.AperFunction,ComponentPad*%
%ADD20C,1.500000*%
%TD*%
%TA.AperFunction,ComponentPad*%
%ADD21R,1.700000X1.700000*%
%TD*%
%TA.AperFunction,ComponentPad*%
%ADD22O,1.700000X1.700000*%
%TD*%
%TA.AperFunction,Conductor*%
%ADD23C,0.800000*%
%TD*%
%TA.AperFunction,Conductor*%
%ADD24C,0.500000*%
%TD*%
G04 APERTURE END LIST*
D10*
D11*
X128305137Y-96229238D02*
X128305137Y-94229238D01*
X128305137Y-94229238D02*
X128971804Y-95657809D01*
X128971804Y-95657809D02*
X129638470Y-94229238D01*
X129638470Y-94229238D02*
X129638470Y-96229238D01*
X130495613Y-94419714D02*
X130590851Y-94324476D01*
X130590851Y-94324476D02*
X130781327Y-94229238D01*
X130781327Y-94229238D02*
X131257518Y-94229238D01*
X131257518Y-94229238D02*
X131447994Y-94324476D01*
X131447994Y-94324476D02*
X131543232Y-94419714D01*
X131543232Y-94419714D02*
X131638470Y-94610190D01*
X131638470Y-94610190D02*
X131638470Y-94800666D01*
X131638470Y-94800666D02*
X131543232Y-95086380D01*
X131543232Y-95086380D02*
X130400375Y-96229238D01*
X130400375Y-96229238D02*
X131638470Y-96229238D01*
X133447994Y-94229238D02*
X132495613Y-94229238D01*
X132495613Y-94229238D02*
X132400375Y-95181619D01*
X132400375Y-95181619D02*
X132495613Y-95086380D01*
X132495613Y-95086380D02*
X132686089Y-94991142D01*
X132686089Y-94991142D02*
X133162280Y-94991142D01*
X133162280Y-94991142D02*
X133352756Y-95086380D01*
X133352756Y-95086380D02*
X133447994Y-95181619D01*
X133447994Y-95181619D02*
X133543232Y-95372095D01*
X133543232Y-95372095D02*
X133543232Y-95848285D01*
X133543232Y-95848285D02*
X133447994Y-96038761D01*
X133447994Y-96038761D02*
X133352756Y-96134000D01*
X133352756Y-96134000D02*
X133162280Y-96229238D01*
X133162280Y-96229238D02*
X132686089Y-96229238D01*
X132686089Y-96229238D02*
X132495613Y-96134000D01*
X132495613Y-96134000D02*
X132400375Y-96038761D01*
X134305137Y-94419714D02*
X134400375Y-94324476D01*
X134400375Y-94324476D02*
X134590851Y-94229238D01*
X134590851Y-94229238D02*
X135067042Y-94229238D01*
X135067042Y-94229238D02*
X135257518Y-94324476D01*
X135257518Y-94324476D02*
X135352756Y-94419714D01*
X135352756Y-94419714D02*
X135447994Y-94610190D01*
X135447994Y-94610190D02*
X135447994Y-94800666D01*
X135447994Y-94800666D02*
X135352756Y-95086380D01*
X135352756Y-95086380D02*
X134209899Y-96229238D01*
X134209899Y-96229238D02*
X135447994Y-96229238D01*
D10*
D11*
X131971804Y-61038761D02*
X131971804Y-61895904D01*
X131971804Y-61895904D02*
X131781327Y-62467333D01*
X131781327Y-62467333D02*
X131590851Y-62753047D01*
X131590851Y-62753047D02*
X131209899Y-63229238D01*
X131114661Y-61705428D02*
X132828947Y-61705428D01*
X132828947Y-61705428D02*
X132828947Y-63229238D01*
X132828947Y-63229238D02*
X133495613Y-63229238D01*
X133495613Y-63229238D02*
X133495613Y-62848285D01*
X135495613Y-61038761D02*
X135495613Y-63038761D01*
X136447994Y-61038761D02*
X136447994Y-63229238D01*
X134924185Y-61705428D02*
X135114661Y-62276857D01*
X135876566Y-61610190D02*
X136067042Y-62181619D01*
X134257518Y-61610190D02*
X133971804Y-62181619D01*
X134638470Y-61038761D02*
X134638470Y-62181619D01*
X134638470Y-62181619D02*
X134543232Y-62657809D01*
X134543232Y-62657809D02*
X134257518Y-63134000D01*
X136924185Y-61800666D02*
X139400375Y-61800666D01*
X138162280Y-60943523D02*
X138162280Y-61705428D01*
X138162280Y-61705428D02*
X138543232Y-62562571D01*
X138543232Y-62562571D02*
X139019423Y-63038761D01*
X139019423Y-63038761D02*
X139400375Y-63229238D01*
X138067042Y-61895904D02*
X137781328Y-62657809D01*
X137781328Y-62657809D02*
X137400375Y-63038761D01*
X137400375Y-63038761D02*
X136924185Y-63229238D01*
X138162280Y-61134000D02*
X137971804Y-62276857D01*
X139876566Y-62467333D02*
X142352756Y-62467333D01*
X140543232Y-63229238D02*
X141114661Y-63229238D01*
X139971804Y-61419714D02*
X139971804Y-61895904D01*
X141114661Y-62276857D02*
X141114661Y-63229238D01*
X139971804Y-61419714D02*
X142257518Y-61419714D01*
X142257518Y-61419714D02*
X142257518Y-61895904D01*
X140162280Y-61038761D02*
X140447994Y-61324476D01*
X142067042Y-61038761D02*
X141686090Y-61419714D01*
X141019423Y-60943523D02*
X141114661Y-61324476D01*
X140352756Y-61895904D02*
X141876566Y-61895904D01*
X141876566Y-61895904D02*
X141114661Y-62181619D01*
D10*
D11*
X125019423Y-90729238D02*
X126162280Y-90729238D01*
X125590851Y-92729238D02*
X125590851Y-90729238D01*
X127495614Y-91681619D02*
X127781328Y-91776857D01*
X127781328Y-91776857D02*
X127876566Y-91872095D01*
X127876566Y-91872095D02*
X127971804Y-92062571D01*
X127971804Y-92062571D02*
X127971804Y-92348285D01*
X127971804Y-92348285D02*
X127876566Y-92538761D01*
X127876566Y-92538761D02*
X127781328Y-92634000D01*
X127781328Y-92634000D02*
X127590852Y-92729238D01*
X127590852Y-92729238D02*
X126828947Y-92729238D01*
X126828947Y-92729238D02*
X126828947Y-90729238D01*
X126828947Y-90729238D02*
X127495614Y-90729238D01*
X127495614Y-90729238D02*
X127686090Y-90824476D01*
X127686090Y-90824476D02*
X127781328Y-90919714D01*
X127781328Y-90919714D02*
X127876566Y-91110190D01*
X127876566Y-91110190D02*
X127876566Y-91300666D01*
X127876566Y-91300666D02*
X127781328Y-91491142D01*
X127781328Y-91491142D02*
X127686090Y-91586380D01*
X127686090Y-91586380D02*
X127495614Y-91681619D01*
X127495614Y-91681619D02*
X126828947Y-91681619D01*
X128733709Y-90919714D02*
X128828947Y-90824476D01*
X128828947Y-90824476D02*
X129019423Y-90729238D01*
X129019423Y-90729238D02*
X129495614Y-90729238D01*
X129495614Y-90729238D02*
X129686090Y-90824476D01*
X129686090Y-90824476D02*
X129781328Y-90919714D01*
X129781328Y-90919714D02*
X129876566Y-91110190D01*
X129876566Y-91110190D02*
X129876566Y-91300666D01*
X129876566Y-91300666D02*
X129781328Y-91586380D01*
X129781328Y-91586380D02*
X128638471Y-92729238D01*
X128638471Y-92729238D02*
X129876566Y-92729238D01*
X133876567Y-92729238D02*
X133781329Y-92729238D01*
X133781329Y-92729238D02*
X133590852Y-92634000D01*
X133590852Y-92634000D02*
X133305138Y-92348285D01*
X133305138Y-92348285D02*
X132828948Y-91776857D01*
X132828948Y-91776857D02*
X132638471Y-91491142D01*
X132638471Y-91491142D02*
X132543233Y-91205428D01*
X132543233Y-91205428D02*
X132543233Y-91014952D01*
X132543233Y-91014952D02*
X132638471Y-90824476D01*
X132638471Y-90824476D02*
X132828948Y-90729238D01*
X132828948Y-90729238D02*
X132924186Y-90729238D01*
X132924186Y-90729238D02*
X133114662Y-90824476D01*
X133114662Y-90824476D02*
X133209900Y-91014952D01*
X133209900Y-91014952D02*
X133209900Y-91110190D01*
X133209900Y-91110190D02*
X133114662Y-91300666D01*
X133114662Y-91300666D02*
X133019424Y-91395904D01*
X133019424Y-91395904D02*
X132447995Y-91776857D01*
X132447995Y-91776857D02*
X132352757Y-91872095D01*
X132352757Y-91872095D02*
X132257519Y-92062571D01*
X132257519Y-92062571D02*
X132257519Y-92348285D01*
X132257519Y-92348285D02*
X132352757Y-92538761D01*
X132352757Y-92538761D02*
X132447995Y-92634000D01*
X132447995Y-92634000D02*
X132638471Y-92729238D01*
X132638471Y-92729238D02*
X132924186Y-92729238D01*
X132924186Y-92729238D02*
X133114662Y-92634000D01*
X133114662Y-92634000D02*
X133209900Y-92538761D01*
X133209900Y-92538761D02*
X133495614Y-92157809D01*
X133495614Y-92157809D02*
X133590852Y-91872095D01*
X133590852Y-91872095D02*
X133590852Y-91681619D01*
X136257519Y-92729238D02*
X136257519Y-90729238D01*
X136257519Y-90729238D02*
X136924186Y-92157809D01*
X136924186Y-92157809D02*
X137590852Y-90729238D01*
X137590852Y-90729238D02*
X137590852Y-92729238D01*
X138352757Y-90729238D02*
X139590852Y-90729238D01*
X139590852Y-90729238D02*
X138924185Y-91491142D01*
X138924185Y-91491142D02*
X139209900Y-91491142D01*
X139209900Y-91491142D02*
X139400376Y-91586380D01*
X139400376Y-91586380D02*
X139495614Y-91681619D01*
X139495614Y-91681619D02*
X139590852Y-91872095D01*
X139590852Y-91872095D02*
X139590852Y-92348285D01*
X139590852Y-92348285D02*
X139495614Y-92538761D01*
X139495614Y-92538761D02*
X139400376Y-92634000D01*
X139400376Y-92634000D02*
X139209900Y-92729238D01*
X139209900Y-92729238D02*
X138638471Y-92729238D01*
X138638471Y-92729238D02*
X138447995Y-92634000D01*
X138447995Y-92634000D02*
X138352757Y-92538761D01*
X140828947Y-90729238D02*
X141019424Y-90729238D01*
X141019424Y-90729238D02*
X141209900Y-90824476D01*
X141209900Y-90824476D02*
X141305138Y-90919714D01*
X141305138Y-90919714D02*
X141400376Y-91110190D01*
X141400376Y-91110190D02*
X141495614Y-91491142D01*
X141495614Y-91491142D02*
X141495614Y-91967333D01*
X141495614Y-91967333D02*
X141400376Y-92348285D01*
X141400376Y-92348285D02*
X141305138Y-92538761D01*
X141305138Y-92538761D02*
X141209900Y-92634000D01*
X141209900Y-92634000D02*
X141019424Y-92729238D01*
X141019424Y-92729238D02*
X140828947Y-92729238D01*
X140828947Y-92729238D02*
X140638471Y-92634000D01*
X140638471Y-92634000D02*
X140543233Y-92538761D01*
X140543233Y-92538761D02*
X140447995Y-92348285D01*
X140447995Y-92348285D02*
X140352757Y-91967333D01*
X140352757Y-91967333D02*
X140352757Y-91491142D01*
X140352757Y-91491142D02*
X140447995Y-91110190D01*
X140447995Y-91110190D02*
X140543233Y-90919714D01*
X140543233Y-90919714D02*
X140638471Y-90824476D01*
X140638471Y-90824476D02*
X140828947Y-90729238D01*
X143209900Y-91395904D02*
X143209900Y-92729238D01*
X142733709Y-90634000D02*
X142257519Y-92062571D01*
X142257519Y-92062571D02*
X143495614Y-92062571D01*
X144257519Y-92729238D02*
X144257519Y-90729238D01*
X145400376Y-92729238D02*
X144543233Y-91586380D01*
X145400376Y-90729238D02*
X144257519Y-91872095D01*
D12*
%TO.P,J101,1,Pin_1*%
%TO.N,+5V*%
X104902000Y-88646000D03*
D13*
%TO.P,J101,2,Pin_2*%
%TO.N,/TB2_RX*%
X104902000Y-86146000D03*
%TO.P,J101,3,Pin_3*%
%TO.N,/TB2_TX*%
X104902000Y-83646000D03*
%TO.P,J101,4,Pin_4*%
%TO.N,GND*%
X104902000Y-81146000D03*
%TD*%
D14*
%TO.P,R101,1,1*%
%TO.N,Net-(C104-Pad1)*%
X135620000Y-75990000D03*
D15*
%TO.P,R101,2,2*%
%TO.N,+5V*%
X135620000Y-68370000D03*
%TD*%
D14*
%TO.P,C102,1,1*%
%TO.N,Net-(IC101-RA6)*%
X131064000Y-82082000D03*
%TO.P,C102,2,2*%
%TO.N,GND*%
X131064000Y-84582000D03*
%TD*%
D16*
%TO.P,SW101,1,1*%
%TO.N,Net-(C104-Pad1)*%
X109000000Y-73914000D03*
%TO.P,SW101,2,2*%
%TO.N,GND*%
X104000000Y-73914000D03*
%TD*%
D17*
%TO.P,REF\u002A\u002A,*%
%TO.N,*%
X104000000Y-96000000D03*
%TD*%
D14*
%TO.P,R104,1,1*%
%TO.N,Net-(J103-Pin_2)*%
X139192000Y-86614000D03*
D15*
%TO.P,R104,2,2*%
%TO.N,Net-(IC101-RA4)*%
X139192000Y-78994000D03*
%TD*%
D17*
%TO.P,REF\u002A\u002A,*%
%TO.N,*%
X104000000Y-64000000D03*
%TD*%
D14*
%TO.P,R105,1,1*%
%TO.N,Net-(J103-Pin_2)*%
X132810000Y-88417400D03*
D15*
%TO.P,R105,2,2*%
%TO.N,GND*%
X125190000Y-88417400D03*
%TD*%
D18*
%TO.P,IC101,1,RA2*%
%TO.N,unconnected-(IC101-RA2-Pad1)*%
X112776000Y-66929000D03*
D19*
%TO.P,IC101,2,RA3*%
%TO.N,unconnected-(IC101-RA3-Pad2)*%
X112776000Y-69469000D03*
%TO.P,IC101,3,RA4*%
%TO.N,Net-(IC101-RA4)*%
X112776000Y-72009000D03*
%TO.P,IC101,4,RA5/~{MCLR}/VPP*%
%TO.N,Net-(IC101-RA5{slash}~{MCLR}{slash}VPP)*%
X112776000Y-74549000D03*
%TO.P,IC101,5,VSS*%
%TO.N,GND*%
X112776000Y-77089000D03*
%TO.P,IC101,6,RB0*%
%TO.N,Net-(IC101-RB0)*%
X112776000Y-79629000D03*
%TO.P,IC101,7,RB1*%
%TO.N,unconnected-(IC101-RB1-Pad7)*%
X112776000Y-82169000D03*
%TO.P,IC101,8,RB2*%
%TO.N,/TB2_RX*%
X112776000Y-84709000D03*
%TO.P,IC101,9,RB3*%
%TO.N,unconnected-(IC101-RB3-Pad9)*%
X112776000Y-87249000D03*
%TO.P,IC101,10,RB4*%
%TO.N,unconnected-(IC101-RB4-Pad10)*%
X120396000Y-87249000D03*
%TO.P,IC101,11,RB5*%
%TO.N,/TB2_TX*%
X120396000Y-84709000D03*
%TO.P,IC101,12,RB6*%
%TO.N,Net-(IC101-RB6)*%
X120396000Y-82169000D03*
%TO.P,IC101,13,RB7*%
%TO.N,Net-(IC101-RB7)*%
X120396000Y-79629000D03*
%TO.P,IC101,14,VDD*%
%TO.N,+5V*%
X120396000Y-77089000D03*
%TO.P,IC101,15,RA6*%
%TO.N,Net-(IC101-RA6)*%
X120396000Y-74549000D03*
%TO.P,IC101,16,RA7*%
%TO.N,Net-(IC101-RA7)*%
X120396000Y-72009000D03*
%TO.P,IC101,17,RA0*%
%TO.N,unconnected-(IC101-RA0-Pad17)*%
X120396000Y-69469000D03*
%TO.P,IC101,18,RA1*%
%TO.N,unconnected-(IC101-RA1-Pad18)*%
X120396000Y-66929000D03*
%TD*%
D14*
%TO.P,C101,1*%
%TO.N,GND*%
X146538000Y-85852000D03*
%TO.P,C101,2*%
%TO.N,+5V*%
X144038000Y-85852000D03*
%TD*%
D20*
%TO.P,Q101,1,1*%
%TO.N,Net-(IC101-RA7)*%
X126492000Y-77162000D03*
%TO.P,Q101,2,2*%
%TO.N,Net-(IC101-RA6)*%
X126492000Y-82042000D03*
%TD*%
D14*
%TO.P,R103,1,1*%
%TO.N,Net-(IC101-RA4)*%
X131826000Y-71628000D03*
D15*
%TO.P,R103,2,2*%
%TO.N,Net-(IC101-RB0)*%
X124206000Y-71628000D03*
%TD*%
D14*
%TO.P,C104,1,1*%
%TO.N,Net-(C104-Pad1)*%
X131806000Y-68326000D03*
%TO.P,C104,2,2*%
%TO.N,GND*%
X129306000Y-68326000D03*
%TD*%
D21*
%TO.P,J102,1,Pin_1*%
%TO.N,Net-(IC101-RA5{slash}~{MCLR}{slash}VPP)*%
X124420000Y-95250000D03*
D22*
%TO.P,J102,2,Pin_2*%
%TO.N,+5V*%
X121880000Y-95250000D03*
%TO.P,J102,3,Pin_3*%
%TO.N,GND*%
X119340000Y-95250000D03*
%TO.P,J102,4,Pin_4*%
%TO.N,Net-(IC101-RB7)*%
X116800000Y-95250000D03*
%TO.P,J102,5,Pin_5*%
%TO.N,Net-(IC101-RB6)*%
X114260000Y-95250000D03*
%TD*%
D14*
%TO.P,C105,1,1*%
%TO.N,Net-(IC101-RA4)*%
X139192000Y-73426000D03*
%TO.P,C105,2,2*%
%TO.N,GND*%
X139192000Y-75926000D03*
%TD*%
D17*
%TO.P,REF\u002A\u002A,*%
%TO.N,*%
X146000000Y-64000000D03*
%TD*%
D14*
%TO.P,R102,1,1*%
%TO.N,Net-(IC101-RA5{slash}~{MCLR}{slash}VPP)*%
X135625000Y-86620000D03*
D15*
%TO.P,R102,2,2*%
%TO.N,Net-(C104-Pad1)*%
X135625000Y-79000000D03*
%TD*%
D12*
%TO.P,J103,1,Pin_1*%
%TO.N,+5V*%
X144304000Y-78918000D03*
D13*
%TO.P,J103,2,Pin_2*%
%TO.N,Net-(J103-Pin_2)*%
X144304000Y-76418000D03*
%TO.P,J103,3,Pin_3*%
%TO.N,unconnected-(J103-Pin_3-Pad3)*%
X144304000Y-73918000D03*
%TD*%
D17*
%TO.P,REF\u002A\u002A,*%
%TO.N,*%
X146000000Y-96000000D03*
%TD*%
D14*
%TO.P,C103,1,1*%
%TO.N,Net-(IC101-RA7)*%
X131038600Y-77165200D03*
%TO.P,C103,2,2*%
%TO.N,GND*%
X131038600Y-74665200D03*
%TD*%
D23*
%TO.N,+5V*%
X144304000Y-85586000D02*
X144038000Y-85852000D01*
X147828000Y-77470000D02*
X146380000Y-78918000D01*
X102500000Y-88646000D02*
X104902000Y-88646000D01*
X118110000Y-63754000D02*
X116586000Y-65278000D01*
X105500000Y-69500000D02*
X101500000Y-69500000D01*
X101500000Y-87500000D02*
X102500000Y-88646000D01*
X101500000Y-69500000D02*
X101500000Y-87500000D01*
X110500000Y-63750000D02*
X105500000Y-69500000D01*
X147828000Y-72136000D02*
X147828000Y-77470000D01*
X138474000Y-68370000D02*
X140970000Y-70866000D01*
X140970000Y-70866000D02*
X146558000Y-70866000D01*
X116586000Y-65278000D02*
X116586000Y-74422000D01*
X135620000Y-68370000D02*
X138474000Y-68370000D01*
X116586000Y-74422000D02*
X116586000Y-75692000D01*
X146558000Y-70866000D02*
X147828000Y-72136000D01*
X135620000Y-68370000D02*
X128500000Y-63754000D01*
X116586000Y-75692000D02*
X117983000Y-77089000D01*
X144304000Y-78918000D02*
X144304000Y-85586000D01*
X117983000Y-77089000D02*
X120396000Y-77089000D01*
X128500000Y-63754000D02*
X118110000Y-63754000D01*
X118110000Y-63754000D02*
X110490000Y-63754000D01*
X146380000Y-78918000D02*
X144304000Y-78918000D01*
D24*
%TO.N,GND*%
X131038600Y-74665200D02*
X133165200Y-74665200D01*
X119340000Y-97660000D02*
X118500000Y-98500000D01*
X142000000Y-82000000D02*
X142000000Y-88500000D01*
X118500000Y-98500000D02*
X112000000Y-98500000D01*
X129306000Y-72932600D02*
X131038600Y-74665200D01*
X116500000Y-90000000D02*
X123607400Y-90000000D01*
X140926000Y-75926000D02*
X142000000Y-77000000D01*
X108002000Y-94502000D02*
X108002000Y-77916000D01*
X133165200Y-82480800D02*
X131064000Y-84582000D01*
X146538000Y-87962000D02*
X146538000Y-85852000D01*
X133165200Y-82000000D02*
X133165200Y-82480800D01*
X142500000Y-89000000D02*
X145500000Y-89000000D01*
X108002000Y-77916000D02*
X104000000Y-73914000D01*
X145500000Y-89000000D02*
X146538000Y-87962000D01*
X125190000Y-88417400D02*
X127228600Y-88417400D01*
X116500000Y-80413000D02*
X116500000Y-90000000D01*
X133165200Y-74665200D02*
X133165200Y-82000000D01*
X113176000Y-77089000D02*
X116500000Y-80413000D01*
X112000000Y-98500000D02*
X108002000Y-94502000D01*
X119340000Y-95250000D02*
X119340000Y-97660000D01*
X127228600Y-88417400D02*
X131064000Y-84582000D01*
X139192000Y-75926000D02*
X140926000Y-75926000D01*
X112776000Y-77089000D02*
X113176000Y-77089000D01*
X142000000Y-88500000D02*
X142500000Y-89000000D01*
X129306000Y-68326000D02*
X129306000Y-72932600D01*
X123607400Y-90000000D02*
X125190000Y-88417400D01*
X133165200Y-82000000D02*
X142000000Y-82000000D01*
X142000000Y-77000000D02*
X142000000Y-82000000D01*
%TO.N,Net-(IC101-RA4)*%
X131826000Y-71628000D02*
X133624000Y-73426000D01*
X133624000Y-73426000D02*
X139192000Y-73426000D01*
%TO.N,Net-(IC101-RA5{slash}~{MCLR}{slash}VPP)*%
X109728000Y-91948000D02*
X110998000Y-93218000D01*
X111633000Y-74549000D02*
X109728000Y-76454000D01*
X124420000Y-93686000D02*
X124420000Y-95250000D01*
X123952000Y-93218000D02*
X124420000Y-93686000D01*
X110998000Y-93218000D02*
X123952000Y-93218000D01*
X112776000Y-74549000D02*
X111633000Y-74549000D01*
X109728000Y-76454000D02*
X109728000Y-91948000D01*
%TD*%
M02*
