%TF.GenerationSoftware,KiCad,Pcbnew,8.0.7-8.0.7-0~ubuntu22.04.1*%
%TF.CreationDate,2024-12-13T16:21:25+09:00*%
%TF.ProjectId,M252VOLTERA,4d323532-564f-44c5-9445-52412e6b6963,rev?*%
%TF.SameCoordinates,Original*%
%TF.FileFunction,Copper,L2,Bot*%
%TF.FilePolarity,Positive*%
%FSLAX46Y46*%
G04 Gerber Fmt 4.6, Leading zero omitted, Abs format (unit mm)*
G04 Created by KiCad (PCBNEW 8.0.7-8.0.7-0~ubuntu22.04.1) date 2024-12-13 16:21:25*
%MOMM*%
%LPD*%
G01*
G04 APERTURE LIST*
G04 Aperture macros list*
%AMRoundRect*
0 Rectangle with rounded corners*
0 $1 Rounding radius*
0 $2 $3 $4 $5 $6 $7 $8 $9 X,Y pos of 4 corners*
0 Add a 4 corners polygon primitive as box body*
4,1,4,$2,$3,$4,$5,$6,$7,$8,$9,$2,$3,0*
0 Add four circle primitives for the rounded corners*
1,1,$1+$1,$2,$3*
1,1,$1+$1,$4,$5*
1,1,$1+$1,$6,$7*
1,1,$1+$1,$8,$9*
0 Add four rect primitives between the rounded corners*
20,1,$1+$1,$2,$3,$4,$5,0*
20,1,$1+$1,$4,$5,$6,$7,0*
20,1,$1+$1,$6,$7,$8,$9,0*
20,1,$1+$1,$8,$9,$2,$3,0*%
G04 Aperture macros list end*
%TA.AperFunction,ComponentPad*%
%ADD10RoundRect,0.250000X0.725000X-0.600000X0.725000X0.600000X-0.725000X0.600000X-0.725000X-0.600000X0*%
%TD*%
%TA.AperFunction,ComponentPad*%
%ADD11O,1.950000X1.700000*%
%TD*%
%TA.AperFunction,ComponentPad*%
%ADD12C,1.600000*%
%TD*%
%TA.AperFunction,ComponentPad*%
%ADD13O,1.600000X1.600000*%
%TD*%
%TA.AperFunction,ComponentPad*%
%ADD14C,2.000000*%
%TD*%
%TA.AperFunction,WasherPad*%
%ADD15C,5.000000*%
%TD*%
%TA.AperFunction,ComponentPad*%
%ADD16R,2.400000X1.600000*%
%TD*%
%TA.AperFunction,ComponentPad*%
%ADD17O,2.400000X1.600000*%
%TD*%
%TA.AperFunction,ComponentPad*%
%ADD18C,1.500000*%
%TD*%
%TA.AperFunction,ComponentPad*%
%ADD19R,1.700000X1.700000*%
%TD*%
%TA.AperFunction,ComponentPad*%
%ADD20O,1.700000X1.700000*%
%TD*%
%TA.AperFunction,Conductor*%
%ADD21C,0.500000*%
%TD*%
%TA.AperFunction,Conductor*%
%ADD22C,0.600000*%
%TD*%
G04 APERTURE END LIST*
D10*
%TO.P,J101,1,Pin_1*%
%TO.N,+5V*%
X104902000Y-88646000D03*
D11*
%TO.P,J101,2,Pin_2*%
%TO.N,/TB2_RX*%
X104902000Y-86146000D03*
%TO.P,J101,3,Pin_3*%
%TO.N,/TB2_TX*%
X104902000Y-83646000D03*
%TO.P,J101,4,Pin_4*%
%TO.N,GND*%
X104902000Y-81146000D03*
%TD*%
D12*
%TO.P,R101,1,1*%
%TO.N,Net-(C104-Pad1)*%
X135620000Y-75990000D03*
D13*
%TO.P,R101,2,2*%
%TO.N,+5V*%
X135620000Y-68370000D03*
%TD*%
D12*
%TO.P,C102,1,1*%
%TO.N,Net-(IC101-RA6)*%
X131064000Y-82082000D03*
%TO.P,C102,2,2*%
%TO.N,GND*%
X131064000Y-84582000D03*
%TD*%
D14*
%TO.P,SW101,1,1*%
%TO.N,Net-(C104-Pad1)*%
X109000000Y-73914000D03*
%TO.P,SW101,2,2*%
%TO.N,GND*%
X104000000Y-73914000D03*
%TD*%
D15*
%TO.P,REF\u002A\u002A,*%
%TO.N,*%
X104000000Y-96000000D03*
%TD*%
D12*
%TO.P,R104,1,1*%
%TO.N,Net-(J103-Pin_2)*%
X139192000Y-86614000D03*
D13*
%TO.P,R104,2,2*%
%TO.N,Net-(IC101-RA4)*%
X139192000Y-78994000D03*
%TD*%
D15*
%TO.P,REF\u002A\u002A,*%
%TO.N,*%
X104000000Y-64000000D03*
%TD*%
D12*
%TO.P,R105,1,1*%
%TO.N,Net-(J103-Pin_2)*%
X132810000Y-88417400D03*
D13*
%TO.P,R105,2,2*%
%TO.N,GND*%
X125190000Y-88417400D03*
%TD*%
D16*
%TO.P,IC101,1,RA2*%
%TO.N,unconnected-(IC101-RA2-Pad1)*%
X112776000Y-66929000D03*
D17*
%TO.P,IC101,2,RA3*%
%TO.N,unconnected-(IC101-RA3-Pad2)*%
X112776000Y-69469000D03*
%TO.P,IC101,3,RA4*%
%TO.N,Net-(IC101-RA4)*%
X112776000Y-72009000D03*
%TO.P,IC101,4,RA5/~{MCLR}/VPP*%
%TO.N,Net-(IC101-RA5{slash}~{MCLR}{slash}VPP)*%
X112776000Y-74549000D03*
%TO.P,IC101,5,VSS*%
%TO.N,GND*%
X112776000Y-77089000D03*
%TO.P,IC101,6,RB0*%
%TO.N,Net-(IC101-RB0)*%
X112776000Y-79629000D03*
%TO.P,IC101,7,RB1*%
%TO.N,unconnected-(IC101-RB1-Pad7)*%
X112776000Y-82169000D03*
%TO.P,IC101,8,RB2*%
%TO.N,/TB2_RX*%
X112776000Y-84709000D03*
%TO.P,IC101,9,RB3*%
%TO.N,unconnected-(IC101-RB3-Pad9)*%
X112776000Y-87249000D03*
%TO.P,IC101,10,RB4*%
%TO.N,unconnected-(IC101-RB4-Pad10)*%
X120396000Y-87249000D03*
%TO.P,IC101,11,RB5*%
%TO.N,/TB2_TX*%
X120396000Y-84709000D03*
%TO.P,IC101,12,RB6*%
%TO.N,Net-(IC101-RB6)*%
X120396000Y-82169000D03*
%TO.P,IC101,13,RB7*%
%TO.N,Net-(IC101-RB7)*%
X120396000Y-79629000D03*
%TO.P,IC101,14,VDD*%
%TO.N,+5V*%
X120396000Y-77089000D03*
%TO.P,IC101,15,RA6*%
%TO.N,Net-(IC101-RA6)*%
X120396000Y-74549000D03*
%TO.P,IC101,16,RA7*%
%TO.N,Net-(IC101-RA7)*%
X120396000Y-72009000D03*
%TO.P,IC101,17,RA0*%
%TO.N,unconnected-(IC101-RA0-Pad17)*%
X120396000Y-69469000D03*
%TO.P,IC101,18,RA1*%
%TO.N,unconnected-(IC101-RA1-Pad18)*%
X120396000Y-66929000D03*
%TD*%
D12*
%TO.P,C101,1*%
%TO.N,GND*%
X146538000Y-85852000D03*
%TO.P,C101,2*%
%TO.N,+5V*%
X144038000Y-85852000D03*
%TD*%
D18*
%TO.P,Q101,1,1*%
%TO.N,Net-(IC101-RA7)*%
X126492000Y-77162000D03*
%TO.P,Q101,2,2*%
%TO.N,Net-(IC101-RA6)*%
X126492000Y-82042000D03*
%TD*%
D12*
%TO.P,R103,1,1*%
%TO.N,Net-(IC101-RA4)*%
X131826000Y-71628000D03*
D13*
%TO.P,R103,2,2*%
%TO.N,Net-(IC101-RB0)*%
X124206000Y-71628000D03*
%TD*%
D12*
%TO.P,C104,1,1*%
%TO.N,Net-(C104-Pad1)*%
X131806000Y-68326000D03*
%TO.P,C104,2,2*%
%TO.N,GND*%
X129306000Y-68326000D03*
%TD*%
D19*
%TO.P,J102,1,Pin_1*%
%TO.N,Net-(IC101-RA5{slash}~{MCLR}{slash}VPP)*%
X124420000Y-95250000D03*
D20*
%TO.P,J102,2,Pin_2*%
%TO.N,+5V*%
X121880000Y-95250000D03*
%TO.P,J102,3,Pin_3*%
%TO.N,GND*%
X119340000Y-95250000D03*
%TO.P,J102,4,Pin_4*%
%TO.N,Net-(IC101-RB7)*%
X116800000Y-95250000D03*
%TO.P,J102,5,Pin_5*%
%TO.N,Net-(IC101-RB6)*%
X114260000Y-95250000D03*
%TD*%
D12*
%TO.P,C105,1,1*%
%TO.N,Net-(IC101-RA4)*%
X139192000Y-73426000D03*
%TO.P,C105,2,2*%
%TO.N,GND*%
X139192000Y-75926000D03*
%TD*%
D15*
%TO.P,REF\u002A\u002A,*%
%TO.N,*%
X146000000Y-64000000D03*
%TD*%
D12*
%TO.P,R102,1,1*%
%TO.N,Net-(IC101-RA5{slash}~{MCLR}{slash}VPP)*%
X135625000Y-86620000D03*
D13*
%TO.P,R102,2,2*%
%TO.N,Net-(C104-Pad1)*%
X135625000Y-79000000D03*
%TD*%
D10*
%TO.P,J103,1,Pin_1*%
%TO.N,+5V*%
X144304000Y-78918000D03*
D11*
%TO.P,J103,2,Pin_2*%
%TO.N,Net-(J103-Pin_2)*%
X144304000Y-76418000D03*
%TO.P,J103,3,Pin_3*%
%TO.N,unconnected-(J103-Pin_3-Pad3)*%
X144304000Y-73918000D03*
%TD*%
D15*
%TO.P,REF\u002A\u002A,*%
%TO.N,*%
X146000000Y-96000000D03*
%TD*%
D12*
%TO.P,C103,1,1*%
%TO.N,Net-(IC101-RA7)*%
X131038600Y-77165200D03*
%TO.P,C103,2,2*%
%TO.N,GND*%
X131038600Y-74665200D03*
%TD*%
D21*
%TO.N,+5V*%
X123000000Y-97500000D02*
X132797056Y-97500000D01*
X132797056Y-97500000D02*
X144038000Y-86259056D01*
X121880000Y-95250000D02*
X121880000Y-96380000D01*
X121880000Y-96380000D02*
X123000000Y-97500000D01*
X144038000Y-86259056D02*
X144038000Y-85852000D01*
D22*
%TO.N,GND*%
X104000000Y-79000000D02*
X104000000Y-77000000D01*
D21*
X112776000Y-77089000D02*
X104089000Y-77089000D01*
X104089000Y-77089000D02*
X104000000Y-77000000D01*
D22*
X104000000Y-77000000D02*
X104000000Y-73914000D01*
X104000000Y-79000000D02*
X104902000Y-81146000D01*
D21*
%TO.N,Net-(IC101-RA6)*%
X123977400Y-79527400D02*
X126492000Y-82042000D01*
X121589800Y-74549000D02*
X123977400Y-76936600D01*
X123977400Y-76936600D02*
X123977400Y-79527400D01*
X126492000Y-82042000D02*
X131024000Y-82042000D01*
X120396000Y-74549000D02*
X121589800Y-74549000D01*
%TO.N,Net-(IC101-RA7)*%
X121339000Y-72009000D02*
X126492000Y-77162000D01*
X126492000Y-77162000D02*
X131035400Y-77162000D01*
X120396000Y-72009000D02*
X121339000Y-72009000D01*
%TO.N,Net-(C104-Pad1)*%
X135620000Y-75990000D02*
X135620000Y-78995000D01*
X133838000Y-70358000D02*
X134874000Y-70358000D01*
X131806000Y-68326000D02*
X131810000Y-61000000D01*
X131806000Y-68326000D02*
X133838000Y-70358000D01*
X135620000Y-71104000D02*
X135620000Y-75990000D01*
X109000000Y-61000000D02*
X109000000Y-73914000D01*
X131810000Y-61000000D02*
X109000000Y-61000000D01*
X134874000Y-70358000D02*
X135620000Y-71104000D01*
%TO.N,Net-(IC101-RA4)*%
X114681000Y-72009000D02*
X115062000Y-71628000D01*
X115062000Y-65786000D02*
X117000000Y-62500000D01*
X127000000Y-70500000D02*
X128000000Y-71628000D01*
X141000000Y-78250000D02*
X140256000Y-78994000D01*
X117000000Y-62500000D02*
X123500000Y-62500000D01*
X128000000Y-71628000D02*
X131826000Y-71628000D01*
X127000000Y-66000000D02*
X127000000Y-70500000D01*
X115062000Y-71628000D02*
X115062000Y-65786000D01*
X139192000Y-73426000D02*
X140176000Y-73426000D01*
X123500000Y-62500000D02*
X127000000Y-66000000D01*
X140256000Y-78994000D02*
X139192000Y-78994000D01*
X141000000Y-74250000D02*
X141000000Y-78250000D01*
X140176000Y-73426000D02*
X141000000Y-74250000D01*
X112776000Y-72009000D02*
X114681000Y-72009000D01*
%TO.N,Net-(IC101-RB6)*%
X122000000Y-90000000D02*
X116500000Y-90000000D01*
X123000000Y-83000000D02*
X123000000Y-89400250D01*
X120396000Y-82169000D02*
X122169000Y-82169000D01*
X122169000Y-82169000D02*
X123000000Y-83000000D01*
X116500000Y-90000000D02*
X114420000Y-92580000D01*
X123000000Y-89400250D02*
X122000000Y-90000000D01*
X114420000Y-92580000D02*
X114420000Y-95250000D01*
%TO.N,/TB2_RX*%
X107910000Y-86146000D02*
X109347000Y-84709000D01*
X109347000Y-84709000D02*
X112776000Y-84709000D01*
X104902000Y-86146000D02*
X107910000Y-86146000D01*
%TO.N,Net-(IC101-RB0)*%
X112776000Y-79629000D02*
X116459000Y-79629000D01*
X122936000Y-64770000D02*
X124206000Y-66040000D01*
X118872000Y-64770000D02*
X122936000Y-64770000D01*
X124206000Y-66040000D02*
X124206000Y-71628000D01*
X117856000Y-78232000D02*
X117856000Y-65786000D01*
X116459000Y-79629000D02*
X117856000Y-78232000D01*
X117856000Y-65786000D02*
X118872000Y-64770000D01*
%TO.N,/TB2_TX*%
X103250000Y-91750000D02*
X102616000Y-91186000D01*
X115000000Y-89500000D02*
X113500000Y-91750000D01*
X120396000Y-84709000D02*
X116205000Y-84709000D01*
X103298000Y-83646000D02*
X104902000Y-83646000D01*
X115062000Y-85852000D02*
X115000000Y-89500000D01*
X116205000Y-84709000D02*
X115062000Y-85852000D01*
X102616000Y-84328000D02*
X103298000Y-83646000D01*
X102616000Y-91186000D02*
X102616000Y-84328000D01*
X113500000Y-91750000D02*
X103250000Y-91750000D01*
%TO.N,Net-(IC101-RB7)*%
X121629000Y-79629000D02*
X128000000Y-86000000D01*
X123000000Y-91500000D02*
X118000000Y-91500000D01*
X118000000Y-91500000D02*
X116920000Y-92500000D01*
X128000000Y-86000000D02*
X128000000Y-90000000D01*
X120396000Y-79629000D02*
X121629000Y-79629000D01*
X116920000Y-92500000D02*
X116920000Y-95250000D01*
X126500000Y-91500000D02*
X123000000Y-91500000D01*
X128000000Y-90000000D02*
X126500000Y-91500000D01*
%TO.N,Net-(J103-Pin_2)*%
X139192000Y-85344000D02*
X138684000Y-84836000D01*
X141750000Y-82750000D02*
X142500000Y-82000000D01*
X132800000Y-86800000D02*
X132810000Y-86810000D01*
X148600000Y-76400000D02*
X144304000Y-76418000D01*
X148600000Y-82000000D02*
X148600000Y-76400000D01*
X134620000Y-84836000D02*
X132800000Y-86400000D01*
X132810000Y-86810000D02*
X132810000Y-88417400D01*
X138684000Y-84836000D02*
X134620000Y-84836000D01*
X141750000Y-85250000D02*
X141750000Y-82750000D01*
X142500000Y-82000000D02*
X148600000Y-82000000D01*
X139192000Y-86614000D02*
X139192000Y-85344000D01*
X140386000Y-86614000D02*
X141750000Y-85250000D01*
X132800000Y-86400000D02*
X132800000Y-86800000D01*
X139192000Y-86614000D02*
X140386000Y-86614000D01*
%TO.N,Net-(IC101-RA5{slash}~{MCLR}{slash}VPP)*%
X124420000Y-95250000D02*
X133350000Y-95250000D01*
X133350000Y-95250000D02*
X135625000Y-92975000D01*
X135625000Y-92975000D02*
X135625000Y-86620000D01*
%TD*%
M02*
