%TF.GenerationSoftware,KiCad,Pcbnew,8.0.8-8.0.8-0~ubuntu22.04.1*%
%TF.CreationDate,2025-01-20T17:27:52+09:00*%
%TF.ProjectId,M252,4d323532-2e6b-4696-9361-645f70636258,rev?*%
%TF.SameCoordinates,Original*%
%TF.FileFunction,Legend,Bot*%
%TF.FilePolarity,Positive*%
%FSLAX46Y46*%
G04 Gerber Fmt 4.6, Leading zero omitted, Abs format (unit mm)*
G04 Created by KiCad (PCBNEW 8.0.8-8.0.8-0~ubuntu22.04.1) date 2025-01-20 17:27:52*
%MOMM*%
%LPD*%
G01*
G04 APERTURE LIST*
%ADD10C,0.100000*%
G04 APERTURE END LIST*
D10*
X140920115Y-98678419D02*
X140920115Y-97678419D01*
X140920115Y-97678419D02*
X140682020Y-97678419D01*
X140682020Y-97678419D02*
X140539163Y-97726038D01*
X140539163Y-97726038D02*
X140443925Y-97821276D01*
X140443925Y-97821276D02*
X140396306Y-97916514D01*
X140396306Y-97916514D02*
X140348687Y-98106990D01*
X140348687Y-98106990D02*
X140348687Y-98249847D01*
X140348687Y-98249847D02*
X140396306Y-98440323D01*
X140396306Y-98440323D02*
X140443925Y-98535561D01*
X140443925Y-98535561D02*
X140539163Y-98630800D01*
X140539163Y-98630800D02*
X140682020Y-98678419D01*
X140682020Y-98678419D02*
X140920115Y-98678419D01*
X139539163Y-98630800D02*
X139634401Y-98678419D01*
X139634401Y-98678419D02*
X139824877Y-98678419D01*
X139824877Y-98678419D02*
X139920115Y-98630800D01*
X139920115Y-98630800D02*
X139967734Y-98535561D01*
X139967734Y-98535561D02*
X139967734Y-98154609D01*
X139967734Y-98154609D02*
X139920115Y-98059371D01*
X139920115Y-98059371D02*
X139824877Y-98011752D01*
X139824877Y-98011752D02*
X139634401Y-98011752D01*
X139634401Y-98011752D02*
X139539163Y-98059371D01*
X139539163Y-98059371D02*
X139491544Y-98154609D01*
X139491544Y-98154609D02*
X139491544Y-98249847D01*
X139491544Y-98249847D02*
X139967734Y-98345085D01*
X139110591Y-98630800D02*
X139015353Y-98678419D01*
X139015353Y-98678419D02*
X138824877Y-98678419D01*
X138824877Y-98678419D02*
X138729639Y-98630800D01*
X138729639Y-98630800D02*
X138682020Y-98535561D01*
X138682020Y-98535561D02*
X138682020Y-98487942D01*
X138682020Y-98487942D02*
X138729639Y-98392704D01*
X138729639Y-98392704D02*
X138824877Y-98345085D01*
X138824877Y-98345085D02*
X138967734Y-98345085D01*
X138967734Y-98345085D02*
X139062972Y-98297466D01*
X139062972Y-98297466D02*
X139110591Y-98202228D01*
X139110591Y-98202228D02*
X139110591Y-98154609D01*
X139110591Y-98154609D02*
X139062972Y-98059371D01*
X139062972Y-98059371D02*
X138967734Y-98011752D01*
X138967734Y-98011752D02*
X138824877Y-98011752D01*
X138824877Y-98011752D02*
X138729639Y-98059371D01*
X138253448Y-98678419D02*
X138253448Y-98011752D01*
X138253448Y-97678419D02*
X138301067Y-97726038D01*
X138301067Y-97726038D02*
X138253448Y-97773657D01*
X138253448Y-97773657D02*
X138205829Y-97726038D01*
X138205829Y-97726038D02*
X138253448Y-97678419D01*
X138253448Y-97678419D02*
X138253448Y-97773657D01*
X137348687Y-98011752D02*
X137348687Y-98821276D01*
X137348687Y-98821276D02*
X137396306Y-98916514D01*
X137396306Y-98916514D02*
X137443925Y-98964133D01*
X137443925Y-98964133D02*
X137539163Y-99011752D01*
X137539163Y-99011752D02*
X137682020Y-99011752D01*
X137682020Y-99011752D02*
X137777258Y-98964133D01*
X137348687Y-98630800D02*
X137443925Y-98678419D01*
X137443925Y-98678419D02*
X137634401Y-98678419D01*
X137634401Y-98678419D02*
X137729639Y-98630800D01*
X137729639Y-98630800D02*
X137777258Y-98583180D01*
X137777258Y-98583180D02*
X137824877Y-98487942D01*
X137824877Y-98487942D02*
X137824877Y-98202228D01*
X137824877Y-98202228D02*
X137777258Y-98106990D01*
X137777258Y-98106990D02*
X137729639Y-98059371D01*
X137729639Y-98059371D02*
X137634401Y-98011752D01*
X137634401Y-98011752D02*
X137443925Y-98011752D01*
X137443925Y-98011752D02*
X137348687Y-98059371D01*
X136872496Y-98011752D02*
X136872496Y-98678419D01*
X136872496Y-98106990D02*
X136824877Y-98059371D01*
X136824877Y-98059371D02*
X136729639Y-98011752D01*
X136729639Y-98011752D02*
X136586782Y-98011752D01*
X136586782Y-98011752D02*
X136491544Y-98059371D01*
X136491544Y-98059371D02*
X136443925Y-98154609D01*
X136443925Y-98154609D02*
X136443925Y-98678419D01*
X135586782Y-98630800D02*
X135682020Y-98678419D01*
X135682020Y-98678419D02*
X135872496Y-98678419D01*
X135872496Y-98678419D02*
X135967734Y-98630800D01*
X135967734Y-98630800D02*
X136015353Y-98535561D01*
X136015353Y-98535561D02*
X136015353Y-98154609D01*
X136015353Y-98154609D02*
X135967734Y-98059371D01*
X135967734Y-98059371D02*
X135872496Y-98011752D01*
X135872496Y-98011752D02*
X135682020Y-98011752D01*
X135682020Y-98011752D02*
X135586782Y-98059371D01*
X135586782Y-98059371D02*
X135539163Y-98154609D01*
X135539163Y-98154609D02*
X135539163Y-98249847D01*
X135539163Y-98249847D02*
X136015353Y-98345085D01*
X134682020Y-98678419D02*
X134682020Y-97678419D01*
X134682020Y-98630800D02*
X134777258Y-98678419D01*
X134777258Y-98678419D02*
X134967734Y-98678419D01*
X134967734Y-98678419D02*
X135062972Y-98630800D01*
X135062972Y-98630800D02*
X135110591Y-98583180D01*
X135110591Y-98583180D02*
X135158210Y-98487942D01*
X135158210Y-98487942D02*
X135158210Y-98202228D01*
X135158210Y-98202228D02*
X135110591Y-98106990D01*
X135110591Y-98106990D02*
X135062972Y-98059371D01*
X135062972Y-98059371D02*
X134967734Y-98011752D01*
X134967734Y-98011752D02*
X134777258Y-98011752D01*
X134777258Y-98011752D02*
X134682020Y-98059371D01*
X133443924Y-98678419D02*
X133443924Y-97678419D01*
X133443924Y-98059371D02*
X133348686Y-98011752D01*
X133348686Y-98011752D02*
X133158210Y-98011752D01*
X133158210Y-98011752D02*
X133062972Y-98059371D01*
X133062972Y-98059371D02*
X133015353Y-98106990D01*
X133015353Y-98106990D02*
X132967734Y-98202228D01*
X132967734Y-98202228D02*
X132967734Y-98487942D01*
X132967734Y-98487942D02*
X133015353Y-98583180D01*
X133015353Y-98583180D02*
X133062972Y-98630800D01*
X133062972Y-98630800D02*
X133158210Y-98678419D01*
X133158210Y-98678419D02*
X133348686Y-98678419D01*
X133348686Y-98678419D02*
X133443924Y-98630800D01*
X132634400Y-98011752D02*
X132396305Y-98678419D01*
X132158210Y-98011752D02*
X132396305Y-98678419D01*
X132396305Y-98678419D02*
X132491543Y-98916514D01*
X132491543Y-98916514D02*
X132539162Y-98964133D01*
X132539162Y-98964133D02*
X132634400Y-99011752D01*
X130824876Y-98202228D02*
X130824876Y-98678419D01*
X131158209Y-97678419D02*
X130824876Y-98202228D01*
X130824876Y-98202228D02*
X130491543Y-97678419D01*
X130205828Y-98630800D02*
X130062971Y-98678419D01*
X130062971Y-98678419D02*
X129824876Y-98678419D01*
X129824876Y-98678419D02*
X129729638Y-98630800D01*
X129729638Y-98630800D02*
X129682019Y-98583180D01*
X129682019Y-98583180D02*
X129634400Y-98487942D01*
X129634400Y-98487942D02*
X129634400Y-98392704D01*
X129634400Y-98392704D02*
X129682019Y-98297466D01*
X129682019Y-98297466D02*
X129729638Y-98249847D01*
X129729638Y-98249847D02*
X129824876Y-98202228D01*
X129824876Y-98202228D02*
X130015352Y-98154609D01*
X130015352Y-98154609D02*
X130110590Y-98106990D01*
X130110590Y-98106990D02*
X130158209Y-98059371D01*
X130158209Y-98059371D02*
X130205828Y-97964133D01*
X130205828Y-97964133D02*
X130205828Y-97868895D01*
X130205828Y-97868895D02*
X130158209Y-97773657D01*
X130158209Y-97773657D02*
X130110590Y-97726038D01*
X130110590Y-97726038D02*
X130015352Y-97678419D01*
X130015352Y-97678419D02*
X129777257Y-97678419D01*
X129777257Y-97678419D02*
X129634400Y-97726038D01*
X129205828Y-98297466D02*
X128443924Y-98297466D01*
X127491543Y-98678419D02*
X127967733Y-98678419D01*
X127967733Y-98678419D02*
X127967733Y-97678419D01*
X126729638Y-98678419D02*
X126729638Y-98154609D01*
X126729638Y-98154609D02*
X126777257Y-98059371D01*
X126777257Y-98059371D02*
X126872495Y-98011752D01*
X126872495Y-98011752D02*
X127062971Y-98011752D01*
X127062971Y-98011752D02*
X127158209Y-98059371D01*
X126729638Y-98630800D02*
X126824876Y-98678419D01*
X126824876Y-98678419D02*
X127062971Y-98678419D01*
X127062971Y-98678419D02*
X127158209Y-98630800D01*
X127158209Y-98630800D02*
X127205828Y-98535561D01*
X127205828Y-98535561D02*
X127205828Y-98440323D01*
X127205828Y-98440323D02*
X127158209Y-98345085D01*
X127158209Y-98345085D02*
X127062971Y-98297466D01*
X127062971Y-98297466D02*
X126824876Y-98297466D01*
X126824876Y-98297466D02*
X126729638Y-98249847D01*
X126253447Y-98678419D02*
X126253447Y-97678419D01*
X126253447Y-98059371D02*
X126158209Y-98011752D01*
X126158209Y-98011752D02*
X125967733Y-98011752D01*
X125967733Y-98011752D02*
X125872495Y-98059371D01*
X125872495Y-98059371D02*
X125824876Y-98106990D01*
X125824876Y-98106990D02*
X125777257Y-98202228D01*
X125777257Y-98202228D02*
X125777257Y-98487942D01*
X125777257Y-98487942D02*
X125824876Y-98583180D01*
X125824876Y-98583180D02*
X125872495Y-98630800D01*
X125872495Y-98630800D02*
X125967733Y-98678419D01*
X125967733Y-98678419D02*
X126158209Y-98678419D01*
X126158209Y-98678419D02*
X126253447Y-98630800D01*
X125348685Y-98583180D02*
X125301066Y-98630800D01*
X125301066Y-98630800D02*
X125348685Y-98678419D01*
X125348685Y-98678419D02*
X125396304Y-98630800D01*
X125396304Y-98630800D02*
X125348685Y-98583180D01*
X125348685Y-98583180D02*
X125348685Y-98678419D01*
X124158209Y-97773657D02*
X124110590Y-97726038D01*
X124110590Y-97726038D02*
X124015352Y-97678419D01*
X124015352Y-97678419D02*
X123777257Y-97678419D01*
X123777257Y-97678419D02*
X123682019Y-97726038D01*
X123682019Y-97726038D02*
X123634400Y-97773657D01*
X123634400Y-97773657D02*
X123586781Y-97868895D01*
X123586781Y-97868895D02*
X123586781Y-97964133D01*
X123586781Y-97964133D02*
X123634400Y-98106990D01*
X123634400Y-98106990D02*
X124205828Y-98678419D01*
X124205828Y-98678419D02*
X123586781Y-98678419D01*
X122967733Y-97678419D02*
X122872495Y-97678419D01*
X122872495Y-97678419D02*
X122777257Y-97726038D01*
X122777257Y-97726038D02*
X122729638Y-97773657D01*
X122729638Y-97773657D02*
X122682019Y-97868895D01*
X122682019Y-97868895D02*
X122634400Y-98059371D01*
X122634400Y-98059371D02*
X122634400Y-98297466D01*
X122634400Y-98297466D02*
X122682019Y-98487942D01*
X122682019Y-98487942D02*
X122729638Y-98583180D01*
X122729638Y-98583180D02*
X122777257Y-98630800D01*
X122777257Y-98630800D02*
X122872495Y-98678419D01*
X122872495Y-98678419D02*
X122967733Y-98678419D01*
X122967733Y-98678419D02*
X123062971Y-98630800D01*
X123062971Y-98630800D02*
X123110590Y-98583180D01*
X123110590Y-98583180D02*
X123158209Y-98487942D01*
X123158209Y-98487942D02*
X123205828Y-98297466D01*
X123205828Y-98297466D02*
X123205828Y-98059371D01*
X123205828Y-98059371D02*
X123158209Y-97868895D01*
X123158209Y-97868895D02*
X123110590Y-97773657D01*
X123110590Y-97773657D02*
X123062971Y-97726038D01*
X123062971Y-97726038D02*
X122967733Y-97678419D01*
X122253447Y-97773657D02*
X122205828Y-97726038D01*
X122205828Y-97726038D02*
X122110590Y-97678419D01*
X122110590Y-97678419D02*
X121872495Y-97678419D01*
X121872495Y-97678419D02*
X121777257Y-97726038D01*
X121777257Y-97726038D02*
X121729638Y-97773657D01*
X121729638Y-97773657D02*
X121682019Y-97868895D01*
X121682019Y-97868895D02*
X121682019Y-97964133D01*
X121682019Y-97964133D02*
X121729638Y-98106990D01*
X121729638Y-98106990D02*
X122301066Y-98678419D01*
X122301066Y-98678419D02*
X121682019Y-98678419D01*
X120824876Y-98011752D02*
X120824876Y-98678419D01*
X121062971Y-97630800D02*
X121301066Y-98345085D01*
X121301066Y-98345085D02*
X120682019Y-98345085D01*
M02*
