%TF.GenerationSoftware,KiCad,Pcbnew,8.0.7-8.0.7-0~ubuntu22.04.1*%
%TF.CreationDate,2024-12-10T16:16:57+09:00*%
%TF.ProjectId,M252,4d323532-2e6b-4696-9361-645f70636258,rev?*%
%TF.SameCoordinates,Original*%
%TF.FileFunction,Soldermask,Top*%
%TF.FilePolarity,Negative*%
%FSLAX46Y46*%
G04 Gerber Fmt 4.6, Leading zero omitted, Abs format (unit mm)*
G04 Created by KiCad (PCBNEW 8.0.7-8.0.7-0~ubuntu22.04.1) date 2024-12-10 16:16:57*
%MOMM*%
%LPD*%
G01*
G04 APERTURE LIST*
G04 Aperture macros list*
%AMRoundRect*
0 Rectangle with rounded corners*
0 $1 Rounding radius*
0 $2 $3 $4 $5 $6 $7 $8 $9 X,Y pos of 4 corners*
0 Add a 4 corners polygon primitive as box body*
4,1,4,$2,$3,$4,$5,$6,$7,$8,$9,$2,$3,0*
0 Add four circle primitives for the rounded corners*
1,1,$1+$1,$2,$3*
1,1,$1+$1,$4,$5*
1,1,$1+$1,$6,$7*
1,1,$1+$1,$8,$9*
0 Add four rect primitives between the rounded corners*
20,1,$1+$1,$2,$3,$4,$5,0*
20,1,$1+$1,$4,$5,$6,$7,0*
20,1,$1+$1,$6,$7,$8,$9,0*
20,1,$1+$1,$8,$9,$2,$3,0*%
G04 Aperture macros list end*
%ADD10C,1.200000*%
%ADD11RoundRect,0.250000X0.725000X-0.600000X0.725000X0.600000X-0.725000X0.600000X-0.725000X-0.600000X0*%
%ADD12O,1.950000X1.700000*%
%ADD13C,1.600000*%
%ADD14O,1.600000X1.600000*%
%ADD15C,2.000000*%
%ADD16C,5.000000*%
%ADD17R,2.400000X1.600000*%
%ADD18O,2.400000X1.600000*%
%ADD19C,1.500000*%
%ADD20R,1.700000X1.700000*%
%ADD21O,1.700000X1.700000*%
G04 APERTURE END LIST*
D10*
%TO.C,J101*%
X106902000Y-90246000D03*
D11*
X104902000Y-88646000D03*
D12*
X104902000Y-86146000D03*
X104902000Y-83646000D03*
X104902000Y-81146000D03*
%TD*%
D13*
%TO.C,R101*%
X135620000Y-75990000D03*
D14*
X135620000Y-68370000D03*
%TD*%
D13*
%TO.C,C102*%
X131064000Y-82082000D03*
X131064000Y-84582000D03*
%TD*%
D15*
%TO.C,SW101*%
X108204000Y-73914000D03*
X103204000Y-73914000D03*
%TD*%
D16*
%TO.C,REF\u002A\u002A*%
X104000000Y-96000000D03*
%TD*%
D13*
%TO.C,R104*%
X139192000Y-86614000D03*
D14*
X139192000Y-78994000D03*
%TD*%
D16*
%TO.C,REF\u002A\u002A*%
X104000000Y-64000000D03*
%TD*%
D13*
%TO.C,R105*%
X132810000Y-88417400D03*
D14*
X125190000Y-88417400D03*
%TD*%
D17*
%TO.C,IC101*%
X112776000Y-66929000D03*
D18*
X112776000Y-69469000D03*
X112776000Y-72009000D03*
X112776000Y-74549000D03*
X112776000Y-77089000D03*
X112776000Y-79629000D03*
X112776000Y-82169000D03*
X112776000Y-84709000D03*
X112776000Y-87249000D03*
X120396000Y-87249000D03*
X120396000Y-84709000D03*
X120396000Y-82169000D03*
X120396000Y-79629000D03*
X120396000Y-77089000D03*
X120396000Y-74549000D03*
X120396000Y-72009000D03*
X120396000Y-69469000D03*
X120396000Y-66929000D03*
%TD*%
D13*
%TO.C,C101*%
X146538000Y-85852000D03*
X144038000Y-85852000D03*
%TD*%
D19*
%TO.C,Q101*%
X126492000Y-77162000D03*
X126492000Y-82042000D03*
%TD*%
D13*
%TO.C,R103*%
X131826000Y-71628000D03*
D14*
X124206000Y-71628000D03*
%TD*%
D13*
%TO.C,C104*%
X131806000Y-68326000D03*
X129306000Y-68326000D03*
%TD*%
D20*
%TO.C,J102*%
X124420000Y-95250000D03*
D21*
X121880000Y-95250000D03*
X119340000Y-95250000D03*
X116800000Y-95250000D03*
X114260000Y-95250000D03*
%TD*%
D13*
%TO.C,C105*%
X139192000Y-73426000D03*
X139192000Y-75926000D03*
%TD*%
D16*
%TO.C,REF\u002A\u002A*%
X146000000Y-64000000D03*
%TD*%
D13*
%TO.C,R102*%
X135625000Y-86620000D03*
D14*
X135625000Y-79000000D03*
%TD*%
D11*
%TO.C,J103*%
X144304000Y-78918000D03*
D12*
X144304000Y-76418000D03*
X144304000Y-73918000D03*
%TD*%
D16*
%TO.C,REF\u002A\u002A*%
X146000000Y-96000000D03*
%TD*%
D13*
%TO.C,C103*%
X131038600Y-77165200D03*
X131038600Y-74665200D03*
%TD*%
M02*
