%TF.GenerationSoftware,KiCad,Pcbnew,8.0.8-8.0.8-0~ubuntu22.04.1*%
%TF.CreationDate,2025-01-20T17:27:52+09:00*%
%TF.ProjectId,M252,4d323532-2e6b-4696-9361-645f70636258,rev?*%
%TF.SameCoordinates,Original*%
%TF.FileFunction,Copper,L2,Bot*%
%TF.FilePolarity,Positive*%
%FSLAX46Y46*%
G04 Gerber Fmt 4.6, Leading zero omitted, Abs format (unit mm)*
G04 Created by KiCad (PCBNEW 8.0.8-8.0.8-0~ubuntu22.04.1) date 2025-01-20 17:27:52*
%MOMM*%
%LPD*%
G01*
G04 APERTURE LIST*
G04 Aperture macros list*
%AMRoundRect*
0 Rectangle with rounded corners*
0 $1 Rounding radius*
0 $2 $3 $4 $5 $6 $7 $8 $9 X,Y pos of 4 corners*
0 Add a 4 corners polygon primitive as box body*
4,1,4,$2,$3,$4,$5,$6,$7,$8,$9,$2,$3,0*
0 Add four circle primitives for the rounded corners*
1,1,$1+$1,$2,$3*
1,1,$1+$1,$4,$5*
1,1,$1+$1,$6,$7*
1,1,$1+$1,$8,$9*
0 Add four rect primitives between the rounded corners*
20,1,$1+$1,$2,$3,$4,$5,0*
20,1,$1+$1,$4,$5,$6,$7,0*
20,1,$1+$1,$6,$7,$8,$9,0*
20,1,$1+$1,$8,$9,$2,$3,0*%
G04 Aperture macros list end*
%TA.AperFunction,ComponentPad*%
%ADD10RoundRect,0.250000X0.725000X-0.600000X0.725000X0.600000X-0.725000X0.600000X-0.725000X-0.600000X0*%
%TD*%
%TA.AperFunction,ComponentPad*%
%ADD11O,1.950000X1.700000*%
%TD*%
%TA.AperFunction,ComponentPad*%
%ADD12C,1.600000*%
%TD*%
%TA.AperFunction,ComponentPad*%
%ADD13O,1.600000X1.600000*%
%TD*%
%TA.AperFunction,ComponentPad*%
%ADD14C,2.000000*%
%TD*%
%TA.AperFunction,ComponentPad*%
%ADD15C,5.000000*%
%TD*%
%TA.AperFunction,ComponentPad*%
%ADD16R,2.400000X1.600000*%
%TD*%
%TA.AperFunction,ComponentPad*%
%ADD17O,2.400000X1.600000*%
%TD*%
%TA.AperFunction,ComponentPad*%
%ADD18C,1.500000*%
%TD*%
%TA.AperFunction,ComponentPad*%
%ADD19R,1.700000X1.700000*%
%TD*%
%TA.AperFunction,ComponentPad*%
%ADD20O,1.700000X1.700000*%
%TD*%
%TA.AperFunction,ViaPad*%
%ADD21C,0.600000*%
%TD*%
%TA.AperFunction,Conductor*%
%ADD22C,0.200000*%
%TD*%
G04 APERTURE END LIST*
D10*
%TO.P,J101,1,Pin_1*%
%TO.N,+5V*%
X104902000Y-88646000D03*
D11*
%TO.P,J101,2,Pin_2*%
%TO.N,/TB2_RX*%
X104902000Y-86146000D03*
%TO.P,J101,3,Pin_3*%
%TO.N,/TB2_TX*%
X104902000Y-83646000D03*
%TO.P,J101,4,Pin_4*%
%TO.N,GND*%
X104902000Y-81146000D03*
%TD*%
D12*
%TO.P,R101,1,1*%
%TO.N,Net-(C104-Pad1)*%
X135620000Y-75990000D03*
D13*
%TO.P,R101,2,2*%
%TO.N,+5V*%
X135620000Y-68370000D03*
%TD*%
D12*
%TO.P,C102,1,1*%
%TO.N,Net-(IC101-RA6)*%
X131064000Y-82082000D03*
%TO.P,C102,2,2*%
%TO.N,GND*%
X131064000Y-84582000D03*
%TD*%
D14*
%TO.P,SW101,1,1*%
%TO.N,Net-(C104-Pad1)*%
X108204000Y-73914000D03*
%TO.P,SW101,2,2*%
%TO.N,GND*%
X103204000Y-73914000D03*
%TD*%
D15*
%TO.P,REF\u002A\u002A,1*%
%TO.N,N/C*%
X104000000Y-96000000D03*
%TD*%
D12*
%TO.P,R104,1,1*%
%TO.N,Net-(J103-Pin_2)*%
X139192000Y-86614000D03*
D13*
%TO.P,R104,2,2*%
%TO.N,Net-(IC101-RA4)*%
X139192000Y-78994000D03*
%TD*%
D15*
%TO.P,REF\u002A\u002A,1*%
%TO.N,N/C*%
X104000000Y-64000000D03*
%TD*%
D12*
%TO.P,R105,1,1*%
%TO.N,Net-(J103-Pin_2)*%
X132810000Y-88417400D03*
D13*
%TO.P,R105,2,2*%
%TO.N,GND*%
X125190000Y-88417400D03*
%TD*%
D16*
%TO.P,IC101,1,RA2*%
%TO.N,unconnected-(IC101-RA2-Pad1)*%
X112776000Y-66929000D03*
D17*
%TO.P,IC101,2,RA3*%
%TO.N,unconnected-(IC101-RA3-Pad2)*%
X112776000Y-69469000D03*
%TO.P,IC101,3,RA4*%
%TO.N,Net-(IC101-RA4)*%
X112776000Y-72009000D03*
%TO.P,IC101,4,RA5/~{MCLR}/VPP*%
%TO.N,Net-(IC101-RA5{slash}~{MCLR}{slash}VPP)*%
X112776000Y-74549000D03*
%TO.P,IC101,5,VSS*%
%TO.N,GND*%
X112776000Y-77089000D03*
%TO.P,IC101,6,RB0*%
%TO.N,Net-(IC101-RB0)*%
X112776000Y-79629000D03*
%TO.P,IC101,7,RB1*%
%TO.N,unconnected-(IC101-RB1-Pad7)*%
X112776000Y-82169000D03*
%TO.P,IC101,8,RB2*%
%TO.N,/TB2_RX*%
X112776000Y-84709000D03*
%TO.P,IC101,9,RB3*%
%TO.N,unconnected-(IC101-RB3-Pad9)*%
X112776000Y-87249000D03*
%TO.P,IC101,10,RB4*%
%TO.N,unconnected-(IC101-RB4-Pad10)*%
X120396000Y-87249000D03*
%TO.P,IC101,11,RB5*%
%TO.N,/TB2_TX*%
X120396000Y-84709000D03*
%TO.P,IC101,12,RB6*%
%TO.N,Net-(IC101-RB6)*%
X120396000Y-82169000D03*
%TO.P,IC101,13,RB7*%
%TO.N,Net-(IC101-RB7)*%
X120396000Y-79629000D03*
%TO.P,IC101,14,VDD*%
%TO.N,+5V*%
X120396000Y-77089000D03*
%TO.P,IC101,15,RA6*%
%TO.N,Net-(IC101-RA6)*%
X120396000Y-74549000D03*
%TO.P,IC101,16,RA7*%
%TO.N,Net-(IC101-RA7)*%
X120396000Y-72009000D03*
%TO.P,IC101,17,RA0*%
%TO.N,unconnected-(IC101-RA0-Pad17)*%
X120396000Y-69469000D03*
%TO.P,IC101,18,RA1*%
%TO.N,unconnected-(IC101-RA1-Pad18)*%
X120396000Y-66929000D03*
%TD*%
D12*
%TO.P,C101,1*%
%TO.N,GND*%
X146538000Y-85852000D03*
%TO.P,C101,2*%
%TO.N,+5V*%
X144038000Y-85852000D03*
%TD*%
D18*
%TO.P,Q101,1,1*%
%TO.N,Net-(IC101-RA7)*%
X126492000Y-77162000D03*
%TO.P,Q101,2,2*%
%TO.N,Net-(IC101-RA6)*%
X126492000Y-82042000D03*
%TD*%
D12*
%TO.P,R103,1,1*%
%TO.N,Net-(IC101-RA4)*%
X131826000Y-71628000D03*
D13*
%TO.P,R103,2,2*%
%TO.N,Net-(IC101-RB0)*%
X124206000Y-71628000D03*
%TD*%
D12*
%TO.P,C104,1,1*%
%TO.N,Net-(C104-Pad1)*%
X131806000Y-68326000D03*
%TO.P,C104,2,2*%
%TO.N,GND*%
X129306000Y-68326000D03*
%TD*%
D19*
%TO.P,J102,1,Pin_1*%
%TO.N,Net-(IC101-RA5{slash}~{MCLR}{slash}VPP)*%
X124420000Y-95250000D03*
D20*
%TO.P,J102,2,Pin_2*%
%TO.N,+5V*%
X121880000Y-95250000D03*
%TO.P,J102,3,Pin_3*%
%TO.N,GND*%
X119340000Y-95250000D03*
%TO.P,J102,4,Pin_4*%
%TO.N,Net-(IC101-RB7)*%
X116800000Y-95250000D03*
%TO.P,J102,5,Pin_5*%
%TO.N,Net-(IC101-RB6)*%
X114260000Y-95250000D03*
%TD*%
D12*
%TO.P,C105,1,1*%
%TO.N,Net-(IC101-RA4)*%
X139192000Y-73426000D03*
%TO.P,C105,2,2*%
%TO.N,GND*%
X139192000Y-75926000D03*
%TD*%
D15*
%TO.P,REF\u002A\u002A,1*%
%TO.N,N/C*%
X146000000Y-64000000D03*
%TD*%
D12*
%TO.P,R102,1,1*%
%TO.N,Net-(IC101-RA5{slash}~{MCLR}{slash}VPP)*%
X135625000Y-86620000D03*
D13*
%TO.P,R102,2,2*%
%TO.N,Net-(C104-Pad1)*%
X135625000Y-79000000D03*
%TD*%
D10*
%TO.P,J103,1,Pin_1*%
%TO.N,+5V*%
X144304000Y-78918000D03*
D11*
%TO.P,J103,2,Pin_2*%
%TO.N,Net-(J103-Pin_2)*%
X144304000Y-76418000D03*
%TO.P,J103,3,Pin_3*%
%TO.N,unconnected-(J103-Pin_3-Pad3)*%
X144304000Y-73918000D03*
%TD*%
D15*
%TO.P,REF\u002A\u002A,1*%
%TO.N,N/C*%
X146000000Y-96000000D03*
%TD*%
D12*
%TO.P,C103,1,1*%
%TO.N,Net-(IC101-RA7)*%
X131038600Y-77165200D03*
%TO.P,C103,2,2*%
%TO.N,GND*%
X131038600Y-74665200D03*
%TD*%
D21*
%TO.N,Net-(IC101-RB0)*%
X117856000Y-73500000D03*
%TD*%
D22*
%TO.N,Net-(IC101-RA6)*%
X123977400Y-79527400D02*
X126492000Y-82042000D01*
X121589800Y-74549000D02*
X123977400Y-76936600D01*
X123977400Y-76936600D02*
X123977400Y-79527400D01*
X131024000Y-82042000D02*
X131064000Y-82082000D01*
X126492000Y-82042000D02*
X131024000Y-82042000D01*
X120396000Y-74549000D02*
X121589800Y-74549000D01*
%TO.N,Net-(IC101-RA7)*%
X121339000Y-72009000D02*
X126492000Y-77162000D01*
X126492000Y-77162000D02*
X131035400Y-77162000D01*
X131035400Y-77162000D02*
X131038600Y-77165200D01*
X120396000Y-72009000D02*
X121339000Y-72009000D01*
%TO.N,Net-(C104-Pad1)*%
X109728000Y-63500000D02*
X108204000Y-65024000D01*
X131806000Y-68326000D02*
X131816000Y-68336000D01*
X131806000Y-68326000D02*
X131800000Y-66400000D01*
X135620000Y-75990000D02*
X135620000Y-78995000D01*
X133838000Y-70358000D02*
X134874000Y-70358000D01*
X125730000Y-65786000D02*
X123444000Y-63500000D01*
X123444000Y-63500000D02*
X109728000Y-63500000D01*
X135620000Y-78995000D02*
X135625000Y-79000000D01*
X131400000Y-65800000D02*
X125730000Y-65786000D01*
X131806000Y-68326000D02*
X133838000Y-70358000D01*
X131400000Y-65800000D02*
X131800000Y-66200000D01*
X135620000Y-71104000D02*
X135620000Y-75990000D01*
X131800000Y-66200000D02*
X131800000Y-66400000D01*
X108204000Y-65024000D02*
X108204000Y-73914000D01*
X134874000Y-70358000D02*
X135620000Y-71104000D01*
%TO.N,Net-(IC101-RA4)*%
X124968000Y-70358000D02*
X126238000Y-71628000D01*
X116800000Y-64100000D02*
X123200000Y-64100000D01*
X141000000Y-78250000D02*
X140256000Y-78994000D01*
X112776000Y-72009000D02*
X114681000Y-72009000D01*
X115062000Y-65786000D02*
X116800000Y-64100000D01*
X139192000Y-73426000D02*
X140176000Y-73426000D01*
X140256000Y-78994000D02*
X139192000Y-78994000D01*
X124968000Y-65786000D02*
X124968000Y-70358000D01*
X126238000Y-71628000D02*
X131826000Y-71628000D01*
X114681000Y-72009000D02*
X115062000Y-71628000D01*
X141000000Y-74250000D02*
X141000000Y-78250000D01*
X123200000Y-64100000D02*
X124968000Y-65786000D01*
X115062000Y-71628000D02*
X115062000Y-65786000D01*
X140176000Y-73426000D02*
X141000000Y-74250000D01*
%TO.N,Net-(IC101-RB6)*%
X120396000Y-82169000D02*
X122169000Y-82169000D01*
X123000000Y-83000000D02*
X123000000Y-90500000D01*
X122500000Y-91000000D02*
X116000000Y-91000000D01*
X123000000Y-90500000D02*
X122500000Y-91000000D01*
X116000000Y-91000000D02*
X114420000Y-92580000D01*
X122169000Y-82169000D02*
X123000000Y-83000000D01*
X114420000Y-92580000D02*
X114420000Y-95250000D01*
%TO.N,/TB2_RX*%
X107910000Y-86146000D02*
X109347000Y-84709000D01*
X109347000Y-84709000D02*
X112776000Y-84709000D01*
X104902000Y-86146000D02*
X107910000Y-86146000D01*
%TO.N,Net-(IC101-RB0)*%
X117856000Y-73500000D02*
X117856000Y-78232000D01*
X116459000Y-79629000D02*
X112776000Y-79629000D01*
X117856000Y-78232000D02*
X116459000Y-79629000D01*
%TO.N,/TB2_TX*%
X116205000Y-84709000D02*
X115062000Y-85852000D01*
X114000000Y-91750000D02*
X103250000Y-91750000D01*
X103250000Y-91750000D02*
X102616000Y-91186000D01*
X102616000Y-84328000D02*
X103298000Y-83646000D01*
X115062000Y-90678000D02*
X114000000Y-91750000D01*
X102616000Y-91186000D02*
X102616000Y-84328000D01*
X115062000Y-85852000D02*
X115062000Y-90678000D01*
X120396000Y-84709000D02*
X116205000Y-84709000D01*
X103298000Y-83646000D02*
X104902000Y-83646000D01*
%TO.N,Net-(IC101-RB7)*%
X120396000Y-79629000D02*
X121539000Y-79629000D01*
X123000000Y-91500000D02*
X118000000Y-91500000D01*
X118000000Y-91500000D02*
X116920000Y-92500000D01*
X123500000Y-91000000D02*
X123000000Y-91500000D01*
X121539000Y-79629000D02*
X123500000Y-81000000D01*
X116920000Y-92500000D02*
X116920000Y-95250000D01*
X123500000Y-81000000D02*
X123500000Y-91000000D01*
%TO.N,Net-(J103-Pin_2)*%
X141750000Y-82750000D02*
X142500000Y-82000000D01*
X148600000Y-82000000D02*
X148600000Y-76400000D01*
X141750000Y-85250000D02*
X141750000Y-82750000D01*
X138684000Y-84836000D02*
X134620000Y-84836000D01*
X147018000Y-76418000D02*
X144304000Y-76418000D01*
X142500000Y-82000000D02*
X148600000Y-82000000D01*
X132080000Y-86614000D02*
X132080000Y-88417400D01*
X134620000Y-84836000D02*
X133096000Y-86360000D01*
X132334000Y-86360000D02*
X132080000Y-86614000D01*
X140386000Y-86614000D02*
X141750000Y-85250000D01*
X139192000Y-86614000D02*
X139192000Y-85344000D01*
X133096000Y-86360000D02*
X132334000Y-86360000D01*
X148600000Y-76400000D02*
X147018000Y-76418000D01*
X139192000Y-85344000D02*
X138684000Y-84836000D01*
X139192000Y-86614000D02*
X140386000Y-86614000D01*
%TO.N,Net-(IC101-RA5{slash}~{MCLR}{slash}VPP)*%
X124420000Y-95250000D02*
X133350000Y-95250000D01*
X133350000Y-95250000D02*
X135625000Y-92975000D01*
X135625000Y-92975000D02*
X135625000Y-86620000D01*
%TD*%
%TA.AperFunction,Conductor*%
%TO.N,GND*%
G36*
X140222308Y-74337390D02*
G01*
X140266656Y-74365891D01*
X140363181Y-74462416D01*
X140396666Y-74523739D01*
X140399500Y-74550097D01*
X140399500Y-75076445D01*
X140379815Y-75143484D01*
X140327011Y-75189239D01*
X140273011Y-75198540D01*
X139592000Y-75879551D01*
X139592000Y-75873339D01*
X139564741Y-75771606D01*
X139512080Y-75680394D01*
X139437606Y-75605920D01*
X139346394Y-75553259D01*
X139244661Y-75526000D01*
X139238445Y-75526000D01*
X139917472Y-74846974D01*
X139844480Y-74795864D01*
X139829024Y-74788657D01*
X139776585Y-74742484D01*
X139757433Y-74675290D01*
X139777649Y-74608409D01*
X139829023Y-74563893D01*
X139844734Y-74556568D01*
X140031139Y-74426047D01*
X140091296Y-74365889D01*
X140152616Y-74332406D01*
X140222308Y-74337390D01*
G37*
%TD.AperFunction*%
%TA.AperFunction,Conductor*%
G36*
X149442539Y-60520185D02*
G01*
X149488294Y-60572989D01*
X149499500Y-60624500D01*
X149499500Y-99375500D01*
X149479815Y-99442539D01*
X149427011Y-99488294D01*
X149375500Y-99499500D01*
X100624500Y-99499500D01*
X100557461Y-99479815D01*
X100511706Y-99427011D01*
X100500500Y-99375500D01*
X100500500Y-95999996D01*
X100994415Y-95999996D01*
X100994415Y-96000003D01*
X101014738Y-96348927D01*
X101014739Y-96348938D01*
X101075428Y-96693127D01*
X101075430Y-96693134D01*
X101175674Y-97027972D01*
X101314107Y-97348895D01*
X101314113Y-97348908D01*
X101488870Y-97651597D01*
X101697584Y-97931949D01*
X101697589Y-97931955D01*
X101821463Y-98063253D01*
X101937442Y-98186183D01*
X102113903Y-98334251D01*
X102205186Y-98410847D01*
X102205194Y-98410853D01*
X102497203Y-98602911D01*
X102497207Y-98602913D01*
X102809549Y-98759777D01*
X103137989Y-98879319D01*
X103478086Y-98959923D01*
X103825241Y-99000500D01*
X103825248Y-99000500D01*
X104174752Y-99000500D01*
X104174759Y-99000500D01*
X104521914Y-98959923D01*
X104862011Y-98879319D01*
X105190451Y-98759777D01*
X105502793Y-98602913D01*
X105794811Y-98410849D01*
X106062558Y-98186183D01*
X106302412Y-97931953D01*
X106511130Y-97651596D01*
X106685889Y-97348904D01*
X106824326Y-97027971D01*
X106924569Y-96693136D01*
X106939994Y-96605659D01*
X106985260Y-96348938D01*
X106985259Y-96348938D01*
X106985262Y-96348927D01*
X107005585Y-96000000D01*
X106985262Y-95651073D01*
X106977757Y-95608507D01*
X106924571Y-95306872D01*
X106924569Y-95306865D01*
X106907545Y-95250000D01*
X106824326Y-94972029D01*
X106685889Y-94651096D01*
X106528750Y-94378922D01*
X106511129Y-94348402D01*
X106302415Y-94068050D01*
X106302410Y-94068044D01*
X106186433Y-93945117D01*
X106062558Y-93813817D01*
X105914488Y-93689572D01*
X105794813Y-93589152D01*
X105794805Y-93589146D01*
X105502796Y-93397088D01*
X105190458Y-93240226D01*
X105190449Y-93240222D01*
X104862012Y-93120681D01*
X104862009Y-93120680D01*
X104521915Y-93040077D01*
X104478519Y-93035004D01*
X104174759Y-92999500D01*
X103825241Y-92999500D01*
X103521480Y-93035004D01*
X103478085Y-93040077D01*
X103478083Y-93040077D01*
X103137990Y-93120680D01*
X103137987Y-93120681D01*
X102809551Y-93240222D01*
X102809541Y-93240226D01*
X102497203Y-93397088D01*
X102205194Y-93589146D01*
X102205186Y-93589152D01*
X101937442Y-93813817D01*
X101937440Y-93813819D01*
X101697589Y-94068044D01*
X101697584Y-94068050D01*
X101488870Y-94348402D01*
X101314113Y-94651091D01*
X101314107Y-94651104D01*
X101175674Y-94972027D01*
X101075430Y-95306865D01*
X101075428Y-95306872D01*
X101014739Y-95651061D01*
X101014738Y-95651072D01*
X100994415Y-95999996D01*
X100500500Y-95999996D01*
X100500500Y-91142103D01*
X102011910Y-91142103D01*
X102011910Y-91142104D01*
X102015289Y-91199933D01*
X102015500Y-91207166D01*
X102015500Y-91265062D01*
X102016823Y-91269998D01*
X102020833Y-91294833D01*
X102021132Y-91299945D01*
X102021134Y-91299955D01*
X102039364Y-91354936D01*
X102041434Y-91361848D01*
X102043273Y-91368709D01*
X102056423Y-91417786D01*
X102058976Y-91422207D01*
X102069285Y-91445175D01*
X102070893Y-91450026D01*
X102070896Y-91450032D01*
X102102720Y-91498396D01*
X102106520Y-91504556D01*
X102135477Y-91554712D01*
X102135481Y-91554717D01*
X102139090Y-91558326D01*
X102154995Y-91577846D01*
X102157803Y-91582113D01*
X102157804Y-91582115D01*
X102157805Y-91582116D01*
X102157806Y-91582117D01*
X102201081Y-91620614D01*
X102206327Y-91625563D01*
X102247284Y-91666520D01*
X102251713Y-91669077D01*
X102272123Y-91683812D01*
X102775131Y-92131283D01*
X102835064Y-92184599D01*
X102840329Y-92189565D01*
X102881281Y-92230518D01*
X102881283Y-92230519D01*
X102881284Y-92230520D01*
X102885701Y-92233070D01*
X102906124Y-92247813D01*
X102909941Y-92251209D01*
X102961702Y-92277191D01*
X102968054Y-92280616D01*
X103018216Y-92309577D01*
X103023141Y-92310896D01*
X103046690Y-92319854D01*
X103051251Y-92322144D01*
X103107975Y-92333846D01*
X103115001Y-92335510D01*
X103170943Y-92350500D01*
X103176045Y-92350500D01*
X103201097Y-92353056D01*
X103206105Y-92354090D01*
X103263935Y-92350711D01*
X103271168Y-92350500D01*
X113698210Y-92350500D01*
X113765249Y-92370185D01*
X113811004Y-92422989D01*
X113820948Y-92492147D01*
X113820135Y-92496108D01*
X113819499Y-92500944D01*
X113819499Y-92669046D01*
X113819500Y-92669059D01*
X113819500Y-93886299D01*
X113799815Y-93953338D01*
X113747905Y-93998681D01*
X113582171Y-94075964D01*
X113582169Y-94075965D01*
X113388597Y-94211505D01*
X113221505Y-94378597D01*
X113085965Y-94572169D01*
X113085964Y-94572171D01*
X112986098Y-94786335D01*
X112986094Y-94786344D01*
X112924938Y-95014586D01*
X112924936Y-95014596D01*
X112904341Y-95249999D01*
X112904341Y-95250000D01*
X112924936Y-95485403D01*
X112924938Y-95485413D01*
X112986094Y-95713655D01*
X112986096Y-95713659D01*
X112986097Y-95713663D01*
X113065801Y-95884588D01*
X113085965Y-95927830D01*
X113085967Y-95927834D01*
X113136496Y-95999996D01*
X113221505Y-96121401D01*
X113388599Y-96288495D01*
X113485384Y-96356265D01*
X113582165Y-96424032D01*
X113582167Y-96424033D01*
X113582170Y-96424035D01*
X113796337Y-96523903D01*
X114024592Y-96585063D01*
X114201034Y-96600500D01*
X114259999Y-96605659D01*
X114260000Y-96605659D01*
X114260001Y-96605659D01*
X114318966Y-96600500D01*
X114495408Y-96585063D01*
X114723663Y-96523903D01*
X114937830Y-96424035D01*
X115131401Y-96288495D01*
X115298495Y-96121401D01*
X115428425Y-95935842D01*
X115483002Y-95892217D01*
X115552500Y-95885023D01*
X115614855Y-95916546D01*
X115631575Y-95935842D01*
X115761500Y-96121395D01*
X115761505Y-96121401D01*
X115928599Y-96288495D01*
X116025384Y-96356265D01*
X116122165Y-96424032D01*
X116122167Y-96424033D01*
X116122170Y-96424035D01*
X116336337Y-96523903D01*
X116564592Y-96585063D01*
X116741034Y-96600500D01*
X116799999Y-96605659D01*
X116800000Y-96605659D01*
X116800001Y-96605659D01*
X116858966Y-96600500D01*
X117035408Y-96585063D01*
X117263663Y-96523903D01*
X117477830Y-96424035D01*
X117671401Y-96288495D01*
X117838495Y-96121401D01*
X117968730Y-95935405D01*
X118023307Y-95891781D01*
X118092805Y-95884587D01*
X118155160Y-95916110D01*
X118171879Y-95935405D01*
X118301890Y-96121078D01*
X118468917Y-96288105D01*
X118662421Y-96423600D01*
X118876507Y-96523429D01*
X118876516Y-96523433D01*
X119090000Y-96580634D01*
X119090000Y-95683012D01*
X119147007Y-95715925D01*
X119274174Y-95750000D01*
X119405826Y-95750000D01*
X119532993Y-95715925D01*
X119590000Y-95683012D01*
X119590000Y-96580633D01*
X119803483Y-96523433D01*
X119803492Y-96523429D01*
X120017578Y-96423600D01*
X120211082Y-96288105D01*
X120378105Y-96121082D01*
X120508119Y-95935405D01*
X120562696Y-95891781D01*
X120632195Y-95884588D01*
X120694549Y-95916110D01*
X120711269Y-95935405D01*
X120841505Y-96121401D01*
X121008599Y-96288495D01*
X121105384Y-96356265D01*
X121202165Y-96424032D01*
X121202167Y-96424033D01*
X121202170Y-96424035D01*
X121416337Y-96523903D01*
X121644592Y-96585063D01*
X121821034Y-96600500D01*
X121879999Y-96605659D01*
X121880000Y-96605659D01*
X121880001Y-96605659D01*
X121938966Y-96600500D01*
X122115408Y-96585063D01*
X122343663Y-96523903D01*
X122557830Y-96424035D01*
X122751401Y-96288495D01*
X122873329Y-96166566D01*
X122934648Y-96133084D01*
X123004340Y-96138068D01*
X123060274Y-96179939D01*
X123077189Y-96210917D01*
X123126202Y-96342328D01*
X123126206Y-96342335D01*
X123212452Y-96457544D01*
X123212455Y-96457547D01*
X123327664Y-96543793D01*
X123327671Y-96543797D01*
X123462517Y-96594091D01*
X123462516Y-96594091D01*
X123469444Y-96594835D01*
X123522127Y-96600500D01*
X125317872Y-96600499D01*
X125377483Y-96594091D01*
X125512331Y-96543796D01*
X125627546Y-96457546D01*
X125713796Y-96342331D01*
X125764091Y-96207483D01*
X125770500Y-96147873D01*
X125770500Y-95999996D01*
X142994415Y-95999996D01*
X142994415Y-96000003D01*
X143014738Y-96348927D01*
X143014739Y-96348938D01*
X143075428Y-96693127D01*
X143075430Y-96693134D01*
X143175674Y-97027972D01*
X143314107Y-97348895D01*
X143314113Y-97348908D01*
X143488870Y-97651597D01*
X143697584Y-97931949D01*
X143697589Y-97931955D01*
X143821463Y-98063253D01*
X143937442Y-98186183D01*
X144113903Y-98334251D01*
X144205186Y-98410847D01*
X144205194Y-98410853D01*
X144497203Y-98602911D01*
X144497207Y-98602913D01*
X144809549Y-98759777D01*
X145137989Y-98879319D01*
X145478086Y-98959923D01*
X145825241Y-99000500D01*
X145825248Y-99000500D01*
X146174752Y-99000500D01*
X146174759Y-99000500D01*
X146521914Y-98959923D01*
X146862011Y-98879319D01*
X147190451Y-98759777D01*
X147502793Y-98602913D01*
X147794811Y-98410849D01*
X148062558Y-98186183D01*
X148302412Y-97931953D01*
X148511130Y-97651596D01*
X148685889Y-97348904D01*
X148824326Y-97027971D01*
X148924569Y-96693136D01*
X148939994Y-96605659D01*
X148985260Y-96348938D01*
X148985259Y-96348938D01*
X148985262Y-96348927D01*
X149005585Y-96000000D01*
X148985262Y-95651073D01*
X148977757Y-95608507D01*
X148924571Y-95306872D01*
X148924569Y-95306865D01*
X148907545Y-95250000D01*
X148824326Y-94972029D01*
X148685889Y-94651096D01*
X148528750Y-94378922D01*
X148511129Y-94348402D01*
X148302415Y-94068050D01*
X148302410Y-94068044D01*
X148186433Y-93945117D01*
X148062558Y-93813817D01*
X147914488Y-93689572D01*
X147794813Y-93589152D01*
X147794805Y-93589146D01*
X147502796Y-93397088D01*
X147190458Y-93240226D01*
X147190449Y-93240222D01*
X146862012Y-93120681D01*
X146862009Y-93120680D01*
X146521915Y-93040077D01*
X146478519Y-93035004D01*
X146174759Y-92999500D01*
X145825241Y-92999500D01*
X145521480Y-93035004D01*
X145478085Y-93040077D01*
X145478083Y-93040077D01*
X145137990Y-93120680D01*
X145137987Y-93120681D01*
X144809551Y-93240222D01*
X144809541Y-93240226D01*
X144497203Y-93397088D01*
X144205194Y-93589146D01*
X144205186Y-93589152D01*
X143937442Y-93813817D01*
X143937440Y-93813819D01*
X143697589Y-94068044D01*
X143697584Y-94068050D01*
X143488870Y-94348402D01*
X143314113Y-94651091D01*
X143314107Y-94651104D01*
X143175674Y-94972027D01*
X143075430Y-95306865D01*
X143075428Y-95306872D01*
X143014739Y-95651061D01*
X143014738Y-95651072D01*
X142994415Y-95999996D01*
X125770500Y-95999996D01*
X125770500Y-95974500D01*
X125790185Y-95907461D01*
X125842989Y-95861706D01*
X125894500Y-95850500D01*
X133263331Y-95850500D01*
X133263347Y-95850501D01*
X133270943Y-95850501D01*
X133429054Y-95850501D01*
X133429057Y-95850501D01*
X133581785Y-95809577D01*
X133631904Y-95780639D01*
X133718716Y-95730520D01*
X133830520Y-95618716D01*
X133830520Y-95618714D01*
X133840728Y-95608507D01*
X133840730Y-95608504D01*
X135983506Y-93465728D01*
X135983511Y-93465724D01*
X135993714Y-93455520D01*
X135993716Y-93455520D01*
X136105520Y-93343716D01*
X136165271Y-93240223D01*
X136184577Y-93206785D01*
X136225501Y-93054057D01*
X136225501Y-92895943D01*
X136225501Y-92888348D01*
X136225500Y-92888330D01*
X136225500Y-87851692D01*
X136245185Y-87784653D01*
X136278374Y-87750119D01*
X136464139Y-87620047D01*
X136625047Y-87459139D01*
X136755568Y-87272734D01*
X136851739Y-87066496D01*
X136910635Y-86846692D01*
X136930468Y-86620000D01*
X136910635Y-86393308D01*
X136862987Y-86215482D01*
X136851741Y-86173511D01*
X136851738Y-86173502D01*
X136812560Y-86089485D01*
X136755568Y-85967266D01*
X136625047Y-85780861D01*
X136625045Y-85780858D01*
X136492368Y-85648181D01*
X136458883Y-85586858D01*
X136463867Y-85517166D01*
X136505739Y-85461233D01*
X136571203Y-85436816D01*
X136580049Y-85436500D01*
X138230952Y-85436500D01*
X138297991Y-85456185D01*
X138343746Y-85508989D01*
X138353690Y-85578147D01*
X138324665Y-85641703D01*
X138318646Y-85648167D01*
X138269208Y-85697606D01*
X138191951Y-85774862D01*
X138061432Y-85961265D01*
X138061431Y-85961267D01*
X137965261Y-86167502D01*
X137965258Y-86167511D01*
X137906366Y-86387302D01*
X137906364Y-86387313D01*
X137886532Y-86613998D01*
X137886532Y-86614001D01*
X137906364Y-86840686D01*
X137906366Y-86840697D01*
X137965258Y-87060488D01*
X137965261Y-87060497D01*
X138061431Y-87266732D01*
X138061432Y-87266734D01*
X138191954Y-87453141D01*
X138352858Y-87614045D01*
X138352861Y-87614047D01*
X138539266Y-87744568D01*
X138745504Y-87840739D01*
X138745509Y-87840740D01*
X138745511Y-87840741D01*
X138798415Y-87854916D01*
X138965308Y-87899635D01*
X139127230Y-87913801D01*
X139191998Y-87919468D01*
X139192000Y-87919468D01*
X139192002Y-87919468D01*
X139248673Y-87914509D01*
X139418692Y-87899635D01*
X139638496Y-87840739D01*
X139844734Y-87744568D01*
X140031139Y-87614047D01*
X140192047Y-87453139D01*
X140322117Y-87267377D01*
X140376693Y-87223753D01*
X140423692Y-87214501D01*
X140465054Y-87214501D01*
X140465057Y-87214501D01*
X140617785Y-87173577D01*
X140690205Y-87131765D01*
X140754716Y-87094520D01*
X140866520Y-86982716D01*
X140866520Y-86982714D01*
X140876724Y-86972511D01*
X140876728Y-86972506D01*
X141997236Y-85851998D01*
X142732532Y-85851998D01*
X142732532Y-85852001D01*
X142752364Y-86078686D01*
X142752366Y-86078697D01*
X142811258Y-86298488D01*
X142811261Y-86298497D01*
X142907431Y-86504732D01*
X142907432Y-86504734D01*
X143037954Y-86691141D01*
X143198858Y-86852045D01*
X143201386Y-86853815D01*
X143385266Y-86982568D01*
X143591504Y-87078739D01*
X143811308Y-87137635D01*
X143973230Y-87151801D01*
X144037998Y-87157468D01*
X144038000Y-87157468D01*
X144038002Y-87157468D01*
X144094673Y-87152509D01*
X144264692Y-87137635D01*
X144484496Y-87078739D01*
X144690734Y-86982568D01*
X144877139Y-86852047D01*
X145038047Y-86691139D01*
X145168568Y-86504734D01*
X145175893Y-86489024D01*
X145222064Y-86436586D01*
X145289257Y-86417433D01*
X145356138Y-86437648D01*
X145400657Y-86489024D01*
X145407864Y-86504480D01*
X145458974Y-86577472D01*
X146138000Y-85898446D01*
X146138000Y-85904661D01*
X146165259Y-86006394D01*
X146217920Y-86097606D01*
X146292394Y-86172080D01*
X146383606Y-86224741D01*
X146485339Y-86252000D01*
X146491553Y-86252000D01*
X145812526Y-86931025D01*
X145885513Y-86982132D01*
X145885521Y-86982136D01*
X146091668Y-87078264D01*
X146091682Y-87078269D01*
X146311389Y-87137139D01*
X146311400Y-87137141D01*
X146537998Y-87156966D01*
X146538002Y-87156966D01*
X146764599Y-87137141D01*
X146764610Y-87137139D01*
X146984317Y-87078269D01*
X146984331Y-87078264D01*
X147190478Y-86982136D01*
X147263471Y-86931024D01*
X146584447Y-86252000D01*
X146590661Y-86252000D01*
X146692394Y-86224741D01*
X146783606Y-86172080D01*
X146858080Y-86097606D01*
X146910741Y-86006394D01*
X146938000Y-85904661D01*
X146938000Y-85898447D01*
X147617024Y-86577471D01*
X147668136Y-86504478D01*
X147764264Y-86298331D01*
X147764269Y-86298317D01*
X147823139Y-86078610D01*
X147823141Y-86078599D01*
X147842966Y-85852002D01*
X147842966Y-85851997D01*
X147823141Y-85625400D01*
X147823139Y-85625389D01*
X147764269Y-85405682D01*
X147764264Y-85405668D01*
X147668136Y-85199521D01*
X147668132Y-85199513D01*
X147617025Y-85126526D01*
X146938000Y-85805551D01*
X146938000Y-85799339D01*
X146910741Y-85697606D01*
X146858080Y-85606394D01*
X146783606Y-85531920D01*
X146692394Y-85479259D01*
X146590661Y-85452000D01*
X146584445Y-85452000D01*
X147263472Y-84772974D01*
X147190478Y-84721863D01*
X146984331Y-84625735D01*
X146984317Y-84625730D01*
X146764610Y-84566860D01*
X146764599Y-84566858D01*
X146538002Y-84547034D01*
X146537998Y-84547034D01*
X146311400Y-84566858D01*
X146311389Y-84566860D01*
X146091682Y-84625730D01*
X146091673Y-84625734D01*
X145885516Y-84721866D01*
X145885512Y-84721868D01*
X145812526Y-84772973D01*
X145812526Y-84772974D01*
X146491553Y-85452000D01*
X146485339Y-85452000D01*
X146383606Y-85479259D01*
X146292394Y-85531920D01*
X146217920Y-85606394D01*
X146165259Y-85697606D01*
X146138000Y-85799339D01*
X146138000Y-85805552D01*
X145458974Y-85126526D01*
X145458973Y-85126526D01*
X145407868Y-85199512D01*
X145407867Y-85199514D01*
X145400656Y-85214979D01*
X145354482Y-85267417D01*
X145287288Y-85286567D01*
X145220407Y-85266350D01*
X145175893Y-85214976D01*
X145168568Y-85199266D01*
X145038047Y-85012861D01*
X145038045Y-85012858D01*
X144877141Y-84851954D01*
X144690734Y-84721432D01*
X144690732Y-84721431D01*
X144484497Y-84625261D01*
X144484488Y-84625258D01*
X144264697Y-84566366D01*
X144264693Y-84566365D01*
X144264692Y-84566365D01*
X144264691Y-84566364D01*
X144264686Y-84566364D01*
X144038002Y-84546532D01*
X144037998Y-84546532D01*
X143811313Y-84566364D01*
X143811302Y-84566366D01*
X143591511Y-84625258D01*
X143591502Y-84625261D01*
X143385267Y-84721431D01*
X143385265Y-84721432D01*
X143198858Y-84851954D01*
X143037954Y-85012858D01*
X142907432Y-85199265D01*
X142907431Y-85199267D01*
X142811261Y-85405502D01*
X142811258Y-85405511D01*
X142752366Y-85625302D01*
X142752364Y-85625313D01*
X142732532Y-85851998D01*
X141997236Y-85851998D01*
X142108506Y-85740728D01*
X142108511Y-85740724D01*
X142118714Y-85730520D01*
X142118716Y-85730520D01*
X142230520Y-85618716D01*
X142295011Y-85507013D01*
X142309577Y-85481785D01*
X142350500Y-85329058D01*
X142350500Y-85170943D01*
X142350500Y-83050097D01*
X142370185Y-82983058D01*
X142386819Y-82962416D01*
X142712416Y-82636819D01*
X142773739Y-82603334D01*
X142800097Y-82600500D01*
X148679055Y-82600500D01*
X148679057Y-82600500D01*
X148831784Y-82559577D01*
X148968716Y-82480520D01*
X149080520Y-82368716D01*
X149159577Y-82231784D01*
X149200500Y-82079057D01*
X149200500Y-76486797D01*
X149201361Y-76472402D01*
X149201358Y-76472223D01*
X149201360Y-76472220D01*
X149200508Y-76397341D01*
X149200500Y-76395931D01*
X149200500Y-76320762D01*
X149200487Y-76320584D01*
X149200154Y-76318258D01*
X149199960Y-76316845D01*
X149199647Y-76314473D01*
X149199612Y-76314301D01*
X149199561Y-76314119D01*
X149199561Y-76314116D01*
X149179326Y-76241900D01*
X149178981Y-76240636D01*
X149172567Y-76216697D01*
X149159577Y-76168216D01*
X149159575Y-76168212D01*
X149159527Y-76168033D01*
X149159478Y-76167890D01*
X149158564Y-76165752D01*
X149158018Y-76164453D01*
X149157077Y-76162182D01*
X149157007Y-76162042D01*
X149156903Y-76161867D01*
X149156903Y-76161865D01*
X149118620Y-76097264D01*
X149118069Y-76096321D01*
X149082452Y-76034630D01*
X149080435Y-76031136D01*
X149080324Y-76030972D01*
X149078855Y-76029102D01*
X149077988Y-76027985D01*
X149076554Y-76026117D01*
X149076411Y-76025956D01*
X149076294Y-76025842D01*
X149076294Y-76025841D01*
X149022691Y-75973444D01*
X149021688Y-75972452D01*
X148968600Y-75919364D01*
X148968424Y-75919211D01*
X148966551Y-75917808D01*
X148965428Y-75916957D01*
X148963557Y-75915521D01*
X148963370Y-75915398D01*
X148963226Y-75915317D01*
X148963225Y-75915316D01*
X148903599Y-75881790D01*
X148897915Y-75878594D01*
X148896689Y-75877895D01*
X148831643Y-75840341D01*
X148831446Y-75840245D01*
X148829249Y-75839364D01*
X148827983Y-75838848D01*
X148825766Y-75837930D01*
X148825573Y-75837865D01*
X148752830Y-75819258D01*
X148751469Y-75818901D01*
X148678904Y-75799458D01*
X148678675Y-75799414D01*
X148676315Y-75799131D01*
X148674941Y-75798958D01*
X148672607Y-75798651D01*
X148672382Y-75798637D01*
X148597249Y-75799492D01*
X148595839Y-75799500D01*
X148520770Y-75799500D01*
X148506376Y-75800525D01*
X147015258Y-75817492D01*
X147013847Y-75817500D01*
X145714719Y-75817500D01*
X145647680Y-75797815D01*
X145604235Y-75749795D01*
X145584052Y-75710185D01*
X145584051Y-75710184D01*
X145459109Y-75538213D01*
X145308792Y-75387896D01*
X145289074Y-75373570D01*
X145144204Y-75268316D01*
X145101540Y-75212989D01*
X145095561Y-75143376D01*
X145128166Y-75081580D01*
X145144199Y-75067686D01*
X145308792Y-74948104D01*
X145459104Y-74797792D01*
X145459106Y-74797788D01*
X145459109Y-74797786D01*
X145580571Y-74630606D01*
X145584051Y-74625816D01*
X145680557Y-74436412D01*
X145746246Y-74234243D01*
X145779500Y-74024287D01*
X145779500Y-73811713D01*
X145746246Y-73601757D01*
X145680557Y-73399588D01*
X145584051Y-73210184D01*
X145584049Y-73210181D01*
X145584048Y-73210179D01*
X145459109Y-73038213D01*
X145308786Y-72887890D01*
X145136820Y-72762951D01*
X144947414Y-72666444D01*
X144947413Y-72666443D01*
X144947412Y-72666443D01*
X144745243Y-72600754D01*
X144745241Y-72600753D01*
X144745240Y-72600753D01*
X144583957Y-72575208D01*
X144535287Y-72567500D01*
X144072713Y-72567500D01*
X144024042Y-72575208D01*
X143862760Y-72600753D01*
X143660585Y-72666444D01*
X143471179Y-72762951D01*
X143299213Y-72887890D01*
X143148890Y-73038213D01*
X143023951Y-73210179D01*
X142927444Y-73399585D01*
X142861753Y-73601760D01*
X142828500Y-73811713D01*
X142828500Y-74024286D01*
X142859657Y-74221007D01*
X142861754Y-74234243D01*
X142924076Y-74426050D01*
X142927444Y-74436414D01*
X143023951Y-74625820D01*
X143148890Y-74797786D01*
X143299209Y-74948105D01*
X143299214Y-74948109D01*
X143463793Y-75067682D01*
X143506459Y-75123011D01*
X143512438Y-75192625D01*
X143479833Y-75254420D01*
X143463793Y-75268318D01*
X143299214Y-75387890D01*
X143299209Y-75387894D01*
X143148890Y-75538213D01*
X143023951Y-75710179D01*
X142927444Y-75899585D01*
X142861753Y-76101760D01*
X142828500Y-76311713D01*
X142828500Y-76524286D01*
X142859292Y-76718702D01*
X142861754Y-76734243D01*
X142926856Y-76934606D01*
X142927444Y-76936414D01*
X143023951Y-77125820D01*
X143148890Y-77297786D01*
X143287705Y-77436601D01*
X143321190Y-77497924D01*
X143316206Y-77567616D01*
X143274334Y-77623549D01*
X143265121Y-77629821D01*
X143110342Y-77725289D01*
X142986289Y-77849342D01*
X142894187Y-77998663D01*
X142894185Y-77998668D01*
X142892306Y-78004339D01*
X142839001Y-78165203D01*
X142839001Y-78165204D01*
X142839000Y-78165204D01*
X142828500Y-78267983D01*
X142828500Y-79568001D01*
X142828501Y-79568018D01*
X142839000Y-79670796D01*
X142839001Y-79670799D01*
X142894185Y-79837331D01*
X142894187Y-79837336D01*
X142929069Y-79893888D01*
X142986288Y-79986656D01*
X143110344Y-80110712D01*
X143259666Y-80202814D01*
X143426203Y-80257999D01*
X143528991Y-80268500D01*
X145079008Y-80268499D01*
X145181797Y-80257999D01*
X145348334Y-80202814D01*
X145497656Y-80110712D01*
X145621712Y-79986656D01*
X145713814Y-79837334D01*
X145768999Y-79670797D01*
X145779500Y-79568009D01*
X145779499Y-78267992D01*
X145777509Y-78248515D01*
X145768999Y-78165203D01*
X145768998Y-78165200D01*
X145741087Y-78080971D01*
X145713814Y-77998666D01*
X145621712Y-77849344D01*
X145497656Y-77725288D01*
X145348334Y-77633186D01*
X145348333Y-77633185D01*
X145342878Y-77629821D01*
X145296154Y-77577873D01*
X145284931Y-77508910D01*
X145312775Y-77444828D01*
X145320272Y-77436623D01*
X145459104Y-77297792D01*
X145584051Y-77125816D01*
X145586955Y-77120117D01*
X145604235Y-77086205D01*
X145652209Y-77035409D01*
X145714719Y-77018500D01*
X146931194Y-77018500D01*
X146945616Y-77019362D01*
X146945776Y-77019360D01*
X146945780Y-77019361D01*
X147019671Y-77018520D01*
X147020750Y-77018508D01*
X147022160Y-77018500D01*
X147097235Y-77018500D01*
X147111629Y-77017473D01*
X147874092Y-77008797D01*
X147941348Y-77027718D01*
X147987701Y-77079997D01*
X147999500Y-77132789D01*
X147999500Y-81275500D01*
X147979815Y-81342539D01*
X147927011Y-81388294D01*
X147875500Y-81399500D01*
X142420943Y-81399500D01*
X142268214Y-81440423D01*
X142244363Y-81454194D01*
X142220511Y-81467965D01*
X142220510Y-81467965D01*
X142131290Y-81519475D01*
X142131282Y-81519481D01*
X141269481Y-82381282D01*
X141269477Y-82381287D01*
X141229394Y-82450715D01*
X141229394Y-82450716D01*
X141190423Y-82518214D01*
X141190423Y-82518215D01*
X141149499Y-82670943D01*
X141149499Y-82670945D01*
X141149499Y-82839046D01*
X141149500Y-82839059D01*
X141149500Y-84949902D01*
X141129815Y-85016941D01*
X141113181Y-85037583D01*
X140371619Y-85779144D01*
X140310296Y-85812629D01*
X140240604Y-85807645D01*
X140197435Y-85777129D01*
X140195876Y-85778689D01*
X140031140Y-85613953D01*
X139845377Y-85483881D01*
X139801752Y-85429304D01*
X139792500Y-85382306D01*
X139792500Y-85264945D01*
X139792500Y-85264943D01*
X139751577Y-85112216D01*
X139708488Y-85037583D01*
X139672524Y-84975290D01*
X139672521Y-84975286D01*
X139672520Y-84975284D01*
X139560716Y-84863480D01*
X139560715Y-84863479D01*
X139556385Y-84859149D01*
X139556374Y-84859139D01*
X139171590Y-84474355D01*
X139171588Y-84474352D01*
X139052717Y-84355481D01*
X139052716Y-84355480D01*
X138965904Y-84305360D01*
X138965904Y-84305359D01*
X138965900Y-84305358D01*
X138915785Y-84276423D01*
X138763057Y-84235499D01*
X138604943Y-84235499D01*
X138597347Y-84235499D01*
X138597331Y-84235500D01*
X134540940Y-84235500D01*
X134500019Y-84246464D01*
X134500019Y-84246465D01*
X134490764Y-84248945D01*
X134388214Y-84276423D01*
X134388209Y-84276426D01*
X134251290Y-84355475D01*
X134251282Y-84355481D01*
X134189718Y-84417046D01*
X134139480Y-84467284D01*
X134139478Y-84467286D01*
X133494549Y-85112216D01*
X132883584Y-85723181D01*
X132822261Y-85756666D01*
X132795903Y-85759500D01*
X132254942Y-85759500D01*
X132102213Y-85800423D01*
X132060480Y-85824519D01*
X132060479Y-85824519D01*
X131965287Y-85879477D01*
X131965282Y-85879481D01*
X131599481Y-86245282D01*
X131599479Y-86245285D01*
X131549361Y-86332094D01*
X131549359Y-86332096D01*
X131520425Y-86382209D01*
X131520424Y-86382210D01*
X131514914Y-86402775D01*
X131479499Y-86534943D01*
X131479499Y-86534945D01*
X131479499Y-86703046D01*
X131479500Y-86703059D01*
X131479500Y-88496457D01*
X131519057Y-88644086D01*
X131520424Y-88649187D01*
X131522165Y-88652202D01*
X131534548Y-88682099D01*
X131583261Y-88863896D01*
X131583263Y-88863900D01*
X131679431Y-89070132D01*
X131679432Y-89070134D01*
X131809954Y-89256541D01*
X131970858Y-89417445D01*
X131995578Y-89434754D01*
X132157266Y-89547968D01*
X132363504Y-89644139D01*
X132583308Y-89703035D01*
X132745230Y-89717201D01*
X132809998Y-89722868D01*
X132810000Y-89722868D01*
X132810002Y-89722868D01*
X132866673Y-89717909D01*
X133036692Y-89703035D01*
X133256496Y-89644139D01*
X133462734Y-89547968D01*
X133649139Y-89417447D01*
X133810047Y-89256539D01*
X133940568Y-89070134D01*
X134036739Y-88863896D01*
X134095635Y-88644092D01*
X134115468Y-88417400D01*
X134110558Y-88361284D01*
X134095635Y-88190713D01*
X134095635Y-88190708D01*
X134036739Y-87970904D01*
X133940568Y-87764666D01*
X133810047Y-87578261D01*
X133810045Y-87578258D01*
X133649141Y-87417354D01*
X133462734Y-87286832D01*
X133462732Y-87286831D01*
X133256497Y-87190661D01*
X133256484Y-87190657D01*
X133233295Y-87184443D01*
X133173635Y-87148077D01*
X133143107Y-87085229D01*
X133151404Y-87015854D01*
X133195891Y-86961977D01*
X133233292Y-86944896D01*
X133327785Y-86919577D01*
X133391716Y-86882666D01*
X133464716Y-86840520D01*
X133576520Y-86728716D01*
X133576520Y-86728714D01*
X133586724Y-86718511D01*
X133586727Y-86718506D01*
X134168588Y-86136646D01*
X134229910Y-86103162D01*
X134299602Y-86108146D01*
X134355535Y-86150018D01*
X134379952Y-86215482D01*
X134376043Y-86256421D01*
X134339366Y-86393302D01*
X134339364Y-86393313D01*
X134319532Y-86619998D01*
X134319532Y-86620001D01*
X134339364Y-86846686D01*
X134339366Y-86846697D01*
X134398258Y-87066488D01*
X134398261Y-87066497D01*
X134494431Y-87272732D01*
X134494432Y-87272734D01*
X134624954Y-87459141D01*
X134785858Y-87620045D01*
X134785861Y-87620047D01*
X134971624Y-87750118D01*
X135015248Y-87804693D01*
X135024500Y-87851692D01*
X135024500Y-92674903D01*
X135004815Y-92741942D01*
X134988181Y-92762584D01*
X133137584Y-94613181D01*
X133076261Y-94646666D01*
X133049903Y-94649500D01*
X125894499Y-94649500D01*
X125827460Y-94629815D01*
X125781705Y-94577011D01*
X125770499Y-94525500D01*
X125770499Y-94352129D01*
X125770498Y-94352123D01*
X125770098Y-94348404D01*
X125764091Y-94292517D01*
X125762810Y-94289083D01*
X125713797Y-94157671D01*
X125713793Y-94157664D01*
X125627547Y-94042455D01*
X125627544Y-94042452D01*
X125512335Y-93956206D01*
X125512328Y-93956202D01*
X125377482Y-93905908D01*
X125377483Y-93905908D01*
X125317883Y-93899501D01*
X125317881Y-93899500D01*
X125317873Y-93899500D01*
X125317864Y-93899500D01*
X123522129Y-93899500D01*
X123522123Y-93899501D01*
X123462516Y-93905908D01*
X123327671Y-93956202D01*
X123327664Y-93956206D01*
X123212455Y-94042452D01*
X123212452Y-94042455D01*
X123126206Y-94157664D01*
X123126203Y-94157669D01*
X123077189Y-94289083D01*
X123035317Y-94345016D01*
X122969853Y-94369433D01*
X122901580Y-94354581D01*
X122873326Y-94333430D01*
X122751402Y-94211506D01*
X122751395Y-94211501D01*
X122557834Y-94075967D01*
X122557830Y-94075965D01*
X122540843Y-94068044D01*
X122343663Y-93976097D01*
X122343659Y-93976096D01*
X122343655Y-93976094D01*
X122115413Y-93914938D01*
X122115403Y-93914936D01*
X121880001Y-93894341D01*
X121879999Y-93894341D01*
X121644596Y-93914936D01*
X121644586Y-93914938D01*
X121416344Y-93976094D01*
X121416335Y-93976098D01*
X121202171Y-94075964D01*
X121202169Y-94075965D01*
X121008597Y-94211505D01*
X120841508Y-94378594D01*
X120711269Y-94564595D01*
X120656692Y-94608219D01*
X120587193Y-94615412D01*
X120524839Y-94583890D01*
X120508119Y-94564594D01*
X120378113Y-94378926D01*
X120378108Y-94378920D01*
X120211082Y-94211894D01*
X120017578Y-94076399D01*
X119803492Y-93976570D01*
X119803486Y-93976567D01*
X119590000Y-93919364D01*
X119590000Y-94816988D01*
X119532993Y-94784075D01*
X119405826Y-94750000D01*
X119274174Y-94750000D01*
X119147007Y-94784075D01*
X119090000Y-94816988D01*
X119090000Y-93919364D01*
X119089999Y-93919364D01*
X118876513Y-93976567D01*
X118876507Y-93976570D01*
X118662422Y-94076399D01*
X118662420Y-94076400D01*
X118468926Y-94211886D01*
X118468920Y-94211891D01*
X118301891Y-94378920D01*
X118301890Y-94378922D01*
X118171880Y-94564595D01*
X118117303Y-94608219D01*
X118047804Y-94615412D01*
X117985450Y-94583890D01*
X117968730Y-94564594D01*
X117838494Y-94378597D01*
X117671404Y-94211508D01*
X117671402Y-94211506D01*
X117671401Y-94211505D01*
X117660656Y-94203981D01*
X117573375Y-94142865D01*
X117529751Y-94088288D01*
X117520500Y-94041291D01*
X117520500Y-92816545D01*
X117540185Y-92749506D01*
X117560254Y-92725559D01*
X118199664Y-92133514D01*
X118262228Y-92102410D01*
X118283910Y-92100500D01*
X122913331Y-92100500D01*
X122913347Y-92100501D01*
X122920943Y-92100501D01*
X123079054Y-92100501D01*
X123079057Y-92100501D01*
X123231785Y-92059577D01*
X123299601Y-92020423D01*
X123301235Y-92019480D01*
X123368709Y-91980524D01*
X123368708Y-91980524D01*
X123368716Y-91980520D01*
X123480520Y-91868716D01*
X123480521Y-91868714D01*
X123980520Y-91368716D01*
X124059577Y-91231784D01*
X124100501Y-91079057D01*
X124100501Y-90920942D01*
X124100501Y-90913347D01*
X124100500Y-90913329D01*
X124100500Y-89465740D01*
X124120185Y-89398701D01*
X124172989Y-89352946D01*
X124242147Y-89343002D01*
X124305703Y-89372027D01*
X124312181Y-89378059D01*
X124351179Y-89417057D01*
X124537517Y-89547534D01*
X124743673Y-89643665D01*
X124743682Y-89643669D01*
X124939999Y-89696272D01*
X124940000Y-89696271D01*
X124940000Y-88733086D01*
X124944394Y-88737480D01*
X125035606Y-88790141D01*
X125137339Y-88817400D01*
X125242661Y-88817400D01*
X125344394Y-88790141D01*
X125435606Y-88737480D01*
X125440000Y-88733086D01*
X125440000Y-89696272D01*
X125636317Y-89643669D01*
X125636326Y-89643665D01*
X125842482Y-89547534D01*
X126028820Y-89417057D01*
X126189657Y-89256220D01*
X126320134Y-89069882D01*
X126416265Y-88863726D01*
X126416269Y-88863717D01*
X126468872Y-88667400D01*
X125505686Y-88667400D01*
X125510080Y-88663006D01*
X125562741Y-88571794D01*
X125590000Y-88470061D01*
X125590000Y-88364739D01*
X125562741Y-88263006D01*
X125510080Y-88171794D01*
X125505686Y-88167400D01*
X126468872Y-88167400D01*
X126468872Y-88167399D01*
X126416269Y-87971082D01*
X126416265Y-87971073D01*
X126320134Y-87764917D01*
X126189657Y-87578579D01*
X126028820Y-87417742D01*
X125842482Y-87287265D01*
X125636328Y-87191134D01*
X125440000Y-87138527D01*
X125440000Y-88101714D01*
X125435606Y-88097320D01*
X125344394Y-88044659D01*
X125242661Y-88017400D01*
X125137339Y-88017400D01*
X125035606Y-88044659D01*
X124944394Y-88097320D01*
X124940000Y-88101714D01*
X124940000Y-87138527D01*
X124743671Y-87191134D01*
X124537517Y-87287265D01*
X124351179Y-87417742D01*
X124312181Y-87456741D01*
X124250858Y-87490226D01*
X124181166Y-87485242D01*
X124125233Y-87443370D01*
X124100816Y-87377906D01*
X124100500Y-87369060D01*
X124100500Y-81031370D01*
X124100964Y-81020653D01*
X124101933Y-81009485D01*
X124105086Y-80973144D01*
X124102399Y-80957967D01*
X124100500Y-80936348D01*
X124100500Y-80920944D01*
X124100499Y-80920940D01*
X124088158Y-80874883D01*
X124085831Y-80864405D01*
X124085480Y-80862425D01*
X124077518Y-80817451D01*
X124077075Y-80816504D01*
X124076942Y-80815629D01*
X124075068Y-80809699D01*
X124075992Y-80809406D01*
X124066533Y-80747435D01*
X124095005Y-80683630D01*
X124153452Y-80645347D01*
X124223320Y-80644740D01*
X124277100Y-80676335D01*
X125240882Y-81640117D01*
X125274367Y-81701440D01*
X125272976Y-81759889D01*
X125255795Y-81824011D01*
X125255792Y-81824029D01*
X125236723Y-82041997D01*
X125236723Y-82042002D01*
X125246258Y-82150988D01*
X125253326Y-82231784D01*
X125255793Y-82259975D01*
X125255793Y-82259979D01*
X125312422Y-82471322D01*
X125312424Y-82471326D01*
X125312425Y-82471330D01*
X125353573Y-82559573D01*
X125404897Y-82669638D01*
X125404898Y-82669639D01*
X125530402Y-82848877D01*
X125685123Y-83003598D01*
X125864361Y-83129102D01*
X126062670Y-83221575D01*
X126274023Y-83278207D01*
X126456926Y-83294208D01*
X126491998Y-83297277D01*
X126492000Y-83297277D01*
X126492002Y-83297277D01*
X126520254Y-83294805D01*
X126709977Y-83278207D01*
X126921330Y-83221575D01*
X127119639Y-83129102D01*
X127298877Y-83003598D01*
X127453598Y-82848877D01*
X127561081Y-82695374D01*
X127615657Y-82651751D01*
X127662655Y-82642500D01*
X129811426Y-82642500D01*
X129878465Y-82662185D01*
X129923807Y-82714094D01*
X129933431Y-82734732D01*
X129933432Y-82734734D01*
X130063954Y-82921141D01*
X130224858Y-83082045D01*
X130224861Y-83082047D01*
X130411266Y-83212568D01*
X130426975Y-83219893D01*
X130479414Y-83266064D01*
X130498567Y-83333257D01*
X130478352Y-83400138D01*
X130426979Y-83444656D01*
X130411514Y-83451867D01*
X130411512Y-83451868D01*
X130338526Y-83502973D01*
X130338526Y-83502974D01*
X131017553Y-84182000D01*
X131011339Y-84182000D01*
X130909606Y-84209259D01*
X130818394Y-84261920D01*
X130743920Y-84336394D01*
X130691259Y-84427606D01*
X130664000Y-84529339D01*
X130664000Y-84535552D01*
X129984974Y-83856526D01*
X129984973Y-83856526D01*
X129933868Y-83929512D01*
X129933866Y-83929516D01*
X129837734Y-84135673D01*
X129837730Y-84135682D01*
X129778860Y-84355389D01*
X129778858Y-84355400D01*
X129759034Y-84581997D01*
X129759034Y-84582002D01*
X129778858Y-84808599D01*
X129778860Y-84808610D01*
X129837730Y-85028317D01*
X129837735Y-85028331D01*
X129933863Y-85234478D01*
X129984974Y-85307472D01*
X130664000Y-84628446D01*
X130664000Y-84634661D01*
X130691259Y-84736394D01*
X130743920Y-84827606D01*
X130818394Y-84902080D01*
X130909606Y-84954741D01*
X131011339Y-84982000D01*
X131017553Y-84982000D01*
X130338526Y-85661025D01*
X130411513Y-85712132D01*
X130411521Y-85712136D01*
X130617668Y-85808264D01*
X130617682Y-85808269D01*
X130837389Y-85867139D01*
X130837400Y-85867141D01*
X131063998Y-85886966D01*
X131064002Y-85886966D01*
X131290599Y-85867141D01*
X131290610Y-85867139D01*
X131510317Y-85808269D01*
X131510331Y-85808264D01*
X131716478Y-85712136D01*
X131789471Y-85661024D01*
X131110447Y-84982000D01*
X131116661Y-84982000D01*
X131218394Y-84954741D01*
X131309606Y-84902080D01*
X131384080Y-84827606D01*
X131436741Y-84736394D01*
X131464000Y-84634661D01*
X131464000Y-84628447D01*
X132143024Y-85307471D01*
X132194136Y-85234478D01*
X132290264Y-85028331D01*
X132290269Y-85028317D01*
X132349139Y-84808610D01*
X132349141Y-84808599D01*
X132368966Y-84582002D01*
X132368966Y-84581997D01*
X132349141Y-84355400D01*
X132349139Y-84355389D01*
X132290269Y-84135682D01*
X132290264Y-84135668D01*
X132194136Y-83929521D01*
X132194132Y-83929513D01*
X132143025Y-83856526D01*
X131464000Y-84535551D01*
X131464000Y-84529339D01*
X131436741Y-84427606D01*
X131384080Y-84336394D01*
X131309606Y-84261920D01*
X131218394Y-84209259D01*
X131116661Y-84182000D01*
X131110445Y-84182000D01*
X131789472Y-83502974D01*
X131716480Y-83451864D01*
X131701024Y-83444657D01*
X131648585Y-83398484D01*
X131629433Y-83331290D01*
X131649649Y-83264409D01*
X131701023Y-83219893D01*
X131716734Y-83212568D01*
X131903139Y-83082047D01*
X132064047Y-82921139D01*
X132194568Y-82734734D01*
X132290739Y-82528496D01*
X132349635Y-82308692D01*
X132369468Y-82082000D01*
X132369210Y-82079056D01*
X132349635Y-81855313D01*
X132349635Y-81855308D01*
X132290739Y-81635504D01*
X132194568Y-81429266D01*
X132064047Y-81242861D01*
X132064045Y-81242858D01*
X131903141Y-81081954D01*
X131716734Y-80951432D01*
X131716732Y-80951431D01*
X131510497Y-80855261D01*
X131510488Y-80855258D01*
X131290697Y-80796366D01*
X131290693Y-80796365D01*
X131290692Y-80796365D01*
X131290691Y-80796364D01*
X131290686Y-80796364D01*
X131064002Y-80776532D01*
X131063998Y-80776532D01*
X130837313Y-80796364D01*
X130837302Y-80796366D01*
X130617511Y-80855258D01*
X130617502Y-80855261D01*
X130411267Y-80951431D01*
X130411265Y-80951432D01*
X130224858Y-81081954D01*
X130063954Y-81242858D01*
X129961890Y-81388623D01*
X129907313Y-81432248D01*
X129860315Y-81441500D01*
X127662655Y-81441500D01*
X127595616Y-81421815D01*
X127561080Y-81388623D01*
X127453599Y-81235124D01*
X127395503Y-81177028D01*
X127298877Y-81080402D01*
X127130720Y-80962657D01*
X127119638Y-80954897D01*
X126988378Y-80893690D01*
X126921330Y-80862425D01*
X126921326Y-80862424D01*
X126921322Y-80862422D01*
X126709977Y-80805793D01*
X126492002Y-80786723D01*
X126491998Y-80786723D01*
X126274029Y-80805792D01*
X126274011Y-80805795D01*
X126209889Y-80822976D01*
X126140039Y-80821312D01*
X126090117Y-80790882D01*
X124614219Y-79314984D01*
X124580734Y-79253661D01*
X124577900Y-79227303D01*
X124577900Y-76857543D01*
X124577899Y-76857539D01*
X124570290Y-76829141D01*
X124561540Y-76796484D01*
X124536977Y-76704815D01*
X124508039Y-76654695D01*
X124457920Y-76567884D01*
X124346116Y-76456080D01*
X124346115Y-76456079D01*
X124341785Y-76451749D01*
X124341774Y-76451739D01*
X122077390Y-74187355D01*
X122077388Y-74187352D01*
X122051824Y-74161788D01*
X122021574Y-74112424D01*
X122001222Y-74049786D01*
X122001220Y-74049780D01*
X121945144Y-73939726D01*
X121908287Y-73867390D01*
X121867836Y-73811713D01*
X121787971Y-73701786D01*
X121643213Y-73557028D01*
X121477614Y-73436715D01*
X121471006Y-73433348D01*
X121384917Y-73389483D01*
X121334123Y-73341511D01*
X121317328Y-73273690D01*
X121339865Y-73207555D01*
X121384917Y-73168516D01*
X121477610Y-73121287D01*
X121477611Y-73121285D01*
X121479776Y-73120183D01*
X121548445Y-73107287D01*
X121613186Y-73133563D01*
X121623752Y-73142987D01*
X125240882Y-76760117D01*
X125274367Y-76821440D01*
X125272976Y-76879889D01*
X125255795Y-76944011D01*
X125255792Y-76944029D01*
X125236723Y-77161997D01*
X125236723Y-77162002D01*
X125255793Y-77379975D01*
X125255793Y-77379979D01*
X125312422Y-77591322D01*
X125312424Y-77591326D01*
X125312425Y-77591330D01*
X125327449Y-77623549D01*
X125404897Y-77789638D01*
X125404898Y-77789639D01*
X125530402Y-77968877D01*
X125685123Y-78123598D01*
X125864361Y-78249102D01*
X126062670Y-78341575D01*
X126274023Y-78398207D01*
X126456926Y-78414208D01*
X126491998Y-78417277D01*
X126492000Y-78417277D01*
X126492002Y-78417277D01*
X126520254Y-78414805D01*
X126709977Y-78398207D01*
X126921330Y-78341575D01*
X127119639Y-78249102D01*
X127298877Y-78123598D01*
X127453598Y-77968877D01*
X127561081Y-77815374D01*
X127615657Y-77771751D01*
X127662655Y-77762500D01*
X129804667Y-77762500D01*
X129871706Y-77782185D01*
X129906242Y-77815377D01*
X129908031Y-77817932D01*
X129908032Y-77817934D01*
X129973534Y-77911482D01*
X130038554Y-78004341D01*
X130199458Y-78165245D01*
X130246293Y-78198039D01*
X130385866Y-78295768D01*
X130592104Y-78391939D01*
X130592109Y-78391940D01*
X130592111Y-78391941D01*
X130645015Y-78406116D01*
X130811908Y-78450835D01*
X130973830Y-78465001D01*
X131038598Y-78470668D01*
X131038600Y-78470668D01*
X131038602Y-78470668D01*
X131095273Y-78465709D01*
X131265292Y-78450835D01*
X131485096Y-78391939D01*
X131691334Y-78295768D01*
X131877739Y-78165247D01*
X132038647Y-78004339D01*
X132169168Y-77817934D01*
X132265339Y-77611696D01*
X132324235Y-77391892D01*
X132342306Y-77185335D01*
X132344068Y-77165201D01*
X132344068Y-77165198D01*
X132331155Y-77017601D01*
X132324235Y-76938508D01*
X132265339Y-76718704D01*
X132169168Y-76512466D01*
X132038647Y-76326061D01*
X132038645Y-76326058D01*
X131877741Y-76165154D01*
X131691334Y-76034632D01*
X131691330Y-76034630D01*
X131675622Y-76027305D01*
X131623183Y-75981131D01*
X131604033Y-75913937D01*
X131624250Y-75847057D01*
X131675628Y-75802540D01*
X131691081Y-75795334D01*
X131764071Y-75744224D01*
X131085047Y-75065200D01*
X131091261Y-75065200D01*
X131192994Y-75037941D01*
X131284206Y-74985280D01*
X131358680Y-74910806D01*
X131411341Y-74819594D01*
X131438600Y-74717861D01*
X131438600Y-74711647D01*
X132117624Y-75390671D01*
X132168736Y-75317678D01*
X132264864Y-75111531D01*
X132264869Y-75111517D01*
X132323739Y-74891810D01*
X132323741Y-74891799D01*
X132343566Y-74665202D01*
X132343566Y-74665197D01*
X132323741Y-74438600D01*
X132323739Y-74438589D01*
X132264869Y-74218882D01*
X132264864Y-74218868D01*
X132168736Y-74012721D01*
X132168732Y-74012713D01*
X132117625Y-73939726D01*
X131438600Y-74618751D01*
X131438600Y-74612539D01*
X131411341Y-74510806D01*
X131358680Y-74419594D01*
X131284206Y-74345120D01*
X131192994Y-74292459D01*
X131091261Y-74265200D01*
X131085045Y-74265200D01*
X131764072Y-73586174D01*
X131691078Y-73535063D01*
X131484931Y-73438935D01*
X131484917Y-73438930D01*
X131265210Y-73380060D01*
X131265199Y-73380058D01*
X131038602Y-73360234D01*
X131038598Y-73360234D01*
X130812000Y-73380058D01*
X130811989Y-73380060D01*
X130592282Y-73438930D01*
X130592273Y-73438934D01*
X130386116Y-73535066D01*
X130386112Y-73535068D01*
X130313126Y-73586173D01*
X130313126Y-73586174D01*
X130992153Y-74265200D01*
X130985939Y-74265200D01*
X130884206Y-74292459D01*
X130792994Y-74345120D01*
X130718520Y-74419594D01*
X130665859Y-74510806D01*
X130638600Y-74612539D01*
X130638600Y-74618752D01*
X129959574Y-73939726D01*
X129959573Y-73939726D01*
X129908468Y-74012712D01*
X129908466Y-74012716D01*
X129812334Y-74218873D01*
X129812330Y-74218882D01*
X129753460Y-74438589D01*
X129753458Y-74438600D01*
X129733634Y-74665197D01*
X129733634Y-74665202D01*
X129753458Y-74891799D01*
X129753460Y-74891810D01*
X129812330Y-75111517D01*
X129812335Y-75111531D01*
X129908463Y-75317678D01*
X129959574Y-75390672D01*
X130638600Y-74711646D01*
X130638600Y-74717861D01*
X130665859Y-74819594D01*
X130718520Y-74910806D01*
X130792994Y-74985280D01*
X130884206Y-75037941D01*
X130985939Y-75065200D01*
X130992153Y-75065200D01*
X130313126Y-75744225D01*
X130386113Y-75795332D01*
X130386115Y-75795333D01*
X130401573Y-75802541D01*
X130454013Y-75848713D01*
X130473166Y-75915906D01*
X130452951Y-75982787D01*
X130401579Y-76027304D01*
X130385870Y-76034629D01*
X130385865Y-76034632D01*
X130199458Y-76165154D01*
X130038554Y-76326058D01*
X129910723Y-76508623D01*
X129856147Y-76552248D01*
X129809148Y-76561500D01*
X127662655Y-76561500D01*
X127595616Y-76541815D01*
X127561080Y-76508623D01*
X127453599Y-76355124D01*
X127378028Y-76279553D01*
X127298877Y-76200402D01*
X127151835Y-76097442D01*
X127119638Y-76074897D01*
X127015028Y-76026117D01*
X126921330Y-75982425D01*
X126921326Y-75982424D01*
X126921322Y-75982422D01*
X126709977Y-75925793D01*
X126492002Y-75906723D01*
X126491998Y-75906723D01*
X126274029Y-75925792D01*
X126274011Y-75925795D01*
X126209889Y-75942976D01*
X126140039Y-75941312D01*
X126090117Y-75910882D01*
X122126987Y-71947752D01*
X122093502Y-71886429D01*
X122092195Y-71879469D01*
X122088271Y-71854697D01*
X122070237Y-71740831D01*
X122064477Y-71704465D01*
X122001218Y-71509776D01*
X121967503Y-71443607D01*
X121908287Y-71327390D01*
X121886176Y-71296957D01*
X121787971Y-71161786D01*
X121643213Y-71017028D01*
X121477614Y-70896715D01*
X121471006Y-70893348D01*
X121384917Y-70849483D01*
X121334123Y-70801511D01*
X121317328Y-70733690D01*
X121339865Y-70667555D01*
X121384917Y-70628516D01*
X121477610Y-70581287D01*
X121498770Y-70565913D01*
X121643213Y-70460971D01*
X121643215Y-70460968D01*
X121643219Y-70460966D01*
X121787966Y-70316219D01*
X121787968Y-70316215D01*
X121787971Y-70316213D01*
X121840732Y-70243590D01*
X121908287Y-70150610D01*
X122001220Y-69968219D01*
X122064477Y-69773534D01*
X122096500Y-69571352D01*
X122096500Y-69366648D01*
X122064477Y-69164466D01*
X122001220Y-68969781D01*
X122001218Y-68969778D01*
X122001218Y-68969776D01*
X121961300Y-68891433D01*
X121908287Y-68787390D01*
X121886176Y-68756957D01*
X121787971Y-68621786D01*
X121643213Y-68477028D01*
X121477614Y-68356715D01*
X121417330Y-68325999D01*
X121384917Y-68309483D01*
X121334123Y-68261511D01*
X121317328Y-68193690D01*
X121339865Y-68127555D01*
X121384917Y-68088516D01*
X121477610Y-68041287D01*
X121526289Y-68005920D01*
X121643213Y-67920971D01*
X121643215Y-67920968D01*
X121643219Y-67920966D01*
X121787966Y-67776219D01*
X121787968Y-67776215D01*
X121787971Y-67776213D01*
X121862584Y-67673515D01*
X121908287Y-67610610D01*
X122001220Y-67428219D01*
X122064477Y-67233534D01*
X122096500Y-67031352D01*
X122096500Y-66826648D01*
X122064477Y-66624466D01*
X122057473Y-66602911D01*
X122027447Y-66510500D01*
X122001220Y-66429781D01*
X122001218Y-66429778D01*
X122001218Y-66429776D01*
X121967503Y-66363607D01*
X121908287Y-66247390D01*
X121863818Y-66186183D01*
X121787971Y-66081786D01*
X121643213Y-65937028D01*
X121477613Y-65816715D01*
X121477612Y-65816714D01*
X121477610Y-65816713D01*
X121408287Y-65781391D01*
X121295223Y-65723781D01*
X121100534Y-65660522D01*
X120925995Y-65632878D01*
X120898352Y-65628500D01*
X119893648Y-65628500D01*
X119869329Y-65632351D01*
X119691465Y-65660522D01*
X119496776Y-65723781D01*
X119314386Y-65816715D01*
X119148786Y-65937028D01*
X119004028Y-66081786D01*
X118883715Y-66247386D01*
X118790781Y-66429776D01*
X118727522Y-66624465D01*
X118695500Y-66826648D01*
X118695500Y-67031351D01*
X118727522Y-67233534D01*
X118790781Y-67428223D01*
X118883715Y-67610613D01*
X119004028Y-67776213D01*
X119148786Y-67920971D01*
X119265711Y-68005920D01*
X119314390Y-68041287D01*
X119391142Y-68080394D01*
X119407080Y-68088515D01*
X119457876Y-68136490D01*
X119474671Y-68204311D01*
X119452134Y-68270446D01*
X119407080Y-68309485D01*
X119314386Y-68356715D01*
X119148786Y-68477028D01*
X119004028Y-68621786D01*
X118883715Y-68787386D01*
X118790781Y-68969776D01*
X118727522Y-69164465D01*
X118695500Y-69366648D01*
X118695500Y-69571351D01*
X118727522Y-69773534D01*
X118790781Y-69968223D01*
X118836476Y-70057903D01*
X118881152Y-70145584D01*
X118883715Y-70150613D01*
X119004028Y-70316213D01*
X119148786Y-70460971D01*
X119303749Y-70573556D01*
X119314390Y-70581287D01*
X119397198Y-70623480D01*
X119407080Y-70628515D01*
X119457876Y-70676490D01*
X119474671Y-70744311D01*
X119452134Y-70810446D01*
X119407080Y-70849485D01*
X119314386Y-70896715D01*
X119148786Y-71017028D01*
X119004028Y-71161786D01*
X118883715Y-71327386D01*
X118790781Y-71509776D01*
X118727522Y-71704465D01*
X118695500Y-71906648D01*
X118695500Y-72111351D01*
X118727522Y-72313534D01*
X118790781Y-72508223D01*
X118854691Y-72633653D01*
X118883600Y-72690389D01*
X118883715Y-72690613D01*
X119004028Y-72856213D01*
X119148786Y-73000971D01*
X119295120Y-73107287D01*
X119314390Y-73121287D01*
X119405840Y-73167883D01*
X119407080Y-73168515D01*
X119457876Y-73216490D01*
X119474671Y-73284311D01*
X119452134Y-73350446D01*
X119407080Y-73389485D01*
X119314386Y-73436715D01*
X119148786Y-73557028D01*
X119004028Y-73701786D01*
X118883715Y-73867386D01*
X118790781Y-74049776D01*
X118727522Y-74244465D01*
X118702973Y-74399466D01*
X118673044Y-74462601D01*
X118613732Y-74499532D01*
X118543870Y-74498534D01*
X118485637Y-74459924D01*
X118457523Y-74395960D01*
X118456500Y-74380068D01*
X118456500Y-74082412D01*
X118476185Y-74015373D01*
X118483555Y-74005097D01*
X118485810Y-74002267D01*
X118485816Y-74002262D01*
X118581789Y-73849522D01*
X118641368Y-73679255D01*
X118642832Y-73666261D01*
X118661565Y-73500003D01*
X118661565Y-73499996D01*
X118641369Y-73320750D01*
X118641368Y-73320745D01*
X118624903Y-73273690D01*
X118581789Y-73150478D01*
X118562753Y-73120183D01*
X118527672Y-73064352D01*
X118485816Y-72997738D01*
X118358262Y-72870184D01*
X118333685Y-72854741D01*
X118205523Y-72774211D01*
X118035254Y-72714631D01*
X118035249Y-72714630D01*
X117856004Y-72694435D01*
X117855996Y-72694435D01*
X117676750Y-72714630D01*
X117676745Y-72714631D01*
X117506476Y-72774211D01*
X117353737Y-72870184D01*
X117226184Y-72997737D01*
X117130211Y-73150476D01*
X117070631Y-73320745D01*
X117070630Y-73320750D01*
X117050435Y-73499996D01*
X117050435Y-73500003D01*
X117070630Y-73679249D01*
X117070631Y-73679254D01*
X117130211Y-73849523D01*
X117226185Y-74002263D01*
X117228445Y-74005097D01*
X117229334Y-74007275D01*
X117229889Y-74008158D01*
X117229734Y-74008255D01*
X117254855Y-74069783D01*
X117255500Y-74082412D01*
X117255500Y-77931903D01*
X117235815Y-77998942D01*
X117219181Y-78019584D01*
X116246584Y-78992181D01*
X116185261Y-79025666D01*
X116158903Y-79028500D01*
X114405602Y-79028500D01*
X114338563Y-79008815D01*
X114295117Y-78960795D01*
X114288284Y-78947385D01*
X114167971Y-78781786D01*
X114023213Y-78637028D01*
X113857611Y-78516713D01*
X113764369Y-78469203D01*
X113713574Y-78421229D01*
X113696779Y-78353407D01*
X113719317Y-78287273D01*
X113764371Y-78248234D01*
X113857347Y-78200861D01*
X114022894Y-78080582D01*
X114022895Y-78080582D01*
X114167582Y-77935895D01*
X114167582Y-77935894D01*
X114287859Y-77770349D01*
X114380755Y-77588029D01*
X114443990Y-77393413D01*
X114452609Y-77339000D01*
X113091686Y-77339000D01*
X113096080Y-77334606D01*
X113148741Y-77243394D01*
X113176000Y-77141661D01*
X113176000Y-77036339D01*
X113148741Y-76934606D01*
X113096080Y-76843394D01*
X113091686Y-76839000D01*
X114452609Y-76839000D01*
X114443990Y-76784586D01*
X114380755Y-76589970D01*
X114287859Y-76407650D01*
X114167582Y-76242105D01*
X114167582Y-76242104D01*
X114022895Y-76097417D01*
X113857349Y-75977140D01*
X113764370Y-75929765D01*
X113713574Y-75881790D01*
X113696779Y-75813969D01*
X113719316Y-75747835D01*
X113764370Y-75708795D01*
X113764920Y-75708515D01*
X113857610Y-75661287D01*
X113933817Y-75605920D01*
X114023213Y-75540971D01*
X114023215Y-75540968D01*
X114023219Y-75540966D01*
X114167966Y-75396219D01*
X114167968Y-75396215D01*
X114167971Y-75396213D01*
X114260890Y-75268319D01*
X114288287Y-75230610D01*
X114381220Y-75048219D01*
X114444477Y-74853534D01*
X114476500Y-74651352D01*
X114476500Y-74446648D01*
X114455506Y-74314099D01*
X114444477Y-74244465D01*
X114390627Y-74078734D01*
X114381220Y-74049781D01*
X114381218Y-74049778D01*
X114381218Y-74049776D01*
X114325144Y-73939726D01*
X114288287Y-73867390D01*
X114247836Y-73811713D01*
X114167971Y-73701786D01*
X114023213Y-73557028D01*
X113857614Y-73436715D01*
X113851006Y-73433348D01*
X113764917Y-73389483D01*
X113714123Y-73341511D01*
X113697328Y-73273690D01*
X113719865Y-73207555D01*
X113764917Y-73168516D01*
X113857610Y-73121287D01*
X113878770Y-73105913D01*
X114023213Y-73000971D01*
X114023215Y-73000968D01*
X114023219Y-73000966D01*
X114167966Y-72856219D01*
X114167968Y-72856215D01*
X114167971Y-72856213D01*
X114288284Y-72690614D01*
X114288285Y-72690613D01*
X114288287Y-72690610D01*
X114295117Y-72677204D01*
X114343091Y-72626409D01*
X114405602Y-72609500D01*
X114594331Y-72609500D01*
X114594347Y-72609501D01*
X114601943Y-72609501D01*
X114760054Y-72609501D01*
X114760057Y-72609501D01*
X114912785Y-72568577D01*
X114987396Y-72525500D01*
X115049716Y-72489520D01*
X115161520Y-72377716D01*
X115161520Y-72377714D01*
X115171724Y-72367511D01*
X115171728Y-72367506D01*
X115420506Y-72118728D01*
X115420511Y-72118724D01*
X115430714Y-72108520D01*
X115430716Y-72108520D01*
X115542520Y-71996716D01*
X115621577Y-71859784D01*
X115662500Y-71707057D01*
X115662500Y-66092563D01*
X115682185Y-66025524D01*
X115700156Y-66003563D01*
X116791428Y-64944943D01*
X117007334Y-64735497D01*
X117069159Y-64702947D01*
X117093674Y-64700500D01*
X122909926Y-64700500D01*
X122976965Y-64720185D01*
X122995501Y-64734762D01*
X123667953Y-65376025D01*
X124203433Y-65886669D01*
X124329075Y-66006483D01*
X124364006Y-66066995D01*
X124367500Y-66096221D01*
X124367500Y-70201339D01*
X124347815Y-70268378D01*
X124295011Y-70314133D01*
X124232693Y-70324867D01*
X124206002Y-70322532D01*
X124205998Y-70322532D01*
X123979313Y-70342364D01*
X123979302Y-70342366D01*
X123759511Y-70401258D01*
X123759502Y-70401261D01*
X123553267Y-70497431D01*
X123553265Y-70497432D01*
X123366858Y-70627954D01*
X123205954Y-70788858D01*
X123075432Y-70975265D01*
X123075431Y-70975267D01*
X122979261Y-71181502D01*
X122979258Y-71181511D01*
X122920366Y-71401302D01*
X122920364Y-71401313D01*
X122900532Y-71627998D01*
X122900532Y-71628001D01*
X122920364Y-71854686D01*
X122920366Y-71854697D01*
X122979258Y-72074488D01*
X122979261Y-72074497D01*
X123075431Y-72280732D01*
X123075432Y-72280734D01*
X123205954Y-72467141D01*
X123366858Y-72628045D01*
X123366861Y-72628047D01*
X123553266Y-72758568D01*
X123759504Y-72854739D01*
X123759509Y-72854740D01*
X123759511Y-72854741D01*
X123812415Y-72868916D01*
X123979308Y-72913635D01*
X124141230Y-72927801D01*
X124205998Y-72933468D01*
X124206000Y-72933468D01*
X124206002Y-72933468D01*
X124262673Y-72928509D01*
X124432692Y-72913635D01*
X124652496Y-72854739D01*
X124858734Y-72758568D01*
X125045139Y-72628047D01*
X125206047Y-72467139D01*
X125336568Y-72280734D01*
X125432739Y-72074496D01*
X125462214Y-71964492D01*
X125498579Y-71904832D01*
X125561425Y-71874303D01*
X125630801Y-71882597D01*
X125669670Y-71908905D01*
X125753139Y-71992374D01*
X125753149Y-71992385D01*
X125757479Y-71996715D01*
X125757480Y-71996716D01*
X125869284Y-72108520D01*
X125869286Y-72108521D01*
X125869290Y-72108524D01*
X125924439Y-72140364D01*
X125924444Y-72140366D01*
X126006209Y-72187574D01*
X126006210Y-72187574D01*
X126006215Y-72187577D01*
X126158942Y-72228500D01*
X126158943Y-72228500D01*
X130594308Y-72228500D01*
X130661347Y-72248185D01*
X130695880Y-72281374D01*
X130763337Y-72377713D01*
X130825954Y-72467141D01*
X130986858Y-72628045D01*
X130986861Y-72628047D01*
X131173266Y-72758568D01*
X131379504Y-72854739D01*
X131379509Y-72854740D01*
X131379511Y-72854741D01*
X131432415Y-72868916D01*
X131599308Y-72913635D01*
X131761230Y-72927801D01*
X131825998Y-72933468D01*
X131826000Y-72933468D01*
X131826002Y-72933468D01*
X131882673Y-72928509D01*
X132052692Y-72913635D01*
X132272496Y-72854739D01*
X132478734Y-72758568D01*
X132665139Y-72628047D01*
X132826047Y-72467139D01*
X132956568Y-72280734D01*
X133052739Y-72074496D01*
X133111635Y-71854692D01*
X133131468Y-71628000D01*
X133111635Y-71401308D01*
X133066916Y-71234415D01*
X133052741Y-71181511D01*
X133052738Y-71181502D01*
X132980925Y-71027500D01*
X132956568Y-70975266D01*
X132826047Y-70788861D01*
X132826045Y-70788858D01*
X132665141Y-70627954D01*
X132478734Y-70497432D01*
X132478732Y-70497431D01*
X132272497Y-70401261D01*
X132272488Y-70401258D01*
X132052697Y-70342366D01*
X132052693Y-70342365D01*
X132052692Y-70342365D01*
X132052691Y-70342364D01*
X132052686Y-70342364D01*
X131826002Y-70322532D01*
X131825998Y-70322532D01*
X131599313Y-70342364D01*
X131599302Y-70342366D01*
X131379511Y-70401258D01*
X131379502Y-70401261D01*
X131173267Y-70497431D01*
X131173265Y-70497432D01*
X130986858Y-70627954D01*
X130825954Y-70788858D01*
X130749450Y-70898118D01*
X130695881Y-70974624D01*
X130641307Y-71018248D01*
X130594308Y-71027500D01*
X126538097Y-71027500D01*
X126471058Y-71007815D01*
X126450416Y-70991181D01*
X125604819Y-70145584D01*
X125571334Y-70084261D01*
X125568500Y-70057903D01*
X125568500Y-66510500D01*
X125588185Y-66443461D01*
X125640989Y-66397706D01*
X125692500Y-66386500D01*
X125729248Y-66386500D01*
X131076187Y-66399701D01*
X131143178Y-66419551D01*
X131188802Y-66472468D01*
X131199880Y-66523315D01*
X131201666Y-67096604D01*
X131182191Y-67163704D01*
X131148790Y-67198565D01*
X130966859Y-67325953D01*
X130805954Y-67486858D01*
X130675432Y-67673265D01*
X130675429Y-67673270D01*
X130668104Y-67688979D01*
X130621929Y-67741417D01*
X130554735Y-67760566D01*
X130487855Y-67740347D01*
X130443341Y-67688973D01*
X130436133Y-67673515D01*
X130436132Y-67673513D01*
X130385025Y-67600526D01*
X129706000Y-68279551D01*
X129706000Y-68273339D01*
X129678741Y-68171606D01*
X129626080Y-68080394D01*
X129551606Y-68005920D01*
X129460394Y-67953259D01*
X129358661Y-67926000D01*
X129352445Y-67926000D01*
X130031472Y-67246974D01*
X129958478Y-67195863D01*
X129752331Y-67099735D01*
X129752317Y-67099730D01*
X129532610Y-67040860D01*
X129532599Y-67040858D01*
X129306002Y-67021034D01*
X129305998Y-67021034D01*
X129079400Y-67040858D01*
X129079389Y-67040860D01*
X128859682Y-67099730D01*
X128859673Y-67099734D01*
X128653516Y-67195866D01*
X128653512Y-67195868D01*
X128580526Y-67246973D01*
X128580526Y-67246974D01*
X129259553Y-67926000D01*
X129253339Y-67926000D01*
X129151606Y-67953259D01*
X129060394Y-68005920D01*
X128985920Y-68080394D01*
X128933259Y-68171606D01*
X128906000Y-68273339D01*
X128906000Y-68279552D01*
X128226974Y-67600526D01*
X128226973Y-67600526D01*
X128175868Y-67673512D01*
X128175866Y-67673516D01*
X128079734Y-67879673D01*
X128079730Y-67879682D01*
X128020860Y-68099389D01*
X128020858Y-68099400D01*
X128001034Y-68325997D01*
X128001034Y-68326002D01*
X128020858Y-68552599D01*
X128020860Y-68552610D01*
X128079730Y-68772317D01*
X128079735Y-68772331D01*
X128175863Y-68978478D01*
X128226974Y-69051472D01*
X128906000Y-68372446D01*
X128906000Y-68378661D01*
X128933259Y-68480394D01*
X128985920Y-68571606D01*
X129060394Y-68646080D01*
X129151606Y-68698741D01*
X129253339Y-68726000D01*
X129259553Y-68726000D01*
X128580526Y-69405025D01*
X128653513Y-69456132D01*
X128653521Y-69456136D01*
X128859668Y-69552264D01*
X128859682Y-69552269D01*
X129079389Y-69611139D01*
X129079400Y-69611141D01*
X129305998Y-69630966D01*
X129306002Y-69630966D01*
X129532599Y-69611141D01*
X129532610Y-69611139D01*
X129752317Y-69552269D01*
X129752331Y-69552264D01*
X129958478Y-69456136D01*
X130031471Y-69405024D01*
X129352447Y-68726000D01*
X129358661Y-68726000D01*
X129460394Y-68698741D01*
X129551606Y-68646080D01*
X129626080Y-68571606D01*
X129678741Y-68480394D01*
X129706000Y-68378661D01*
X129706000Y-68372447D01*
X130385024Y-69051471D01*
X130436134Y-68978481D01*
X130443340Y-68963028D01*
X130489511Y-68910587D01*
X130556704Y-68891433D01*
X130623585Y-68911646D01*
X130668105Y-68963022D01*
X130675430Y-68978730D01*
X130675432Y-68978734D01*
X130805954Y-69165141D01*
X130966858Y-69326045D01*
X130966861Y-69326047D01*
X131153266Y-69456568D01*
X131359504Y-69552739D01*
X131579308Y-69611635D01*
X131741230Y-69625801D01*
X131805998Y-69631468D01*
X131806000Y-69631468D01*
X131806002Y-69631468D01*
X131862673Y-69626509D01*
X132032692Y-69611635D01*
X132128932Y-69585847D01*
X132198781Y-69587510D01*
X132248706Y-69617941D01*
X133353139Y-70722374D01*
X133353149Y-70722385D01*
X133357479Y-70726715D01*
X133357480Y-70726716D01*
X133469284Y-70838520D01*
X133469286Y-70838521D01*
X133469290Y-70838524D01*
X133527645Y-70872215D01*
X133527650Y-70872217D01*
X133606209Y-70917574D01*
X133606210Y-70917575D01*
X133606212Y-70917575D01*
X133606215Y-70917577D01*
X133758943Y-70958501D01*
X133758946Y-70958501D01*
X133924653Y-70958501D01*
X133924669Y-70958500D01*
X134573903Y-70958500D01*
X134640942Y-70978185D01*
X134661584Y-70994819D01*
X134983181Y-71316416D01*
X135016666Y-71377739D01*
X135019500Y-71404097D01*
X135019500Y-74758306D01*
X134999815Y-74825345D01*
X134966623Y-74859881D01*
X134780859Y-74989953D01*
X134619954Y-75150858D01*
X134489432Y-75337265D01*
X134489431Y-75337267D01*
X134393261Y-75543502D01*
X134393258Y-75543511D01*
X134334366Y-75763302D01*
X134334364Y-75763313D01*
X134314532Y-75989998D01*
X134314532Y-75990001D01*
X134334364Y-76216686D01*
X134334366Y-76216697D01*
X134393258Y-76436488D01*
X134393261Y-76436497D01*
X134489431Y-76642732D01*
X134489432Y-76642734D01*
X134619954Y-76829141D01*
X134780858Y-76990045D01*
X134780861Y-76990047D01*
X134966624Y-77120118D01*
X135010248Y-77174693D01*
X135019500Y-77221692D01*
X135019500Y-77771808D01*
X134999815Y-77838847D01*
X134966623Y-77873383D01*
X134785858Y-77999954D01*
X134624954Y-78160858D01*
X134494432Y-78347265D01*
X134494431Y-78347267D01*
X134398261Y-78553502D01*
X134398258Y-78553511D01*
X134339366Y-78773302D01*
X134339364Y-78773313D01*
X134319532Y-78999998D01*
X134319532Y-79000001D01*
X134339364Y-79226686D01*
X134339366Y-79226697D01*
X134398258Y-79446488D01*
X134398261Y-79446497D01*
X134494431Y-79652732D01*
X134494432Y-79652734D01*
X134624954Y-79839141D01*
X134785858Y-80000045D01*
X134785861Y-80000047D01*
X134972266Y-80130568D01*
X135178504Y-80226739D01*
X135398308Y-80285635D01*
X135530554Y-80297205D01*
X135624998Y-80305468D01*
X135625000Y-80305468D01*
X135625002Y-80305468D01*
X135693580Y-80299468D01*
X135851692Y-80285635D01*
X136071496Y-80226739D01*
X136277734Y-80130568D01*
X136464139Y-80000047D01*
X136625047Y-79839139D01*
X136755568Y-79652734D01*
X136851739Y-79446496D01*
X136910635Y-79226692D01*
X136930468Y-79000000D01*
X136910635Y-78773308D01*
X136851739Y-78553504D01*
X136755568Y-78347266D01*
X136643025Y-78186537D01*
X136625045Y-78160858D01*
X136464141Y-77999954D01*
X136273377Y-77866381D01*
X136229752Y-77811805D01*
X136220500Y-77764806D01*
X136220500Y-77221692D01*
X136240185Y-77154653D01*
X136273374Y-77120119D01*
X136459139Y-76990047D01*
X136620047Y-76829139D01*
X136750568Y-76642734D01*
X136846739Y-76436496D01*
X136905635Y-76216692D01*
X136925468Y-75990000D01*
X136924805Y-75982426D01*
X136915721Y-75878594D01*
X136905635Y-75763308D01*
X136846739Y-75543504D01*
X136750568Y-75337266D01*
X136636288Y-75174056D01*
X136620045Y-75150858D01*
X136459140Y-74989953D01*
X136273377Y-74859881D01*
X136229752Y-74805304D01*
X136220500Y-74758306D01*
X136220500Y-73425998D01*
X137886532Y-73425998D01*
X137886532Y-73426001D01*
X137906364Y-73652686D01*
X137906366Y-73652697D01*
X137965258Y-73872488D01*
X137965261Y-73872497D01*
X138061431Y-74078732D01*
X138061432Y-74078734D01*
X138191954Y-74265141D01*
X138352858Y-74426045D01*
X138399693Y-74458839D01*
X138539266Y-74556568D01*
X138554975Y-74563893D01*
X138607414Y-74610064D01*
X138626567Y-74677257D01*
X138606352Y-74744138D01*
X138554979Y-74788656D01*
X138539514Y-74795867D01*
X138539512Y-74795868D01*
X138466526Y-74846973D01*
X138466526Y-74846974D01*
X139145553Y-75526000D01*
X139139339Y-75526000D01*
X139037606Y-75553259D01*
X138946394Y-75605920D01*
X138871920Y-75680394D01*
X138819259Y-75771606D01*
X138792000Y-75873339D01*
X138792000Y-75879552D01*
X138112974Y-75200526D01*
X138112973Y-75200526D01*
X138061868Y-75273512D01*
X138061866Y-75273516D01*
X137965734Y-75479673D01*
X137965730Y-75479682D01*
X137906860Y-75699389D01*
X137906858Y-75699400D01*
X137887034Y-75925997D01*
X137887034Y-75926002D01*
X137906858Y-76152599D01*
X137906860Y-76152610D01*
X137965730Y-76372317D01*
X137965735Y-76372331D01*
X138061863Y-76578478D01*
X138112974Y-76651472D01*
X138792000Y-75972446D01*
X138792000Y-75978661D01*
X138819259Y-76080394D01*
X138871920Y-76171606D01*
X138946394Y-76246080D01*
X139037606Y-76298741D01*
X139139339Y-76326000D01*
X139145553Y-76326000D01*
X138466526Y-77005025D01*
X138539513Y-77056132D01*
X138539521Y-77056136D01*
X138745668Y-77152264D01*
X138745682Y-77152269D01*
X138965389Y-77211139D01*
X138965400Y-77211141D01*
X139191998Y-77230966D01*
X139192002Y-77230966D01*
X139418599Y-77211141D01*
X139418610Y-77211139D01*
X139638317Y-77152269D01*
X139638331Y-77152264D01*
X139844478Y-77056136D01*
X139917471Y-77005024D01*
X139238447Y-76326000D01*
X139244661Y-76326000D01*
X139346394Y-76298741D01*
X139437606Y-76246080D01*
X139512080Y-76171606D01*
X139564741Y-76080394D01*
X139592000Y-75978661D01*
X139592000Y-75972447D01*
X140273309Y-76653756D01*
X140333192Y-76665791D01*
X140383375Y-76714406D01*
X140399500Y-76775553D01*
X140399500Y-77949902D01*
X140379815Y-78016941D01*
X140363181Y-78037583D01*
X140306656Y-78094108D01*
X140245333Y-78127593D01*
X140175641Y-78122609D01*
X140131295Y-78094109D01*
X140031139Y-77993953D01*
X140031138Y-77993952D01*
X140031137Y-77993951D01*
X139844734Y-77863432D01*
X139844732Y-77863431D01*
X139638497Y-77767261D01*
X139638488Y-77767258D01*
X139418697Y-77708366D01*
X139418693Y-77708365D01*
X139418692Y-77708365D01*
X139418691Y-77708364D01*
X139418686Y-77708364D01*
X139192002Y-77688532D01*
X139191998Y-77688532D01*
X138965313Y-77708364D01*
X138965302Y-77708366D01*
X138745511Y-77767258D01*
X138745502Y-77767261D01*
X138539267Y-77863431D01*
X138539265Y-77863432D01*
X138352858Y-77993954D01*
X138191954Y-78154858D01*
X138061432Y-78341265D01*
X138061431Y-78341267D01*
X137965261Y-78547502D01*
X137965258Y-78547511D01*
X137906366Y-78767302D01*
X137906364Y-78767313D01*
X137886532Y-78993998D01*
X137886532Y-78994001D01*
X137906364Y-79220686D01*
X137906366Y-79220697D01*
X137965258Y-79440488D01*
X137965261Y-79440497D01*
X138061431Y-79646732D01*
X138061432Y-79646734D01*
X138191954Y-79833141D01*
X138352858Y-79994045D01*
X138352861Y-79994047D01*
X138539266Y-80124568D01*
X138745504Y-80220739D01*
X138745509Y-80220740D01*
X138745511Y-80220741D01*
X138778204Y-80229501D01*
X138965308Y-80279635D01*
X139127230Y-80293801D01*
X139191998Y-80299468D01*
X139192000Y-80299468D01*
X139192002Y-80299468D01*
X139248673Y-80294509D01*
X139418692Y-80279635D01*
X139638496Y-80220739D01*
X139844734Y-80124568D01*
X140031139Y-79994047D01*
X140192047Y-79833139D01*
X140322568Y-79646734D01*
X140324180Y-79643274D01*
X140370350Y-79590834D01*
X140404469Y-79575901D01*
X140487785Y-79553577D01*
X140537904Y-79524639D01*
X140624716Y-79474520D01*
X140736520Y-79362716D01*
X140736520Y-79362714D01*
X140746728Y-79352507D01*
X140746730Y-79352504D01*
X141358506Y-78740728D01*
X141358511Y-78740724D01*
X141368714Y-78730520D01*
X141368716Y-78730520D01*
X141480520Y-78618716D01*
X141540700Y-78514481D01*
X141559577Y-78481785D01*
X141600501Y-78329057D01*
X141600501Y-78170943D01*
X141600501Y-78163348D01*
X141600500Y-78163330D01*
X141600500Y-74339059D01*
X141600501Y-74339046D01*
X141600501Y-74170945D01*
X141600501Y-74170943D01*
X141559577Y-74018215D01*
X141499408Y-73914000D01*
X141480520Y-73881284D01*
X141368716Y-73769480D01*
X141368715Y-73769479D01*
X141364385Y-73765149D01*
X141364374Y-73765139D01*
X140663590Y-73064355D01*
X140663588Y-73064352D01*
X140544717Y-72945481D01*
X140544709Y-72945475D01*
X140444978Y-72887896D01*
X140444976Y-72887895D01*
X140407786Y-72866422D01*
X140400554Y-72863427D01*
X140346152Y-72819585D01*
X140335627Y-72801271D01*
X140331106Y-72791578D01*
X140322568Y-72773266D01*
X140192047Y-72586861D01*
X140192045Y-72586858D01*
X140031141Y-72425954D01*
X139844734Y-72295432D01*
X139844732Y-72295431D01*
X139638497Y-72199261D01*
X139638488Y-72199258D01*
X139418697Y-72140366D01*
X139418693Y-72140365D01*
X139418692Y-72140365D01*
X139418691Y-72140364D01*
X139418686Y-72140364D01*
X139192002Y-72120532D01*
X139191998Y-72120532D01*
X138965313Y-72140364D01*
X138965302Y-72140366D01*
X138745511Y-72199258D01*
X138745502Y-72199261D01*
X138539267Y-72295431D01*
X138539265Y-72295432D01*
X138352858Y-72425954D01*
X138191954Y-72586858D01*
X138061432Y-72773265D01*
X138061431Y-72773267D01*
X137965261Y-72979502D01*
X137965258Y-72979511D01*
X137906366Y-73199302D01*
X137906364Y-73199313D01*
X137886532Y-73425998D01*
X136220500Y-73425998D01*
X136220500Y-71024945D01*
X136220499Y-71024941D01*
X136218380Y-71017034D01*
X136202697Y-70958500D01*
X136191732Y-70917575D01*
X136191732Y-70917574D01*
X136179578Y-70872217D01*
X136179577Y-70872215D01*
X136160125Y-70838524D01*
X136120274Y-70769500D01*
X136100520Y-70735284D01*
X135988716Y-70623480D01*
X135988715Y-70623479D01*
X135984385Y-70619149D01*
X135984374Y-70619139D01*
X135361590Y-69996355D01*
X135361588Y-69996352D01*
X135242717Y-69877481D01*
X135242716Y-69877480D01*
X135210971Y-69859152D01*
X135162756Y-69808586D01*
X135149532Y-69739979D01*
X135175500Y-69675114D01*
X135232414Y-69634585D01*
X135302204Y-69631260D01*
X135305027Y-69631980D01*
X135393308Y-69655635D01*
X135555230Y-69669801D01*
X135619998Y-69675468D01*
X135620000Y-69675468D01*
X135620002Y-69675468D01*
X135676673Y-69670509D01*
X135846692Y-69655635D01*
X136066496Y-69596739D01*
X136272734Y-69500568D01*
X136459139Y-69370047D01*
X136620047Y-69209139D01*
X136750568Y-69022734D01*
X136846739Y-68816496D01*
X136905635Y-68596692D01*
X136923251Y-68395339D01*
X136925468Y-68370001D01*
X136925468Y-68369998D01*
X136915301Y-68253796D01*
X136905635Y-68143308D01*
X136846739Y-67923504D01*
X136750568Y-67717266D01*
X136620047Y-67530861D01*
X136620045Y-67530858D01*
X136459141Y-67369954D01*
X136272734Y-67239432D01*
X136272732Y-67239431D01*
X136066497Y-67143261D01*
X136066488Y-67143258D01*
X135846697Y-67084366D01*
X135846693Y-67084365D01*
X135846692Y-67084365D01*
X135846691Y-67084364D01*
X135846686Y-67084364D01*
X135620002Y-67064532D01*
X135619998Y-67064532D01*
X135393313Y-67084364D01*
X135393302Y-67084366D01*
X135173511Y-67143258D01*
X135173502Y-67143261D01*
X134967267Y-67239431D01*
X134967265Y-67239432D01*
X134780858Y-67369954D01*
X134619954Y-67530858D01*
X134489432Y-67717265D01*
X134489431Y-67717267D01*
X134393261Y-67923502D01*
X134393258Y-67923511D01*
X134334366Y-68143302D01*
X134334364Y-68143313D01*
X134314532Y-68369998D01*
X134314532Y-68370001D01*
X134334364Y-68596686D01*
X134334366Y-68596697D01*
X134393258Y-68816488D01*
X134393261Y-68816497D01*
X134489431Y-69022732D01*
X134489432Y-69022734D01*
X134619954Y-69209141D01*
X134780858Y-69370045D01*
X134780861Y-69370047D01*
X134967266Y-69500568D01*
X135011334Y-69521117D01*
X135063773Y-69567289D01*
X135082925Y-69634483D01*
X135062709Y-69701364D01*
X135009544Y-69746699D01*
X134958929Y-69757499D01*
X134787347Y-69757499D01*
X134787331Y-69757500D01*
X134138097Y-69757500D01*
X134071058Y-69737815D01*
X134050416Y-69721181D01*
X133097941Y-68768706D01*
X133064456Y-68707383D01*
X133065847Y-68648931D01*
X133067125Y-68644163D01*
X133091635Y-68552692D01*
X133111468Y-68326000D01*
X133091635Y-68099308D01*
X133032739Y-67879504D01*
X132936568Y-67673266D01*
X132806047Y-67486861D01*
X132806045Y-67486858D01*
X132645141Y-67325954D01*
X132463208Y-67198565D01*
X132458734Y-67195432D01*
X132458732Y-67195431D01*
X132455533Y-67193191D01*
X132411908Y-67138615D01*
X132402658Y-67092007D01*
X132400500Y-66399008D01*
X132400500Y-66120943D01*
X132359577Y-65968216D01*
X132338641Y-65931953D01*
X132280524Y-65831290D01*
X132280521Y-65831286D01*
X132280520Y-65831284D01*
X132168716Y-65719480D01*
X132168715Y-65719479D01*
X132164385Y-65715149D01*
X132164374Y-65715139D01*
X131825260Y-65376025D01*
X131769892Y-65320383D01*
X131769683Y-65320223D01*
X131769423Y-65320024D01*
X131768731Y-65319490D01*
X131768716Y-65319481D01*
X131701139Y-65280465D01*
X131700912Y-65280333D01*
X131633152Y-65240989D01*
X131632533Y-65240733D01*
X131632243Y-65240612D01*
X131631804Y-65240429D01*
X131631787Y-65240424D01*
X131631785Y-65240423D01*
X131555883Y-65220085D01*
X131555882Y-65220084D01*
X131555892Y-65220045D01*
X131555587Y-65220005D01*
X131480515Y-65199690D01*
X131479559Y-65199565D01*
X131479239Y-65199522D01*
X131479068Y-65199499D01*
X131479057Y-65199499D01*
X131400347Y-65199499D01*
X126030531Y-65186240D01*
X125963540Y-65166390D01*
X125943156Y-65149921D01*
X124793231Y-63999996D01*
X142994415Y-63999996D01*
X142994415Y-64000003D01*
X143014738Y-64348927D01*
X143014739Y-64348938D01*
X143075428Y-64693127D01*
X143075430Y-64693134D01*
X143175674Y-65027972D01*
X143314107Y-65348895D01*
X143314113Y-65348908D01*
X143488870Y-65651597D01*
X143697584Y-65931949D01*
X143697589Y-65931955D01*
X143782087Y-66021517D01*
X143937442Y-66186183D01*
X144010386Y-66247390D01*
X144205186Y-66410847D01*
X144205194Y-66410853D01*
X144497203Y-66602911D01*
X144497207Y-66602913D01*
X144809549Y-66759777D01*
X145137989Y-66879319D01*
X145478086Y-66959923D01*
X145825241Y-67000500D01*
X145825248Y-67000500D01*
X146174752Y-67000500D01*
X146174759Y-67000500D01*
X146521914Y-66959923D01*
X146862011Y-66879319D01*
X147190451Y-66759777D01*
X147502793Y-66602913D01*
X147794811Y-66410849D01*
X148062558Y-66186183D01*
X148302412Y-65931953D01*
X148511130Y-65651596D01*
X148685889Y-65348904D01*
X148824326Y-65027971D01*
X148924569Y-64693136D01*
X148931244Y-64655284D01*
X148985260Y-64348938D01*
X148985259Y-64348938D01*
X148985262Y-64348927D01*
X149005585Y-64000000D01*
X148985262Y-63651073D01*
X148985260Y-63651061D01*
X148924571Y-63306872D01*
X148924569Y-63306865D01*
X148924569Y-63306864D01*
X148824326Y-62972029D01*
X148685889Y-62651096D01*
X148511130Y-62348404D01*
X148511129Y-62348402D01*
X148302415Y-62068050D01*
X148302410Y-62068044D01*
X148186433Y-61945117D01*
X148062558Y-61813817D01*
X147914488Y-61689572D01*
X147794813Y-61589152D01*
X147794805Y-61589146D01*
X147502796Y-61397088D01*
X147190458Y-61240226D01*
X147190452Y-61240223D01*
X146862012Y-61120681D01*
X146862009Y-61120680D01*
X146521915Y-61040077D01*
X146478519Y-61035004D01*
X146174759Y-60999500D01*
X145825241Y-60999500D01*
X145521480Y-61035004D01*
X145478085Y-61040077D01*
X145478083Y-61040077D01*
X145137990Y-61120680D01*
X145137987Y-61120681D01*
X144809547Y-61240223D01*
X144809541Y-61240226D01*
X144497203Y-61397088D01*
X144205194Y-61589146D01*
X144205186Y-61589152D01*
X143937442Y-61813817D01*
X143937440Y-61813819D01*
X143697589Y-62068044D01*
X143697584Y-62068050D01*
X143488870Y-62348402D01*
X143314113Y-62651091D01*
X143314107Y-62651104D01*
X143175674Y-62972027D01*
X143075430Y-63306865D01*
X143075428Y-63306872D01*
X143014739Y-63651061D01*
X143014738Y-63651072D01*
X142994415Y-63999996D01*
X124793231Y-63999996D01*
X123931590Y-63138355D01*
X123931588Y-63138352D01*
X123812717Y-63019481D01*
X123812716Y-63019480D01*
X123725904Y-62969360D01*
X123725904Y-62969359D01*
X123725900Y-62969358D01*
X123675785Y-62940423D01*
X123523057Y-62899499D01*
X123364943Y-62899499D01*
X123357347Y-62899499D01*
X123357331Y-62899500D01*
X109648940Y-62899500D01*
X109608019Y-62910464D01*
X109608019Y-62910465D01*
X109570751Y-62920451D01*
X109496214Y-62940423D01*
X109496209Y-62940426D01*
X109359290Y-63019475D01*
X109359282Y-63019481D01*
X107723479Y-64655284D01*
X107705130Y-64687066D01*
X107697375Y-64700500D01*
X107644423Y-64792215D01*
X107603499Y-64944943D01*
X107603499Y-64944945D01*
X107603499Y-65113046D01*
X107603500Y-65113059D01*
X107603500Y-72458951D01*
X107583815Y-72525990D01*
X107538518Y-72568006D01*
X107380493Y-72653524D01*
X107184257Y-72806261D01*
X107015833Y-72989217D01*
X106879826Y-73197393D01*
X106779936Y-73425118D01*
X106718892Y-73666175D01*
X106718890Y-73666187D01*
X106698357Y-73913994D01*
X106698357Y-73914001D01*
X106718890Y-74161812D01*
X106718892Y-74161824D01*
X106779936Y-74402881D01*
X106879826Y-74630606D01*
X107015833Y-74838782D01*
X107029413Y-74853534D01*
X107184256Y-75021738D01*
X107380491Y-75174474D01*
X107484221Y-75230610D01*
X107598332Y-75292364D01*
X107599190Y-75292828D01*
X107818141Y-75367994D01*
X107832964Y-75373083D01*
X107834386Y-75373571D01*
X108079665Y-75414500D01*
X108328335Y-75414500D01*
X108573614Y-75373571D01*
X108808810Y-75292828D01*
X109027509Y-75174474D01*
X109223744Y-75021738D01*
X109392164Y-74838785D01*
X109528173Y-74630607D01*
X109628063Y-74402881D01*
X109689108Y-74161821D01*
X109696735Y-74069783D01*
X109709643Y-73914001D01*
X109709643Y-73913994D01*
X109689109Y-73666187D01*
X109689107Y-73666175D01*
X109628063Y-73425118D01*
X109528173Y-73197393D01*
X109392166Y-72989217D01*
X109351903Y-72945480D01*
X109223744Y-72806262D01*
X109027509Y-72653526D01*
X109027507Y-72653525D01*
X109027506Y-72653524D01*
X108869482Y-72568006D01*
X108819892Y-72518786D01*
X108804500Y-72458951D01*
X108804500Y-65324097D01*
X108824185Y-65257058D01*
X108840819Y-65236416D01*
X109940416Y-64136819D01*
X110001739Y-64103334D01*
X110028097Y-64100500D01*
X115631141Y-64100500D01*
X115698180Y-64120185D01*
X115743935Y-64172989D01*
X115753879Y-64242147D01*
X115724854Y-64305703D01*
X115717481Y-64313503D01*
X114706209Y-65294517D01*
X114695369Y-65303880D01*
X114693286Y-65305478D01*
X114641281Y-65357482D01*
X114639943Y-65358799D01*
X114587136Y-65410028D01*
X114585492Y-65412105D01*
X114585206Y-65412425D01*
X114584822Y-65412927D01*
X114583706Y-65414358D01*
X114583329Y-65414833D01*
X114583088Y-65415189D01*
X114581479Y-65417285D01*
X114544684Y-65481016D01*
X114543731Y-65482638D01*
X114506006Y-65545747D01*
X114504956Y-65548177D01*
X114504770Y-65548547D01*
X114504541Y-65549100D01*
X114503841Y-65550755D01*
X114503568Y-65551385D01*
X114503432Y-65551777D01*
X114502424Y-65554210D01*
X114483391Y-65625239D01*
X114482891Y-65627051D01*
X114472126Y-65664918D01*
X114434860Y-65724019D01*
X114371557Y-65753591D01*
X114302315Y-65744244D01*
X114278541Y-65730277D01*
X114218331Y-65685204D01*
X114218328Y-65685202D01*
X114083482Y-65634908D01*
X114083483Y-65634908D01*
X114023883Y-65628501D01*
X114023881Y-65628500D01*
X114023873Y-65628500D01*
X114023864Y-65628500D01*
X111528129Y-65628500D01*
X111528123Y-65628501D01*
X111468516Y-65634908D01*
X111333671Y-65685202D01*
X111333664Y-65685206D01*
X111218455Y-65771452D01*
X111218452Y-65771455D01*
X111132206Y-65886664D01*
X111132202Y-65886671D01*
X111081908Y-66021517D01*
X111075501Y-66081116D01*
X111075500Y-66081135D01*
X111075500Y-67776870D01*
X111075501Y-67776876D01*
X111081908Y-67836483D01*
X111132202Y-67971328D01*
X111132206Y-67971335D01*
X111218452Y-68086544D01*
X111218455Y-68086547D01*
X111333664Y-68172793D01*
X111333671Y-68172797D01*
X111350442Y-68179052D01*
X111468517Y-68223091D01*
X111505441Y-68227060D01*
X111569989Y-68253796D01*
X111609838Y-68311188D01*
X111612333Y-68381013D01*
X111576681Y-68441102D01*
X111565071Y-68450666D01*
X111528784Y-68477030D01*
X111384028Y-68621786D01*
X111263715Y-68787386D01*
X111170781Y-68969776D01*
X111107522Y-69164465D01*
X111075500Y-69366648D01*
X111075500Y-69571351D01*
X111107522Y-69773534D01*
X111170781Y-69968223D01*
X111216476Y-70057903D01*
X111261152Y-70145584D01*
X111263715Y-70150613D01*
X111384028Y-70316213D01*
X111528786Y-70460971D01*
X111683749Y-70573556D01*
X111694390Y-70581287D01*
X111777198Y-70623480D01*
X111787080Y-70628515D01*
X111837876Y-70676490D01*
X111854671Y-70744311D01*
X111832134Y-70810446D01*
X111787080Y-70849485D01*
X111694386Y-70896715D01*
X111528786Y-71017028D01*
X111384028Y-71161786D01*
X111263715Y-71327386D01*
X111170781Y-71509776D01*
X111107522Y-71704465D01*
X111075500Y-71906648D01*
X111075500Y-72111351D01*
X111107522Y-72313534D01*
X111170781Y-72508223D01*
X111234691Y-72633653D01*
X111263600Y-72690389D01*
X111263715Y-72690613D01*
X111384028Y-72856213D01*
X111528786Y-73000971D01*
X111675120Y-73107287D01*
X111694390Y-73121287D01*
X111785840Y-73167883D01*
X111787080Y-73168515D01*
X111837876Y-73216490D01*
X111854671Y-73284311D01*
X111832134Y-73350446D01*
X111787080Y-73389485D01*
X111694386Y-73436715D01*
X111528786Y-73557028D01*
X111384028Y-73701786D01*
X111263715Y-73867386D01*
X111170781Y-74049776D01*
X111107522Y-74244465D01*
X111075500Y-74446648D01*
X111075500Y-74651351D01*
X111107522Y-74853534D01*
X111170781Y-75048223D01*
X111216327Y-75137610D01*
X111248384Y-75200526D01*
X111263715Y-75230613D01*
X111384028Y-75396213D01*
X111528786Y-75540971D01*
X111683749Y-75653556D01*
X111694390Y-75661287D01*
X111731890Y-75680394D01*
X111787629Y-75708795D01*
X111838425Y-75756770D01*
X111855220Y-75824591D01*
X111832682Y-75890726D01*
X111787629Y-75929765D01*
X111694650Y-75977140D01*
X111529105Y-76097417D01*
X111529104Y-76097417D01*
X111384417Y-76242104D01*
X111384417Y-76242105D01*
X111264140Y-76407650D01*
X111171244Y-76589970D01*
X111108009Y-76784586D01*
X111099391Y-76839000D01*
X112460314Y-76839000D01*
X112455920Y-76843394D01*
X112403259Y-76934606D01*
X112376000Y-77036339D01*
X112376000Y-77141661D01*
X112403259Y-77243394D01*
X112455920Y-77334606D01*
X112460314Y-77339000D01*
X111099391Y-77339000D01*
X111108009Y-77393413D01*
X111171244Y-77588029D01*
X111264140Y-77770349D01*
X111384417Y-77935894D01*
X111384417Y-77935895D01*
X111529104Y-78080582D01*
X111694652Y-78200861D01*
X111787628Y-78248234D01*
X111838425Y-78296208D01*
X111855220Y-78364029D01*
X111832683Y-78430164D01*
X111787630Y-78469203D01*
X111694388Y-78516713D01*
X111528786Y-78637028D01*
X111384028Y-78781786D01*
X111263715Y-78947386D01*
X111170781Y-79129776D01*
X111107522Y-79324465D01*
X111075500Y-79526648D01*
X111075500Y-79731351D01*
X111107522Y-79933534D01*
X111170781Y-80128223D01*
X111222385Y-80229500D01*
X111247930Y-80279635D01*
X111263715Y-80310613D01*
X111384028Y-80476213D01*
X111528786Y-80620971D01*
X111642201Y-80703370D01*
X111694390Y-80741287D01*
X111783563Y-80786723D01*
X111787080Y-80788515D01*
X111837876Y-80836490D01*
X111854671Y-80904311D01*
X111832134Y-80970446D01*
X111787080Y-81009485D01*
X111694386Y-81056715D01*
X111528786Y-81177028D01*
X111384028Y-81321786D01*
X111263715Y-81487386D01*
X111170781Y-81669776D01*
X111107522Y-81864465D01*
X111075500Y-82066648D01*
X111075500Y-82271351D01*
X111107522Y-82473534D01*
X111170781Y-82668223D01*
X111234691Y-82793653D01*
X111257827Y-82839059D01*
X111263715Y-82850613D01*
X111384028Y-83016213D01*
X111528786Y-83160971D01*
X111671159Y-83264409D01*
X111694390Y-83281287D01*
X111748268Y-83308739D01*
X111787080Y-83328515D01*
X111837876Y-83376490D01*
X111854671Y-83444311D01*
X111832134Y-83510446D01*
X111787080Y-83549485D01*
X111694386Y-83596715D01*
X111528786Y-83717028D01*
X111384028Y-83861786D01*
X111263715Y-84027385D01*
X111256883Y-84040795D01*
X111208909Y-84091591D01*
X111146398Y-84108500D01*
X109433669Y-84108500D01*
X109433653Y-84108499D01*
X109426057Y-84108499D01*
X109267943Y-84108499D01*
X109115215Y-84149423D01*
X109115214Y-84149423D01*
X109115212Y-84149424D01*
X109089255Y-84164411D01*
X109089254Y-84164412D01*
X109033769Y-84196446D01*
X108978285Y-84228479D01*
X108978282Y-84228481D01*
X108901406Y-84305358D01*
X108866480Y-84340284D01*
X108866478Y-84340286D01*
X108265776Y-84940989D01*
X107697584Y-85509181D01*
X107636261Y-85542666D01*
X107609903Y-85545500D01*
X106312719Y-85545500D01*
X106245680Y-85525815D01*
X106202235Y-85477795D01*
X106182052Y-85438185D01*
X106182051Y-85438184D01*
X106057109Y-85266213D01*
X105906792Y-85115896D01*
X105901717Y-85112209D01*
X105742204Y-84996316D01*
X105699540Y-84940989D01*
X105693561Y-84871376D01*
X105726166Y-84809580D01*
X105742199Y-84795686D01*
X105906792Y-84676104D01*
X106057104Y-84525792D01*
X106057106Y-84525788D01*
X106057109Y-84525786D01*
X106182048Y-84353820D01*
X106182047Y-84353820D01*
X106182051Y-84353816D01*
X106278557Y-84164412D01*
X106344246Y-83962243D01*
X106377500Y-83752287D01*
X106377500Y-83539713D01*
X106344246Y-83329757D01*
X106278557Y-83127588D01*
X106182051Y-82938184D01*
X106182049Y-82938181D01*
X106182048Y-82938179D01*
X106057109Y-82766213D01*
X105906790Y-82615894D01*
X105906785Y-82615890D01*
X105741781Y-82496008D01*
X105699115Y-82440678D01*
X105693136Y-82371065D01*
X105725741Y-82309270D01*
X105741781Y-82295371D01*
X105906466Y-82175721D01*
X106056723Y-82025464D01*
X106056727Y-82025459D01*
X106181620Y-81853557D01*
X106278095Y-81664217D01*
X106343757Y-81462129D01*
X106343757Y-81462126D01*
X106354231Y-81396000D01*
X105306146Y-81396000D01*
X105344630Y-81329343D01*
X105377000Y-81208535D01*
X105377000Y-81083465D01*
X105344630Y-80962657D01*
X105306146Y-80896000D01*
X106354231Y-80896000D01*
X106343757Y-80829873D01*
X106343757Y-80829870D01*
X106278095Y-80627782D01*
X106181620Y-80438442D01*
X106056727Y-80266540D01*
X106056723Y-80266535D01*
X105906464Y-80116276D01*
X105906459Y-80116272D01*
X105734557Y-79991379D01*
X105545217Y-79894904D01*
X105343128Y-79829242D01*
X105152000Y-79798969D01*
X105152000Y-80741854D01*
X105085343Y-80703370D01*
X104964535Y-80671000D01*
X104839465Y-80671000D01*
X104718657Y-80703370D01*
X104652000Y-80741854D01*
X104652000Y-79798969D01*
X104460872Y-79829242D01*
X104460869Y-79829242D01*
X104258782Y-79894904D01*
X104069442Y-79991379D01*
X103897540Y-80116272D01*
X103897535Y-80116276D01*
X103747276Y-80266535D01*
X103747272Y-80266540D01*
X103622379Y-80438442D01*
X103525904Y-80627782D01*
X103460242Y-80829870D01*
X103460242Y-80829873D01*
X103449769Y-80896000D01*
X104497854Y-80896000D01*
X104459370Y-80962657D01*
X104427000Y-81083465D01*
X104427000Y-81208535D01*
X104459370Y-81329343D01*
X104497854Y-81396000D01*
X103449769Y-81396000D01*
X103460242Y-81462126D01*
X103460242Y-81462129D01*
X103525904Y-81664217D01*
X103622379Y-81853557D01*
X103747272Y-82025459D01*
X103747276Y-82025464D01*
X103897535Y-82175723D01*
X103897540Y-82175727D01*
X104062218Y-82295372D01*
X104104884Y-82350701D01*
X104110863Y-82420315D01*
X104078258Y-82482110D01*
X104062218Y-82496008D01*
X103897214Y-82615890D01*
X103897209Y-82615894D01*
X103746890Y-82766213D01*
X103621948Y-82938184D01*
X103621947Y-82938185D01*
X103601765Y-82977795D01*
X103553791Y-83028591D01*
X103491281Y-83045500D01*
X103384670Y-83045500D01*
X103384654Y-83045499D01*
X103377058Y-83045499D01*
X103218943Y-83045499D01*
X103142579Y-83065961D01*
X103066214Y-83086423D01*
X103066209Y-83086426D01*
X102929290Y-83165475D01*
X102929282Y-83165481D01*
X102135481Y-83959282D01*
X102135479Y-83959285D01*
X102110420Y-84002689D01*
X102096160Y-84027390D01*
X102085361Y-84046094D01*
X102085359Y-84046096D01*
X102056425Y-84096209D01*
X102056424Y-84096210D01*
X102056423Y-84096215D01*
X102015499Y-84248943D01*
X102015499Y-84248945D01*
X102015499Y-84417046D01*
X102015500Y-84417059D01*
X102015500Y-91112045D01*
X102012943Y-91137096D01*
X102011910Y-91142103D01*
X100500500Y-91142103D01*
X100500500Y-73913994D01*
X101698859Y-73913994D01*
X101698859Y-73914001D01*
X101719385Y-74161729D01*
X101719387Y-74161738D01*
X101780412Y-74402717D01*
X101880267Y-74630367D01*
X101980562Y-74783881D01*
X102721037Y-74043408D01*
X102738075Y-74106993D01*
X102803901Y-74221007D01*
X102896993Y-74314099D01*
X103011007Y-74379925D01*
X103074591Y-74396962D01*
X102333943Y-75137609D01*
X102380768Y-75174055D01*
X102380771Y-75174057D01*
X102599385Y-75292364D01*
X102599396Y-75292369D01*
X102834506Y-75373083D01*
X103079707Y-75414000D01*
X103328293Y-75414000D01*
X103573493Y-75373083D01*
X103808603Y-75292369D01*
X103808614Y-75292364D01*
X104027230Y-75174056D01*
X104027236Y-75174051D01*
X104074055Y-75137610D01*
X104074056Y-75137609D01*
X103333408Y-74396962D01*
X103396993Y-74379925D01*
X103511007Y-74314099D01*
X103604099Y-74221007D01*
X103669925Y-74106993D01*
X103686962Y-74043409D01*
X104427435Y-74783882D01*
X104527733Y-74630364D01*
X104627587Y-74402717D01*
X104688612Y-74161738D01*
X104688614Y-74161729D01*
X104709141Y-73914001D01*
X104709141Y-73913994D01*
X104688614Y-73666270D01*
X104688612Y-73666261D01*
X104627587Y-73425282D01*
X104527732Y-73197632D01*
X104427435Y-73044116D01*
X103686962Y-73784590D01*
X103669925Y-73721007D01*
X103604099Y-73606993D01*
X103511007Y-73513901D01*
X103396993Y-73448075D01*
X103333409Y-73431037D01*
X104074055Y-72690389D01*
X104074055Y-72690388D01*
X104027236Y-72653947D01*
X104027231Y-72653944D01*
X103808614Y-72535635D01*
X103808603Y-72535630D01*
X103573493Y-72454916D01*
X103328293Y-72414000D01*
X103079707Y-72414000D01*
X102834506Y-72454916D01*
X102599396Y-72535630D01*
X102599385Y-72535635D01*
X102380770Y-72653943D01*
X102333943Y-72690389D01*
X103074591Y-73431037D01*
X103011007Y-73448075D01*
X102896993Y-73513901D01*
X102803901Y-73606993D01*
X102738075Y-73721007D01*
X102721037Y-73784591D01*
X101980563Y-73044117D01*
X101880267Y-73197633D01*
X101880265Y-73197637D01*
X101780412Y-73425282D01*
X101719387Y-73666261D01*
X101719385Y-73666270D01*
X101698859Y-73913994D01*
X100500500Y-73913994D01*
X100500500Y-63999996D01*
X100994415Y-63999996D01*
X100994415Y-64000003D01*
X101014738Y-64348927D01*
X101014739Y-64348938D01*
X101075428Y-64693127D01*
X101075430Y-64693134D01*
X101175674Y-65027972D01*
X101314107Y-65348895D01*
X101314113Y-65348908D01*
X101488870Y-65651597D01*
X101697584Y-65931949D01*
X101697589Y-65931955D01*
X101782087Y-66021517D01*
X101937442Y-66186183D01*
X102010386Y-66247390D01*
X102205186Y-66410847D01*
X102205194Y-66410853D01*
X102497203Y-66602911D01*
X102497207Y-66602913D01*
X102809549Y-66759777D01*
X103137989Y-66879319D01*
X103478086Y-66959923D01*
X103825241Y-67000500D01*
X103825248Y-67000500D01*
X104174752Y-67000500D01*
X104174759Y-67000500D01*
X104521914Y-66959923D01*
X104862011Y-66879319D01*
X105190451Y-66759777D01*
X105502793Y-66602913D01*
X105794811Y-66410849D01*
X106062558Y-66186183D01*
X106302412Y-65931953D01*
X106511130Y-65651596D01*
X106685889Y-65348904D01*
X106824326Y-65027971D01*
X106924569Y-64693136D01*
X106931244Y-64655284D01*
X106985260Y-64348938D01*
X106985259Y-64348938D01*
X106985262Y-64348927D01*
X107005585Y-64000000D01*
X106985262Y-63651073D01*
X106985260Y-63651061D01*
X106924571Y-63306872D01*
X106924569Y-63306865D01*
X106924569Y-63306864D01*
X106824326Y-62972029D01*
X106685889Y-62651096D01*
X106511130Y-62348404D01*
X106511129Y-62348402D01*
X106302415Y-62068050D01*
X106302410Y-62068044D01*
X106186433Y-61945117D01*
X106062558Y-61813817D01*
X105914488Y-61689572D01*
X105794813Y-61589152D01*
X105794805Y-61589146D01*
X105502796Y-61397088D01*
X105190458Y-61240226D01*
X105190452Y-61240223D01*
X104862012Y-61120681D01*
X104862009Y-61120680D01*
X104521915Y-61040077D01*
X104478519Y-61035004D01*
X104174759Y-60999500D01*
X103825241Y-60999500D01*
X103521480Y-61035004D01*
X103478085Y-61040077D01*
X103478083Y-61040077D01*
X103137990Y-61120680D01*
X103137987Y-61120681D01*
X102809547Y-61240223D01*
X102809541Y-61240226D01*
X102497203Y-61397088D01*
X102205194Y-61589146D01*
X102205186Y-61589152D01*
X101937442Y-61813817D01*
X101937440Y-61813819D01*
X101697589Y-62068044D01*
X101697584Y-62068050D01*
X101488870Y-62348402D01*
X101314113Y-62651091D01*
X101314107Y-62651104D01*
X101175674Y-62972027D01*
X101075430Y-63306865D01*
X101075428Y-63306872D01*
X101014739Y-63651061D01*
X101014738Y-63651072D01*
X100994415Y-63999996D01*
X100500500Y-63999996D01*
X100500500Y-60624500D01*
X100520185Y-60557461D01*
X100572989Y-60511706D01*
X100624500Y-60500500D01*
X149375500Y-60500500D01*
X149442539Y-60520185D01*
G37*
%TD.AperFunction*%
%TD*%
M02*
