%TF.GenerationSoftware,KiCad,Pcbnew,8.0.8-8.0.8-0~ubuntu22.04.1*%
%TF.CreationDate,2025-01-20T17:27:52+09:00*%
%TF.ProjectId,M252,4d323532-2e6b-4696-9361-645f70636258,rev?*%
%TF.SameCoordinates,Original*%
%TF.FileFunction,Legend,Top*%
%TF.FilePolarity,Positive*%
%FSLAX46Y46*%
G04 Gerber Fmt 4.6, Leading zero omitted, Abs format (unit mm)*
G04 Created by KiCad (PCBNEW 8.0.8-8.0.8-0~ubuntu22.04.1) date 2025-01-20 17:27:52*
%MOMM*%
%LPD*%
G01*
G04 APERTURE LIST*
%ADD10C,0.125000*%
%ADD11C,0.100000*%
%ADD12C,0.500000*%
%ADD13C,0.200000*%
%ADD14C,0.150000*%
%ADD15C,0.120000*%
G04 APERTURE END LIST*
D10*
X114645595Y-98977287D02*
X113845595Y-98977287D01*
X113845595Y-98977287D02*
X113845595Y-98672525D01*
X113845595Y-98672525D02*
X113883690Y-98596335D01*
X113883690Y-98596335D02*
X113921785Y-98558240D01*
X113921785Y-98558240D02*
X113997976Y-98520144D01*
X113997976Y-98520144D02*
X114112261Y-98520144D01*
X114112261Y-98520144D02*
X114188452Y-98558240D01*
X114188452Y-98558240D02*
X114226547Y-98596335D01*
X114226547Y-98596335D02*
X114264642Y-98672525D01*
X114264642Y-98672525D02*
X114264642Y-98977287D01*
X113883690Y-97758240D02*
X113845595Y-97834430D01*
X113845595Y-97834430D02*
X113845595Y-97948716D01*
X113845595Y-97948716D02*
X113883690Y-98063002D01*
X113883690Y-98063002D02*
X113959880Y-98139192D01*
X113959880Y-98139192D02*
X114036071Y-98177287D01*
X114036071Y-98177287D02*
X114188452Y-98215383D01*
X114188452Y-98215383D02*
X114302738Y-98215383D01*
X114302738Y-98215383D02*
X114455119Y-98177287D01*
X114455119Y-98177287D02*
X114531309Y-98139192D01*
X114531309Y-98139192D02*
X114607500Y-98063002D01*
X114607500Y-98063002D02*
X114645595Y-97948716D01*
X114645595Y-97948716D02*
X114645595Y-97872525D01*
X114645595Y-97872525D02*
X114607500Y-97758240D01*
X114607500Y-97758240D02*
X114569404Y-97720144D01*
X114569404Y-97720144D02*
X114302738Y-97720144D01*
X114302738Y-97720144D02*
X114302738Y-97872525D01*
X114569404Y-96920144D02*
X114607500Y-96958240D01*
X114607500Y-96958240D02*
X114645595Y-97072525D01*
X114645595Y-97072525D02*
X114645595Y-97148716D01*
X114645595Y-97148716D02*
X114607500Y-97263002D01*
X114607500Y-97263002D02*
X114531309Y-97339192D01*
X114531309Y-97339192D02*
X114455119Y-97377287D01*
X114455119Y-97377287D02*
X114302738Y-97415383D01*
X114302738Y-97415383D02*
X114188452Y-97415383D01*
X114188452Y-97415383D02*
X114036071Y-97377287D01*
X114036071Y-97377287D02*
X113959880Y-97339192D01*
X113959880Y-97339192D02*
X113883690Y-97263002D01*
X113883690Y-97263002D02*
X113845595Y-97148716D01*
X113845595Y-97148716D02*
X113845595Y-97072525D01*
X113845595Y-97072525D02*
X113883690Y-96958240D01*
X113883690Y-96958240D02*
X113921785Y-96920144D01*
X121595595Y-98841573D02*
X122395595Y-98574906D01*
X122395595Y-98574906D02*
X121595595Y-98308240D01*
X122395595Y-98041573D02*
X121595595Y-98041573D01*
X121595595Y-98041573D02*
X121595595Y-97851097D01*
X121595595Y-97851097D02*
X121633690Y-97736811D01*
X121633690Y-97736811D02*
X121709880Y-97660621D01*
X121709880Y-97660621D02*
X121786071Y-97622526D01*
X121786071Y-97622526D02*
X121938452Y-97584430D01*
X121938452Y-97584430D02*
X122052738Y-97584430D01*
X122052738Y-97584430D02*
X122205119Y-97622526D01*
X122205119Y-97622526D02*
X122281309Y-97660621D01*
X122281309Y-97660621D02*
X122357500Y-97736811D01*
X122357500Y-97736811D02*
X122395595Y-97851097D01*
X122395595Y-97851097D02*
X122395595Y-98041573D01*
X122395595Y-97241573D02*
X121595595Y-97241573D01*
X121595595Y-97241573D02*
X121595595Y-97051097D01*
X121595595Y-97051097D02*
X121633690Y-96936811D01*
X121633690Y-96936811D02*
X121709880Y-96860621D01*
X121709880Y-96860621D02*
X121786071Y-96822526D01*
X121786071Y-96822526D02*
X121938452Y-96784430D01*
X121938452Y-96784430D02*
X122052738Y-96784430D01*
X122052738Y-96784430D02*
X122205119Y-96822526D01*
X122205119Y-96822526D02*
X122281309Y-96860621D01*
X122281309Y-96860621D02*
X122357500Y-96936811D01*
X122357500Y-96936811D02*
X122395595Y-97051097D01*
X122395595Y-97051097D02*
X122395595Y-97241573D01*
X117145595Y-98977287D02*
X116345595Y-98977287D01*
X116345595Y-98977287D02*
X116345595Y-98672525D01*
X116345595Y-98672525D02*
X116383690Y-98596335D01*
X116383690Y-98596335D02*
X116421785Y-98558240D01*
X116421785Y-98558240D02*
X116497976Y-98520144D01*
X116497976Y-98520144D02*
X116612261Y-98520144D01*
X116612261Y-98520144D02*
X116688452Y-98558240D01*
X116688452Y-98558240D02*
X116726547Y-98596335D01*
X116726547Y-98596335D02*
X116764642Y-98672525D01*
X116764642Y-98672525D02*
X116764642Y-98977287D01*
X116383690Y-97758240D02*
X116345595Y-97834430D01*
X116345595Y-97834430D02*
X116345595Y-97948716D01*
X116345595Y-97948716D02*
X116383690Y-98063002D01*
X116383690Y-98063002D02*
X116459880Y-98139192D01*
X116459880Y-98139192D02*
X116536071Y-98177287D01*
X116536071Y-98177287D02*
X116688452Y-98215383D01*
X116688452Y-98215383D02*
X116802738Y-98215383D01*
X116802738Y-98215383D02*
X116955119Y-98177287D01*
X116955119Y-98177287D02*
X117031309Y-98139192D01*
X117031309Y-98139192D02*
X117107500Y-98063002D01*
X117107500Y-98063002D02*
X117145595Y-97948716D01*
X117145595Y-97948716D02*
X117145595Y-97872525D01*
X117145595Y-97872525D02*
X117107500Y-97758240D01*
X117107500Y-97758240D02*
X117069404Y-97720144D01*
X117069404Y-97720144D02*
X116802738Y-97720144D01*
X116802738Y-97720144D02*
X116802738Y-97872525D01*
X117145595Y-97377287D02*
X116345595Y-97377287D01*
X116345595Y-97377287D02*
X116345595Y-97186811D01*
X116345595Y-97186811D02*
X116383690Y-97072525D01*
X116383690Y-97072525D02*
X116459880Y-96996335D01*
X116459880Y-96996335D02*
X116536071Y-96958240D01*
X116536071Y-96958240D02*
X116688452Y-96920144D01*
X116688452Y-96920144D02*
X116802738Y-96920144D01*
X116802738Y-96920144D02*
X116955119Y-96958240D01*
X116955119Y-96958240D02*
X117031309Y-96996335D01*
X117031309Y-96996335D02*
X117107500Y-97072525D01*
X117107500Y-97072525D02*
X117145595Y-97186811D01*
X117145595Y-97186811D02*
X117145595Y-97377287D01*
D11*
X108854419Y-84674972D02*
X108854419Y-84103544D01*
X109854419Y-84389258D02*
X108854419Y-84389258D01*
X108854419Y-83865448D02*
X109854419Y-83198782D01*
X108854419Y-83198782D02*
X109854419Y-83865448D01*
D12*
X128297232Y-95110857D02*
X128297232Y-92110857D01*
X128297232Y-92110857D02*
X129297232Y-94253714D01*
X129297232Y-94253714D02*
X130297232Y-92110857D01*
X130297232Y-92110857D02*
X130297232Y-95110857D01*
X131582946Y-92396571D02*
X131725803Y-92253714D01*
X131725803Y-92253714D02*
X132011518Y-92110857D01*
X132011518Y-92110857D02*
X132725803Y-92110857D01*
X132725803Y-92110857D02*
X133011518Y-92253714D01*
X133011518Y-92253714D02*
X133154375Y-92396571D01*
X133154375Y-92396571D02*
X133297232Y-92682285D01*
X133297232Y-92682285D02*
X133297232Y-92968000D01*
X133297232Y-92968000D02*
X133154375Y-93396571D01*
X133154375Y-93396571D02*
X131440089Y-95110857D01*
X131440089Y-95110857D02*
X133297232Y-95110857D01*
X136011518Y-92110857D02*
X134582946Y-92110857D01*
X134582946Y-92110857D02*
X134440089Y-93539428D01*
X134440089Y-93539428D02*
X134582946Y-93396571D01*
X134582946Y-93396571D02*
X134868661Y-93253714D01*
X134868661Y-93253714D02*
X135582946Y-93253714D01*
X135582946Y-93253714D02*
X135868661Y-93396571D01*
X135868661Y-93396571D02*
X136011518Y-93539428D01*
X136011518Y-93539428D02*
X136154375Y-93825142D01*
X136154375Y-93825142D02*
X136154375Y-94539428D01*
X136154375Y-94539428D02*
X136011518Y-94825142D01*
X136011518Y-94825142D02*
X135868661Y-94968000D01*
X135868661Y-94968000D02*
X135582946Y-95110857D01*
X135582946Y-95110857D02*
X134868661Y-95110857D01*
X134868661Y-95110857D02*
X134582946Y-94968000D01*
X134582946Y-94968000D02*
X134440089Y-94825142D01*
X137297232Y-92396571D02*
X137440089Y-92253714D01*
X137440089Y-92253714D02*
X137725804Y-92110857D01*
X137725804Y-92110857D02*
X138440089Y-92110857D01*
X138440089Y-92110857D02*
X138725804Y-92253714D01*
X138725804Y-92253714D02*
X138868661Y-92396571D01*
X138868661Y-92396571D02*
X139011518Y-92682285D01*
X139011518Y-92682285D02*
X139011518Y-92968000D01*
X139011518Y-92968000D02*
X138868661Y-93396571D01*
X138868661Y-93396571D02*
X137154375Y-95110857D01*
X137154375Y-95110857D02*
X139011518Y-95110857D01*
D11*
X108902038Y-81722306D02*
X108854419Y-81817544D01*
X108854419Y-81817544D02*
X108854419Y-81960401D01*
X108854419Y-81960401D02*
X108902038Y-82103258D01*
X108902038Y-82103258D02*
X108997276Y-82198496D01*
X108997276Y-82198496D02*
X109092514Y-82246115D01*
X109092514Y-82246115D02*
X109282990Y-82293734D01*
X109282990Y-82293734D02*
X109425847Y-82293734D01*
X109425847Y-82293734D02*
X109616323Y-82246115D01*
X109616323Y-82246115D02*
X109711561Y-82198496D01*
X109711561Y-82198496D02*
X109806800Y-82103258D01*
X109806800Y-82103258D02*
X109854419Y-81960401D01*
X109854419Y-81960401D02*
X109854419Y-81865163D01*
X109854419Y-81865163D02*
X109806800Y-81722306D01*
X109806800Y-81722306D02*
X109759180Y-81674687D01*
X109759180Y-81674687D02*
X109425847Y-81674687D01*
X109425847Y-81674687D02*
X109425847Y-81865163D01*
X109854419Y-81246115D02*
X108854419Y-81246115D01*
X108854419Y-81246115D02*
X109854419Y-80674687D01*
X109854419Y-80674687D02*
X108854419Y-80674687D01*
X109854419Y-80198496D02*
X108854419Y-80198496D01*
X108854419Y-80198496D02*
X108854419Y-79960401D01*
X108854419Y-79960401D02*
X108902038Y-79817544D01*
X108902038Y-79817544D02*
X108997276Y-79722306D01*
X108997276Y-79722306D02*
X109092514Y-79674687D01*
X109092514Y-79674687D02*
X109282990Y-79627068D01*
X109282990Y-79627068D02*
X109425847Y-79627068D01*
X109425847Y-79627068D02*
X109616323Y-79674687D01*
X109616323Y-79674687D02*
X109711561Y-79722306D01*
X109711561Y-79722306D02*
X109806800Y-79817544D01*
X109806800Y-79817544D02*
X109854419Y-79960401D01*
X109854419Y-79960401D02*
X109854419Y-80198496D01*
D13*
X114274435Y-61155961D02*
X114274435Y-62013104D01*
X114274435Y-62013104D02*
X114083958Y-62584533D01*
X114083958Y-62584533D02*
X113893482Y-62870247D01*
X113893482Y-62870247D02*
X113512530Y-63346438D01*
X113417292Y-61822628D02*
X115131578Y-61822628D01*
X115131578Y-61822628D02*
X115131578Y-63346438D01*
X115131578Y-63346438D02*
X115798244Y-63346438D01*
X115798244Y-63346438D02*
X115798244Y-62965485D01*
X117798244Y-61155961D02*
X117798244Y-63155961D01*
X118750625Y-61155961D02*
X118750625Y-63346438D01*
X117226816Y-61822628D02*
X117417292Y-62394057D01*
X118179197Y-61727390D02*
X118369673Y-62298819D01*
X116560149Y-61727390D02*
X116274435Y-62298819D01*
X116941101Y-61155961D02*
X116941101Y-62298819D01*
X116941101Y-62298819D02*
X116845863Y-62775009D01*
X116845863Y-62775009D02*
X116560149Y-63251200D01*
X119226816Y-61917866D02*
X121703006Y-61917866D01*
X120464911Y-61060723D02*
X120464911Y-61822628D01*
X120464911Y-61822628D02*
X120845863Y-62679771D01*
X120845863Y-62679771D02*
X121322054Y-63155961D01*
X121322054Y-63155961D02*
X121703006Y-63346438D01*
X120369673Y-62013104D02*
X120083959Y-62775009D01*
X120083959Y-62775009D02*
X119703006Y-63155961D01*
X119703006Y-63155961D02*
X119226816Y-63346438D01*
X120464911Y-61251200D02*
X120274435Y-62394057D01*
X122179197Y-62584533D02*
X124655387Y-62584533D01*
X122845863Y-63346438D02*
X123417292Y-63346438D01*
X122274435Y-61536914D02*
X122274435Y-62013104D01*
X123417292Y-62394057D02*
X123417292Y-63346438D01*
X122274435Y-61536914D02*
X124560149Y-61536914D01*
X124560149Y-61536914D02*
X124560149Y-62013104D01*
X122464911Y-61155961D02*
X122750625Y-61441676D01*
X124369673Y-61155961D02*
X123988721Y-61536914D01*
X123322054Y-61060723D02*
X123417292Y-61441676D01*
X122655387Y-62013104D02*
X124179197Y-62013104D01*
X124179197Y-62013104D02*
X123417292Y-62298819D01*
X126845864Y-62775009D02*
X127798245Y-62775009D01*
X126655388Y-63346438D02*
X127322054Y-61346438D01*
X127322054Y-61346438D02*
X127988721Y-63346438D01*
X128655388Y-63346438D02*
X128655388Y-61346438D01*
X128655388Y-61346438D02*
X129322055Y-62775009D01*
X129322055Y-62775009D02*
X129988721Y-61346438D01*
X129988721Y-61346438D02*
X129988721Y-63346438D01*
X130941102Y-63346438D02*
X130941102Y-61346438D01*
X130941102Y-61346438D02*
X131703007Y-61346438D01*
X131703007Y-61346438D02*
X131893483Y-61441676D01*
X131893483Y-61441676D02*
X131988721Y-61536914D01*
X131988721Y-61536914D02*
X132083959Y-61727390D01*
X132083959Y-61727390D02*
X132083959Y-62013104D01*
X132083959Y-62013104D02*
X131988721Y-62203580D01*
X131988721Y-62203580D02*
X131893483Y-62298819D01*
X131893483Y-62298819D02*
X131703007Y-62394057D01*
X131703007Y-62394057D02*
X130941102Y-62394057D01*
X132845864Y-63251200D02*
X133131578Y-63346438D01*
X133131578Y-63346438D02*
X133607769Y-63346438D01*
X133607769Y-63346438D02*
X133798245Y-63251200D01*
X133798245Y-63251200D02*
X133893483Y-63155961D01*
X133893483Y-63155961D02*
X133988721Y-62965485D01*
X133988721Y-62965485D02*
X133988721Y-62775009D01*
X133988721Y-62775009D02*
X133893483Y-62584533D01*
X133893483Y-62584533D02*
X133798245Y-62489295D01*
X133798245Y-62489295D02*
X133607769Y-62394057D01*
X133607769Y-62394057D02*
X133226816Y-62298819D01*
X133226816Y-62298819D02*
X133036340Y-62203580D01*
X133036340Y-62203580D02*
X132941102Y-62108342D01*
X132941102Y-62108342D02*
X132845864Y-61917866D01*
X132845864Y-61917866D02*
X132845864Y-61727390D01*
X132845864Y-61727390D02*
X132941102Y-61536914D01*
X132941102Y-61536914D02*
X133036340Y-61441676D01*
X133036340Y-61441676D02*
X133226816Y-61346438D01*
X133226816Y-61346438D02*
X133703007Y-61346438D01*
X133703007Y-61346438D02*
X133988721Y-61441676D01*
X134845864Y-63346438D02*
X134845864Y-61346438D01*
X134845864Y-61346438D02*
X135322054Y-61346438D01*
X135322054Y-61346438D02*
X135607769Y-61441676D01*
X135607769Y-61441676D02*
X135798245Y-61632152D01*
X135798245Y-61632152D02*
X135893483Y-61822628D01*
X135893483Y-61822628D02*
X135988721Y-62203580D01*
X135988721Y-62203580D02*
X135988721Y-62489295D01*
X135988721Y-62489295D02*
X135893483Y-62870247D01*
X135893483Y-62870247D02*
X135798245Y-63060723D01*
X135798245Y-63060723D02*
X135607769Y-63251200D01*
X135607769Y-63251200D02*
X135322054Y-63346438D01*
X135322054Y-63346438D02*
X134845864Y-63346438D01*
D14*
X148348819Y-80187030D02*
X148348819Y-80663220D01*
X148348819Y-80663220D02*
X148825009Y-80710839D01*
X148825009Y-80710839D02*
X148777390Y-80663220D01*
X148777390Y-80663220D02*
X148729771Y-80567982D01*
X148729771Y-80567982D02*
X148729771Y-80329887D01*
X148729771Y-80329887D02*
X148777390Y-80234649D01*
X148777390Y-80234649D02*
X148825009Y-80187030D01*
X148825009Y-80187030D02*
X148920247Y-80139411D01*
X148920247Y-80139411D02*
X149158342Y-80139411D01*
X149158342Y-80139411D02*
X149253580Y-80187030D01*
X149253580Y-80187030D02*
X149301200Y-80234649D01*
X149301200Y-80234649D02*
X149348819Y-80329887D01*
X149348819Y-80329887D02*
X149348819Y-80567982D01*
X149348819Y-80567982D02*
X149301200Y-80663220D01*
X149301200Y-80663220D02*
X149253580Y-80710839D01*
X148348819Y-79853696D02*
X149348819Y-79520363D01*
X149348819Y-79520363D02*
X148348819Y-79187030D01*
D11*
X127661027Y-97872419D02*
X128232455Y-97872419D01*
X127946741Y-98872419D02*
X127946741Y-97872419D01*
X128899122Y-98348609D02*
X129041979Y-98396228D01*
X129041979Y-98396228D02*
X129089598Y-98443847D01*
X129089598Y-98443847D02*
X129137217Y-98539085D01*
X129137217Y-98539085D02*
X129137217Y-98681942D01*
X129137217Y-98681942D02*
X129089598Y-98777180D01*
X129089598Y-98777180D02*
X129041979Y-98824800D01*
X129041979Y-98824800D02*
X128946741Y-98872419D01*
X128946741Y-98872419D02*
X128565789Y-98872419D01*
X128565789Y-98872419D02*
X128565789Y-97872419D01*
X128565789Y-97872419D02*
X128899122Y-97872419D01*
X128899122Y-97872419D02*
X128994360Y-97920038D01*
X128994360Y-97920038D02*
X129041979Y-97967657D01*
X129041979Y-97967657D02*
X129089598Y-98062895D01*
X129089598Y-98062895D02*
X129089598Y-98158133D01*
X129089598Y-98158133D02*
X129041979Y-98253371D01*
X129041979Y-98253371D02*
X128994360Y-98300990D01*
X128994360Y-98300990D02*
X128899122Y-98348609D01*
X128899122Y-98348609D02*
X128565789Y-98348609D01*
X129518170Y-97967657D02*
X129565789Y-97920038D01*
X129565789Y-97920038D02*
X129661027Y-97872419D01*
X129661027Y-97872419D02*
X129899122Y-97872419D01*
X129899122Y-97872419D02*
X129994360Y-97920038D01*
X129994360Y-97920038D02*
X130041979Y-97967657D01*
X130041979Y-97967657D02*
X130089598Y-98062895D01*
X130089598Y-98062895D02*
X130089598Y-98158133D01*
X130089598Y-98158133D02*
X130041979Y-98300990D01*
X130041979Y-98300990D02*
X129470551Y-98872419D01*
X129470551Y-98872419D02*
X130089598Y-98872419D01*
X131708646Y-98872419D02*
X131708646Y-98348609D01*
X131708646Y-98348609D02*
X131661027Y-98253371D01*
X131661027Y-98253371D02*
X131565789Y-98205752D01*
X131565789Y-98205752D02*
X131375313Y-98205752D01*
X131375313Y-98205752D02*
X131280075Y-98253371D01*
X131708646Y-98824800D02*
X131613408Y-98872419D01*
X131613408Y-98872419D02*
X131375313Y-98872419D01*
X131375313Y-98872419D02*
X131280075Y-98824800D01*
X131280075Y-98824800D02*
X131232456Y-98729561D01*
X131232456Y-98729561D02*
X131232456Y-98634323D01*
X131232456Y-98634323D02*
X131280075Y-98539085D01*
X131280075Y-98539085D02*
X131375313Y-98491466D01*
X131375313Y-98491466D02*
X131613408Y-98491466D01*
X131613408Y-98491466D02*
X131708646Y-98443847D01*
X132613408Y-98872419D02*
X132613408Y-97872419D01*
X132613408Y-98824800D02*
X132518170Y-98872419D01*
X132518170Y-98872419D02*
X132327694Y-98872419D01*
X132327694Y-98872419D02*
X132232456Y-98824800D01*
X132232456Y-98824800D02*
X132184837Y-98777180D01*
X132184837Y-98777180D02*
X132137218Y-98681942D01*
X132137218Y-98681942D02*
X132137218Y-98396228D01*
X132137218Y-98396228D02*
X132184837Y-98300990D01*
X132184837Y-98300990D02*
X132232456Y-98253371D01*
X132232456Y-98253371D02*
X132327694Y-98205752D01*
X132327694Y-98205752D02*
X132518170Y-98205752D01*
X132518170Y-98205752D02*
X132613408Y-98253371D01*
X133518170Y-98872419D02*
X133518170Y-98348609D01*
X133518170Y-98348609D02*
X133470551Y-98253371D01*
X133470551Y-98253371D02*
X133375313Y-98205752D01*
X133375313Y-98205752D02*
X133184837Y-98205752D01*
X133184837Y-98205752D02*
X133089599Y-98253371D01*
X133518170Y-98824800D02*
X133422932Y-98872419D01*
X133422932Y-98872419D02*
X133184837Y-98872419D01*
X133184837Y-98872419D02*
X133089599Y-98824800D01*
X133089599Y-98824800D02*
X133041980Y-98729561D01*
X133041980Y-98729561D02*
X133041980Y-98634323D01*
X133041980Y-98634323D02*
X133089599Y-98539085D01*
X133089599Y-98539085D02*
X133184837Y-98491466D01*
X133184837Y-98491466D02*
X133422932Y-98491466D01*
X133422932Y-98491466D02*
X133518170Y-98443847D01*
X133994361Y-98205752D02*
X133994361Y-99205752D01*
X133994361Y-98253371D02*
X134089599Y-98205752D01*
X134089599Y-98205752D02*
X134280075Y-98205752D01*
X134280075Y-98205752D02*
X134375313Y-98253371D01*
X134375313Y-98253371D02*
X134422932Y-98300990D01*
X134422932Y-98300990D02*
X134470551Y-98396228D01*
X134470551Y-98396228D02*
X134470551Y-98681942D01*
X134470551Y-98681942D02*
X134422932Y-98777180D01*
X134422932Y-98777180D02*
X134375313Y-98824800D01*
X134375313Y-98824800D02*
X134280075Y-98872419D01*
X134280075Y-98872419D02*
X134089599Y-98872419D01*
X134089599Y-98872419D02*
X133994361Y-98824800D01*
X134756266Y-98205752D02*
X135137218Y-98205752D01*
X134899123Y-97872419D02*
X134899123Y-98729561D01*
X134899123Y-98729561D02*
X134946742Y-98824800D01*
X134946742Y-98824800D02*
X135041980Y-98872419D01*
X135041980Y-98872419D02*
X135137218Y-98872419D01*
X135851504Y-98824800D02*
X135756266Y-98872419D01*
X135756266Y-98872419D02*
X135565790Y-98872419D01*
X135565790Y-98872419D02*
X135470552Y-98824800D01*
X135470552Y-98824800D02*
X135422933Y-98729561D01*
X135422933Y-98729561D02*
X135422933Y-98348609D01*
X135422933Y-98348609D02*
X135470552Y-98253371D01*
X135470552Y-98253371D02*
X135565790Y-98205752D01*
X135565790Y-98205752D02*
X135756266Y-98205752D01*
X135756266Y-98205752D02*
X135851504Y-98253371D01*
X135851504Y-98253371D02*
X135899123Y-98348609D01*
X135899123Y-98348609D02*
X135899123Y-98443847D01*
X135899123Y-98443847D02*
X135422933Y-98539085D01*
X136327695Y-98872419D02*
X136327695Y-98205752D01*
X136327695Y-98396228D02*
X136375314Y-98300990D01*
X136375314Y-98300990D02*
X136422933Y-98253371D01*
X136422933Y-98253371D02*
X136518171Y-98205752D01*
X136518171Y-98205752D02*
X136613409Y-98205752D01*
X137565791Y-98205752D02*
X137946743Y-98205752D01*
X137708648Y-98872419D02*
X137708648Y-98015276D01*
X137708648Y-98015276D02*
X137756267Y-97920038D01*
X137756267Y-97920038D02*
X137851505Y-97872419D01*
X137851505Y-97872419D02*
X137946743Y-97872419D01*
X138422934Y-98872419D02*
X138327696Y-98824800D01*
X138327696Y-98824800D02*
X138280077Y-98777180D01*
X138280077Y-98777180D02*
X138232458Y-98681942D01*
X138232458Y-98681942D02*
X138232458Y-98396228D01*
X138232458Y-98396228D02*
X138280077Y-98300990D01*
X138280077Y-98300990D02*
X138327696Y-98253371D01*
X138327696Y-98253371D02*
X138422934Y-98205752D01*
X138422934Y-98205752D02*
X138565791Y-98205752D01*
X138565791Y-98205752D02*
X138661029Y-98253371D01*
X138661029Y-98253371D02*
X138708648Y-98300990D01*
X138708648Y-98300990D02*
X138756267Y-98396228D01*
X138756267Y-98396228D02*
X138756267Y-98681942D01*
X138756267Y-98681942D02*
X138708648Y-98777180D01*
X138708648Y-98777180D02*
X138661029Y-98824800D01*
X138661029Y-98824800D02*
X138565791Y-98872419D01*
X138565791Y-98872419D02*
X138422934Y-98872419D01*
X139184839Y-98872419D02*
X139184839Y-98205752D01*
X139184839Y-98396228D02*
X139232458Y-98300990D01*
X139232458Y-98300990D02*
X139280077Y-98253371D01*
X139280077Y-98253371D02*
X139375315Y-98205752D01*
X139375315Y-98205752D02*
X139470553Y-98205752D01*
X140565792Y-98872419D02*
X140565792Y-97872419D01*
X140565792Y-97872419D02*
X140899125Y-98586704D01*
X140899125Y-98586704D02*
X141232458Y-97872419D01*
X141232458Y-97872419D02*
X141232458Y-98872419D01*
X141613411Y-97872419D02*
X142232458Y-97872419D01*
X142232458Y-97872419D02*
X141899125Y-98253371D01*
X141899125Y-98253371D02*
X142041982Y-98253371D01*
X142041982Y-98253371D02*
X142137220Y-98300990D01*
X142137220Y-98300990D02*
X142184839Y-98348609D01*
X142184839Y-98348609D02*
X142232458Y-98443847D01*
X142232458Y-98443847D02*
X142232458Y-98681942D01*
X142232458Y-98681942D02*
X142184839Y-98777180D01*
X142184839Y-98777180D02*
X142137220Y-98824800D01*
X142137220Y-98824800D02*
X142041982Y-98872419D01*
X142041982Y-98872419D02*
X141756268Y-98872419D01*
X141756268Y-98872419D02*
X141661030Y-98824800D01*
X141661030Y-98824800D02*
X141613411Y-98777180D01*
X142851506Y-97872419D02*
X142946744Y-97872419D01*
X142946744Y-97872419D02*
X143041982Y-97920038D01*
X143041982Y-97920038D02*
X143089601Y-97967657D01*
X143089601Y-97967657D02*
X143137220Y-98062895D01*
X143137220Y-98062895D02*
X143184839Y-98253371D01*
X143184839Y-98253371D02*
X143184839Y-98491466D01*
X143184839Y-98491466D02*
X143137220Y-98681942D01*
X143137220Y-98681942D02*
X143089601Y-98777180D01*
X143089601Y-98777180D02*
X143041982Y-98824800D01*
X143041982Y-98824800D02*
X142946744Y-98872419D01*
X142946744Y-98872419D02*
X142851506Y-98872419D01*
X142851506Y-98872419D02*
X142756268Y-98824800D01*
X142756268Y-98824800D02*
X142708649Y-98777180D01*
X142708649Y-98777180D02*
X142661030Y-98681942D01*
X142661030Y-98681942D02*
X142613411Y-98491466D01*
X142613411Y-98491466D02*
X142613411Y-98253371D01*
X142613411Y-98253371D02*
X142661030Y-98062895D01*
X142661030Y-98062895D02*
X142708649Y-97967657D01*
X142708649Y-97967657D02*
X142756268Y-97920038D01*
X142756268Y-97920038D02*
X142851506Y-97872419D01*
X143565792Y-97967657D02*
X143613411Y-97920038D01*
X143613411Y-97920038D02*
X143708649Y-97872419D01*
X143708649Y-97872419D02*
X143946744Y-97872419D01*
X143946744Y-97872419D02*
X144041982Y-97920038D01*
X144041982Y-97920038D02*
X144089601Y-97967657D01*
X144089601Y-97967657D02*
X144137220Y-98062895D01*
X144137220Y-98062895D02*
X144137220Y-98158133D01*
X144137220Y-98158133D02*
X144089601Y-98300990D01*
X144089601Y-98300990D02*
X143518173Y-98872419D01*
X143518173Y-98872419D02*
X144137220Y-98872419D01*
X108854419Y-89135925D02*
X108854419Y-89612115D01*
X108854419Y-89612115D02*
X109330609Y-89659734D01*
X109330609Y-89659734D02*
X109282990Y-89612115D01*
X109282990Y-89612115D02*
X109235371Y-89516877D01*
X109235371Y-89516877D02*
X109235371Y-89278782D01*
X109235371Y-89278782D02*
X109282990Y-89183544D01*
X109282990Y-89183544D02*
X109330609Y-89135925D01*
X109330609Y-89135925D02*
X109425847Y-89088306D01*
X109425847Y-89088306D02*
X109663942Y-89088306D01*
X109663942Y-89088306D02*
X109759180Y-89135925D01*
X109759180Y-89135925D02*
X109806800Y-89183544D01*
X109806800Y-89183544D02*
X109854419Y-89278782D01*
X109854419Y-89278782D02*
X109854419Y-89516877D01*
X109854419Y-89516877D02*
X109806800Y-89612115D01*
X109806800Y-89612115D02*
X109759180Y-89659734D01*
X108854419Y-88802591D02*
X109854419Y-88469258D01*
X109854419Y-88469258D02*
X108854419Y-88135925D01*
D10*
X118883690Y-98558240D02*
X118845595Y-98634430D01*
X118845595Y-98634430D02*
X118845595Y-98748716D01*
X118845595Y-98748716D02*
X118883690Y-98863002D01*
X118883690Y-98863002D02*
X118959880Y-98939192D01*
X118959880Y-98939192D02*
X119036071Y-98977287D01*
X119036071Y-98977287D02*
X119188452Y-99015383D01*
X119188452Y-99015383D02*
X119302738Y-99015383D01*
X119302738Y-99015383D02*
X119455119Y-98977287D01*
X119455119Y-98977287D02*
X119531309Y-98939192D01*
X119531309Y-98939192D02*
X119607500Y-98863002D01*
X119607500Y-98863002D02*
X119645595Y-98748716D01*
X119645595Y-98748716D02*
X119645595Y-98672525D01*
X119645595Y-98672525D02*
X119607500Y-98558240D01*
X119607500Y-98558240D02*
X119569404Y-98520144D01*
X119569404Y-98520144D02*
X119302738Y-98520144D01*
X119302738Y-98520144D02*
X119302738Y-98672525D01*
X119645595Y-98177287D02*
X118845595Y-98177287D01*
X118845595Y-98177287D02*
X119645595Y-97720144D01*
X119645595Y-97720144D02*
X118845595Y-97720144D01*
X119645595Y-97339192D02*
X118845595Y-97339192D01*
X118845595Y-97339192D02*
X118845595Y-97148716D01*
X118845595Y-97148716D02*
X118883690Y-97034430D01*
X118883690Y-97034430D02*
X118959880Y-96958240D01*
X118959880Y-96958240D02*
X119036071Y-96920145D01*
X119036071Y-96920145D02*
X119188452Y-96882049D01*
X119188452Y-96882049D02*
X119302738Y-96882049D01*
X119302738Y-96882049D02*
X119455119Y-96920145D01*
X119455119Y-96920145D02*
X119531309Y-96958240D01*
X119531309Y-96958240D02*
X119607500Y-97034430D01*
X119607500Y-97034430D02*
X119645595Y-97148716D01*
X119645595Y-97148716D02*
X119645595Y-97339192D01*
D11*
X128478646Y-95847228D02*
X128978646Y-97347228D01*
X128978646Y-97347228D02*
X129478646Y-95847228D01*
X130764360Y-97347228D02*
X129907217Y-97347228D01*
X130335788Y-97347228D02*
X130335788Y-95847228D01*
X130335788Y-95847228D02*
X130192931Y-96061514D01*
X130192931Y-96061514D02*
X130050074Y-96204371D01*
X130050074Y-96204371D02*
X129907217Y-96275800D01*
X131407216Y-97204371D02*
X131478645Y-97275800D01*
X131478645Y-97275800D02*
X131407216Y-97347228D01*
X131407216Y-97347228D02*
X131335788Y-97275800D01*
X131335788Y-97275800D02*
X131407216Y-97204371D01*
X131407216Y-97204371D02*
X131407216Y-97347228D01*
X132407217Y-95847228D02*
X132550074Y-95847228D01*
X132550074Y-95847228D02*
X132692931Y-95918657D01*
X132692931Y-95918657D02*
X132764360Y-95990085D01*
X132764360Y-95990085D02*
X132835788Y-96132942D01*
X132835788Y-96132942D02*
X132907217Y-96418657D01*
X132907217Y-96418657D02*
X132907217Y-96775800D01*
X132907217Y-96775800D02*
X132835788Y-97061514D01*
X132835788Y-97061514D02*
X132764360Y-97204371D01*
X132764360Y-97204371D02*
X132692931Y-97275800D01*
X132692931Y-97275800D02*
X132550074Y-97347228D01*
X132550074Y-97347228D02*
X132407217Y-97347228D01*
X132407217Y-97347228D02*
X132264360Y-97275800D01*
X132264360Y-97275800D02*
X132192931Y-97204371D01*
X132192931Y-97204371D02*
X132121502Y-97061514D01*
X132121502Y-97061514D02*
X132050074Y-96775800D01*
X132050074Y-96775800D02*
X132050074Y-96418657D01*
X132050074Y-96418657D02*
X132121502Y-96132942D01*
X132121502Y-96132942D02*
X132192931Y-95990085D01*
X132192931Y-95990085D02*
X132264360Y-95918657D01*
X132264360Y-95918657D02*
X132407217Y-95847228D01*
X134335788Y-97347228D02*
X133478645Y-97347228D01*
X133907216Y-97347228D02*
X133907216Y-95847228D01*
X133907216Y-95847228D02*
X133764359Y-96061514D01*
X133764359Y-96061514D02*
X133621502Y-96204371D01*
X133621502Y-96204371D02*
X133478645Y-96275800D01*
X109854419Y-86500687D02*
X109378228Y-86834020D01*
X109854419Y-87072115D02*
X108854419Y-87072115D01*
X108854419Y-87072115D02*
X108854419Y-86691163D01*
X108854419Y-86691163D02*
X108902038Y-86595925D01*
X108902038Y-86595925D02*
X108949657Y-86548306D01*
X108949657Y-86548306D02*
X109044895Y-86500687D01*
X109044895Y-86500687D02*
X109187752Y-86500687D01*
X109187752Y-86500687D02*
X109282990Y-86548306D01*
X109282990Y-86548306D02*
X109330609Y-86595925D01*
X109330609Y-86595925D02*
X109378228Y-86691163D01*
X109378228Y-86691163D02*
X109378228Y-87072115D01*
X108854419Y-86167353D02*
X109854419Y-85500687D01*
X108854419Y-85500687D02*
X109854419Y-86167353D01*
D10*
X124819404Y-99727287D02*
X124857500Y-99689192D01*
X124857500Y-99689192D02*
X124895595Y-99727287D01*
X124895595Y-99727287D02*
X124857500Y-99765383D01*
X124857500Y-99765383D02*
X124819404Y-99727287D01*
X124819404Y-99727287D02*
X124895595Y-99727287D01*
X124590833Y-99727287D02*
X124133690Y-99765383D01*
X124133690Y-99765383D02*
X124095595Y-99727287D01*
X124095595Y-99727287D02*
X124133690Y-99689192D01*
X124133690Y-99689192D02*
X124590833Y-99727287D01*
X124590833Y-99727287D02*
X124095595Y-99727287D01*
X124895595Y-99346335D02*
X124095595Y-99346335D01*
X124095595Y-99346335D02*
X124667023Y-99079669D01*
X124667023Y-99079669D02*
X124095595Y-98813002D01*
X124095595Y-98813002D02*
X124895595Y-98813002D01*
X124819404Y-97974906D02*
X124857500Y-98013002D01*
X124857500Y-98013002D02*
X124895595Y-98127287D01*
X124895595Y-98127287D02*
X124895595Y-98203478D01*
X124895595Y-98203478D02*
X124857500Y-98317764D01*
X124857500Y-98317764D02*
X124781309Y-98393954D01*
X124781309Y-98393954D02*
X124705119Y-98432049D01*
X124705119Y-98432049D02*
X124552738Y-98470145D01*
X124552738Y-98470145D02*
X124438452Y-98470145D01*
X124438452Y-98470145D02*
X124286071Y-98432049D01*
X124286071Y-98432049D02*
X124209880Y-98393954D01*
X124209880Y-98393954D02*
X124133690Y-98317764D01*
X124133690Y-98317764D02*
X124095595Y-98203478D01*
X124095595Y-98203478D02*
X124095595Y-98127287D01*
X124095595Y-98127287D02*
X124133690Y-98013002D01*
X124133690Y-98013002D02*
X124171785Y-97974906D01*
X124895595Y-97251097D02*
X124895595Y-97632049D01*
X124895595Y-97632049D02*
X124095595Y-97632049D01*
X124895595Y-96527287D02*
X124514642Y-96793954D01*
X124895595Y-96984430D02*
X124095595Y-96984430D01*
X124095595Y-96984430D02*
X124095595Y-96679668D01*
X124095595Y-96679668D02*
X124133690Y-96603478D01*
X124133690Y-96603478D02*
X124171785Y-96565383D01*
X124171785Y-96565383D02*
X124247976Y-96527287D01*
X124247976Y-96527287D02*
X124362261Y-96527287D01*
X124362261Y-96527287D02*
X124438452Y-96565383D01*
X124438452Y-96565383D02*
X124476547Y-96603478D01*
X124476547Y-96603478D02*
X124514642Y-96679668D01*
X124514642Y-96679668D02*
X124514642Y-96984430D01*
D14*
X100800819Y-88483714D02*
X101515104Y-88483714D01*
X101515104Y-88483714D02*
X101657961Y-88531333D01*
X101657961Y-88531333D02*
X101753200Y-88626571D01*
X101753200Y-88626571D02*
X101800819Y-88769428D01*
X101800819Y-88769428D02*
X101800819Y-88864666D01*
X101800819Y-87483714D02*
X101800819Y-88055142D01*
X101800819Y-87769428D02*
X100800819Y-87769428D01*
X100800819Y-87769428D02*
X100943676Y-87864666D01*
X100943676Y-87864666D02*
X101038914Y-87959904D01*
X101038914Y-87959904D02*
X101086533Y-88055142D01*
X100800819Y-86864666D02*
X100800819Y-86769428D01*
X100800819Y-86769428D02*
X100848438Y-86674190D01*
X100848438Y-86674190D02*
X100896057Y-86626571D01*
X100896057Y-86626571D02*
X100991295Y-86578952D01*
X100991295Y-86578952D02*
X101181771Y-86531333D01*
X101181771Y-86531333D02*
X101419866Y-86531333D01*
X101419866Y-86531333D02*
X101610342Y-86578952D01*
X101610342Y-86578952D02*
X101705580Y-86626571D01*
X101705580Y-86626571D02*
X101753200Y-86674190D01*
X101753200Y-86674190D02*
X101800819Y-86769428D01*
X101800819Y-86769428D02*
X101800819Y-86864666D01*
X101800819Y-86864666D02*
X101753200Y-86959904D01*
X101753200Y-86959904D02*
X101705580Y-87007523D01*
X101705580Y-87007523D02*
X101610342Y-87055142D01*
X101610342Y-87055142D02*
X101419866Y-87102761D01*
X101419866Y-87102761D02*
X101181771Y-87102761D01*
X101181771Y-87102761D02*
X100991295Y-87055142D01*
X100991295Y-87055142D02*
X100896057Y-87007523D01*
X100896057Y-87007523D02*
X100848438Y-86959904D01*
X100848438Y-86959904D02*
X100800819Y-86864666D01*
X101800819Y-85578952D02*
X101800819Y-86150380D01*
X101800819Y-85864666D02*
X100800819Y-85864666D01*
X100800819Y-85864666D02*
X100943676Y-85959904D01*
X100943676Y-85959904D02*
X101038914Y-86055142D01*
X101038914Y-86055142D02*
X101086533Y-86150380D01*
X100800819Y-82951237D02*
X101610342Y-82951237D01*
X101610342Y-82951237D02*
X101705580Y-82903618D01*
X101705580Y-82903618D02*
X101753200Y-82855999D01*
X101753200Y-82855999D02*
X101800819Y-82760761D01*
X101800819Y-82760761D02*
X101800819Y-82570285D01*
X101800819Y-82570285D02*
X101753200Y-82475047D01*
X101753200Y-82475047D02*
X101705580Y-82427428D01*
X101705580Y-82427428D02*
X101610342Y-82379809D01*
X101610342Y-82379809D02*
X100800819Y-82379809D01*
X101515104Y-81951237D02*
X101515104Y-81475047D01*
X101800819Y-82046475D02*
X100800819Y-81713142D01*
X100800819Y-81713142D02*
X101800819Y-81379809D01*
X101800819Y-80475047D02*
X101324628Y-80808380D01*
X101800819Y-81046475D02*
X100800819Y-81046475D01*
X100800819Y-81046475D02*
X100800819Y-80665523D01*
X100800819Y-80665523D02*
X100848438Y-80570285D01*
X100848438Y-80570285D02*
X100896057Y-80522666D01*
X100896057Y-80522666D02*
X100991295Y-80475047D01*
X100991295Y-80475047D02*
X101134152Y-80475047D01*
X101134152Y-80475047D02*
X101229390Y-80522666D01*
X101229390Y-80522666D02*
X101277009Y-80570285D01*
X101277009Y-80570285D02*
X101324628Y-80665523D01*
X101324628Y-80665523D02*
X101324628Y-81046475D01*
X100800819Y-80189332D02*
X100800819Y-79617904D01*
X101800819Y-79903618D02*
X100800819Y-79903618D01*
X136880952Y-67204819D02*
X136547619Y-66728628D01*
X136309524Y-67204819D02*
X136309524Y-66204819D01*
X136309524Y-66204819D02*
X136690476Y-66204819D01*
X136690476Y-66204819D02*
X136785714Y-66252438D01*
X136785714Y-66252438D02*
X136833333Y-66300057D01*
X136833333Y-66300057D02*
X136880952Y-66395295D01*
X136880952Y-66395295D02*
X136880952Y-66538152D01*
X136880952Y-66538152D02*
X136833333Y-66633390D01*
X136833333Y-66633390D02*
X136785714Y-66681009D01*
X136785714Y-66681009D02*
X136690476Y-66728628D01*
X136690476Y-66728628D02*
X136309524Y-66728628D01*
X137833333Y-67204819D02*
X137261905Y-67204819D01*
X137547619Y-67204819D02*
X137547619Y-66204819D01*
X137547619Y-66204819D02*
X137452381Y-66347676D01*
X137452381Y-66347676D02*
X137357143Y-66442914D01*
X137357143Y-66442914D02*
X137261905Y-66490533D01*
X138452381Y-66204819D02*
X138547619Y-66204819D01*
X138547619Y-66204819D02*
X138642857Y-66252438D01*
X138642857Y-66252438D02*
X138690476Y-66300057D01*
X138690476Y-66300057D02*
X138738095Y-66395295D01*
X138738095Y-66395295D02*
X138785714Y-66585771D01*
X138785714Y-66585771D02*
X138785714Y-66823866D01*
X138785714Y-66823866D02*
X138738095Y-67014342D01*
X138738095Y-67014342D02*
X138690476Y-67109580D01*
X138690476Y-67109580D02*
X138642857Y-67157200D01*
X138642857Y-67157200D02*
X138547619Y-67204819D01*
X138547619Y-67204819D02*
X138452381Y-67204819D01*
X138452381Y-67204819D02*
X138357143Y-67157200D01*
X138357143Y-67157200D02*
X138309524Y-67109580D01*
X138309524Y-67109580D02*
X138261905Y-67014342D01*
X138261905Y-67014342D02*
X138214286Y-66823866D01*
X138214286Y-66823866D02*
X138214286Y-66585771D01*
X138214286Y-66585771D02*
X138261905Y-66395295D01*
X138261905Y-66395295D02*
X138309524Y-66300057D01*
X138309524Y-66300057D02*
X138357143Y-66252438D01*
X138357143Y-66252438D02*
X138452381Y-66204819D01*
X139738095Y-67204819D02*
X139166667Y-67204819D01*
X139452381Y-67204819D02*
X139452381Y-66204819D01*
X139452381Y-66204819D02*
X139357143Y-66347676D01*
X139357143Y-66347676D02*
X139261905Y-66442914D01*
X139261905Y-66442914D02*
X139166667Y-66490533D01*
X136074819Y-73283238D02*
X136074819Y-73854666D01*
X136074819Y-73568952D02*
X135074819Y-73568952D01*
X135074819Y-73568952D02*
X135217676Y-73664190D01*
X135217676Y-73664190D02*
X135312914Y-73759428D01*
X135312914Y-73759428D02*
X135360533Y-73854666D01*
X135074819Y-72664190D02*
X135074819Y-72568952D01*
X135074819Y-72568952D02*
X135122438Y-72473714D01*
X135122438Y-72473714D02*
X135170057Y-72426095D01*
X135170057Y-72426095D02*
X135265295Y-72378476D01*
X135265295Y-72378476D02*
X135455771Y-72330857D01*
X135455771Y-72330857D02*
X135693866Y-72330857D01*
X135693866Y-72330857D02*
X135884342Y-72378476D01*
X135884342Y-72378476D02*
X135979580Y-72426095D01*
X135979580Y-72426095D02*
X136027200Y-72473714D01*
X136027200Y-72473714D02*
X136074819Y-72568952D01*
X136074819Y-72568952D02*
X136074819Y-72664190D01*
X136074819Y-72664190D02*
X136027200Y-72759428D01*
X136027200Y-72759428D02*
X135979580Y-72807047D01*
X135979580Y-72807047D02*
X135884342Y-72854666D01*
X135884342Y-72854666D02*
X135693866Y-72902285D01*
X135693866Y-72902285D02*
X135455771Y-72902285D01*
X135455771Y-72902285D02*
X135265295Y-72854666D01*
X135265295Y-72854666D02*
X135170057Y-72807047D01*
X135170057Y-72807047D02*
X135122438Y-72759428D01*
X135122438Y-72759428D02*
X135074819Y-72664190D01*
X136074819Y-71902285D02*
X135074819Y-71902285D01*
X135693866Y-71807047D02*
X136074819Y-71521333D01*
X135408152Y-71521333D02*
X135789104Y-71902285D01*
X130198952Y-86465580D02*
X130151333Y-86513200D01*
X130151333Y-86513200D02*
X130008476Y-86560819D01*
X130008476Y-86560819D02*
X129913238Y-86560819D01*
X129913238Y-86560819D02*
X129770381Y-86513200D01*
X129770381Y-86513200D02*
X129675143Y-86417961D01*
X129675143Y-86417961D02*
X129627524Y-86322723D01*
X129627524Y-86322723D02*
X129579905Y-86132247D01*
X129579905Y-86132247D02*
X129579905Y-85989390D01*
X129579905Y-85989390D02*
X129627524Y-85798914D01*
X129627524Y-85798914D02*
X129675143Y-85703676D01*
X129675143Y-85703676D02*
X129770381Y-85608438D01*
X129770381Y-85608438D02*
X129913238Y-85560819D01*
X129913238Y-85560819D02*
X130008476Y-85560819D01*
X130008476Y-85560819D02*
X130151333Y-85608438D01*
X130151333Y-85608438D02*
X130198952Y-85656057D01*
X131151333Y-86560819D02*
X130579905Y-86560819D01*
X130865619Y-86560819D02*
X130865619Y-85560819D01*
X130865619Y-85560819D02*
X130770381Y-85703676D01*
X130770381Y-85703676D02*
X130675143Y-85798914D01*
X130675143Y-85798914D02*
X130579905Y-85846533D01*
X131770381Y-85560819D02*
X131865619Y-85560819D01*
X131865619Y-85560819D02*
X131960857Y-85608438D01*
X131960857Y-85608438D02*
X132008476Y-85656057D01*
X132008476Y-85656057D02*
X132056095Y-85751295D01*
X132056095Y-85751295D02*
X132103714Y-85941771D01*
X132103714Y-85941771D02*
X132103714Y-86179866D01*
X132103714Y-86179866D02*
X132056095Y-86370342D01*
X132056095Y-86370342D02*
X132008476Y-86465580D01*
X132008476Y-86465580D02*
X131960857Y-86513200D01*
X131960857Y-86513200D02*
X131865619Y-86560819D01*
X131865619Y-86560819D02*
X131770381Y-86560819D01*
X131770381Y-86560819D02*
X131675143Y-86513200D01*
X131675143Y-86513200D02*
X131627524Y-86465580D01*
X131627524Y-86465580D02*
X131579905Y-86370342D01*
X131579905Y-86370342D02*
X131532286Y-86179866D01*
X131532286Y-86179866D02*
X131532286Y-85941771D01*
X131532286Y-85941771D02*
X131579905Y-85751295D01*
X131579905Y-85751295D02*
X131627524Y-85656057D01*
X131627524Y-85656057D02*
X131675143Y-85608438D01*
X131675143Y-85608438D02*
X131770381Y-85560819D01*
X132484667Y-85656057D02*
X132532286Y-85608438D01*
X132532286Y-85608438D02*
X132627524Y-85560819D01*
X132627524Y-85560819D02*
X132865619Y-85560819D01*
X132865619Y-85560819D02*
X132960857Y-85608438D01*
X132960857Y-85608438D02*
X133008476Y-85656057D01*
X133008476Y-85656057D02*
X133056095Y-85751295D01*
X133056095Y-85751295D02*
X133056095Y-85846533D01*
X133056095Y-85846533D02*
X133008476Y-85989390D01*
X133008476Y-85989390D02*
X132437048Y-86560819D01*
X132437048Y-86560819D02*
X133056095Y-86560819D01*
X132550057Y-84954856D02*
X132502438Y-84907237D01*
X132502438Y-84907237D02*
X132454819Y-84811999D01*
X132454819Y-84811999D02*
X132454819Y-84573904D01*
X132454819Y-84573904D02*
X132502438Y-84478666D01*
X132502438Y-84478666D02*
X132550057Y-84431047D01*
X132550057Y-84431047D02*
X132645295Y-84383428D01*
X132645295Y-84383428D02*
X132740533Y-84383428D01*
X132740533Y-84383428D02*
X132883390Y-84431047D01*
X132883390Y-84431047D02*
X133454819Y-85002475D01*
X133454819Y-85002475D02*
X133454819Y-84383428D01*
X132550057Y-84002475D02*
X132502438Y-83954856D01*
X132502438Y-83954856D02*
X132454819Y-83859618D01*
X132454819Y-83859618D02*
X132454819Y-83621523D01*
X132454819Y-83621523D02*
X132502438Y-83526285D01*
X132502438Y-83526285D02*
X132550057Y-83478666D01*
X132550057Y-83478666D02*
X132645295Y-83431047D01*
X132645295Y-83431047D02*
X132740533Y-83431047D01*
X132740533Y-83431047D02*
X132883390Y-83478666D01*
X132883390Y-83478666D02*
X133454819Y-84050094D01*
X133454819Y-84050094D02*
X133454819Y-83431047D01*
X132788152Y-83002475D02*
X133788152Y-83002475D01*
X132835771Y-83002475D02*
X132788152Y-82907237D01*
X132788152Y-82907237D02*
X132788152Y-82716761D01*
X132788152Y-82716761D02*
X132835771Y-82621523D01*
X132835771Y-82621523D02*
X132883390Y-82573904D01*
X132883390Y-82573904D02*
X132978628Y-82526285D01*
X132978628Y-82526285D02*
X133264342Y-82526285D01*
X133264342Y-82526285D02*
X133359580Y-82573904D01*
X133359580Y-82573904D02*
X133407200Y-82621523D01*
X133407200Y-82621523D02*
X133454819Y-82716761D01*
X133454819Y-82716761D02*
X133454819Y-82907237D01*
X133454819Y-82907237D02*
X133407200Y-83002475D01*
X132931009Y-81764380D02*
X132931009Y-82097713D01*
X133454819Y-82097713D02*
X132454819Y-82097713D01*
X132454819Y-82097713D02*
X132454819Y-81621523D01*
X103714286Y-70407200D02*
X103857143Y-70454819D01*
X103857143Y-70454819D02*
X104095238Y-70454819D01*
X104095238Y-70454819D02*
X104190476Y-70407200D01*
X104190476Y-70407200D02*
X104238095Y-70359580D01*
X104238095Y-70359580D02*
X104285714Y-70264342D01*
X104285714Y-70264342D02*
X104285714Y-70169104D01*
X104285714Y-70169104D02*
X104238095Y-70073866D01*
X104238095Y-70073866D02*
X104190476Y-70026247D01*
X104190476Y-70026247D02*
X104095238Y-69978628D01*
X104095238Y-69978628D02*
X103904762Y-69931009D01*
X103904762Y-69931009D02*
X103809524Y-69883390D01*
X103809524Y-69883390D02*
X103761905Y-69835771D01*
X103761905Y-69835771D02*
X103714286Y-69740533D01*
X103714286Y-69740533D02*
X103714286Y-69645295D01*
X103714286Y-69645295D02*
X103761905Y-69550057D01*
X103761905Y-69550057D02*
X103809524Y-69502438D01*
X103809524Y-69502438D02*
X103904762Y-69454819D01*
X103904762Y-69454819D02*
X104142857Y-69454819D01*
X104142857Y-69454819D02*
X104285714Y-69502438D01*
X104619048Y-69454819D02*
X104857143Y-70454819D01*
X104857143Y-70454819D02*
X105047619Y-69740533D01*
X105047619Y-69740533D02*
X105238095Y-70454819D01*
X105238095Y-70454819D02*
X105476191Y-69454819D01*
X106380952Y-70454819D02*
X105809524Y-70454819D01*
X106095238Y-70454819D02*
X106095238Y-69454819D01*
X106095238Y-69454819D02*
X106000000Y-69597676D01*
X106000000Y-69597676D02*
X105904762Y-69692914D01*
X105904762Y-69692914D02*
X105809524Y-69740533D01*
X107000000Y-69454819D02*
X107095238Y-69454819D01*
X107095238Y-69454819D02*
X107190476Y-69502438D01*
X107190476Y-69502438D02*
X107238095Y-69550057D01*
X107238095Y-69550057D02*
X107285714Y-69645295D01*
X107285714Y-69645295D02*
X107333333Y-69835771D01*
X107333333Y-69835771D02*
X107333333Y-70073866D01*
X107333333Y-70073866D02*
X107285714Y-70264342D01*
X107285714Y-70264342D02*
X107238095Y-70359580D01*
X107238095Y-70359580D02*
X107190476Y-70407200D01*
X107190476Y-70407200D02*
X107095238Y-70454819D01*
X107095238Y-70454819D02*
X107000000Y-70454819D01*
X107000000Y-70454819D02*
X106904762Y-70407200D01*
X106904762Y-70407200D02*
X106857143Y-70359580D01*
X106857143Y-70359580D02*
X106809524Y-70264342D01*
X106809524Y-70264342D02*
X106761905Y-70073866D01*
X106761905Y-70073866D02*
X106761905Y-69835771D01*
X106761905Y-69835771D02*
X106809524Y-69645295D01*
X106809524Y-69645295D02*
X106857143Y-69550057D01*
X106857143Y-69550057D02*
X106904762Y-69502438D01*
X106904762Y-69502438D02*
X107000000Y-69454819D01*
X108285714Y-70454819D02*
X107714286Y-70454819D01*
X108000000Y-70454819D02*
X108000000Y-69454819D01*
X108000000Y-69454819D02*
X107904762Y-69597676D01*
X107904762Y-69597676D02*
X107809524Y-69692914D01*
X107809524Y-69692914D02*
X107714286Y-69740533D01*
X103767810Y-78083580D02*
X103815429Y-78131200D01*
X103815429Y-78131200D02*
X103767810Y-78178819D01*
X103767810Y-78178819D02*
X103720191Y-78131200D01*
X103720191Y-78131200D02*
X103767810Y-78083580D01*
X103767810Y-78083580D02*
X103767810Y-78178819D01*
X103767810Y-77797866D02*
X103720191Y-77226438D01*
X103720191Y-77226438D02*
X103767810Y-77178819D01*
X103767810Y-77178819D02*
X103815429Y-77226438D01*
X103815429Y-77226438D02*
X103767810Y-77797866D01*
X103767810Y-77797866D02*
X103767810Y-77178819D01*
X104244000Y-78178819D02*
X104244000Y-77178819D01*
X104244000Y-77178819D02*
X104577333Y-77893104D01*
X104577333Y-77893104D02*
X104910666Y-77178819D01*
X104910666Y-77178819D02*
X104910666Y-78178819D01*
X105958285Y-78083580D02*
X105910666Y-78131200D01*
X105910666Y-78131200D02*
X105767809Y-78178819D01*
X105767809Y-78178819D02*
X105672571Y-78178819D01*
X105672571Y-78178819D02*
X105529714Y-78131200D01*
X105529714Y-78131200D02*
X105434476Y-78035961D01*
X105434476Y-78035961D02*
X105386857Y-77940723D01*
X105386857Y-77940723D02*
X105339238Y-77750247D01*
X105339238Y-77750247D02*
X105339238Y-77607390D01*
X105339238Y-77607390D02*
X105386857Y-77416914D01*
X105386857Y-77416914D02*
X105434476Y-77321676D01*
X105434476Y-77321676D02*
X105529714Y-77226438D01*
X105529714Y-77226438D02*
X105672571Y-77178819D01*
X105672571Y-77178819D02*
X105767809Y-77178819D01*
X105767809Y-77178819D02*
X105910666Y-77226438D01*
X105910666Y-77226438D02*
X105958285Y-77274057D01*
X106863047Y-78178819D02*
X106386857Y-78178819D01*
X106386857Y-78178819D02*
X106386857Y-77178819D01*
X107767809Y-78178819D02*
X107434476Y-77702628D01*
X107196381Y-78178819D02*
X107196381Y-77178819D01*
X107196381Y-77178819D02*
X107577333Y-77178819D01*
X107577333Y-77178819D02*
X107672571Y-77226438D01*
X107672571Y-77226438D02*
X107720190Y-77274057D01*
X107720190Y-77274057D02*
X107767809Y-77369295D01*
X107767809Y-77369295D02*
X107767809Y-77512152D01*
X107767809Y-77512152D02*
X107720190Y-77607390D01*
X107720190Y-77607390D02*
X107672571Y-77655009D01*
X107672571Y-77655009D02*
X107577333Y-77702628D01*
X107577333Y-77702628D02*
X107196381Y-77702628D01*
X138707952Y-88973819D02*
X138374619Y-88497628D01*
X138136524Y-88973819D02*
X138136524Y-87973819D01*
X138136524Y-87973819D02*
X138517476Y-87973819D01*
X138517476Y-87973819D02*
X138612714Y-88021438D01*
X138612714Y-88021438D02*
X138660333Y-88069057D01*
X138660333Y-88069057D02*
X138707952Y-88164295D01*
X138707952Y-88164295D02*
X138707952Y-88307152D01*
X138707952Y-88307152D02*
X138660333Y-88402390D01*
X138660333Y-88402390D02*
X138612714Y-88450009D01*
X138612714Y-88450009D02*
X138517476Y-88497628D01*
X138517476Y-88497628D02*
X138136524Y-88497628D01*
X139660333Y-88973819D02*
X139088905Y-88973819D01*
X139374619Y-88973819D02*
X139374619Y-87973819D01*
X139374619Y-87973819D02*
X139279381Y-88116676D01*
X139279381Y-88116676D02*
X139184143Y-88211914D01*
X139184143Y-88211914D02*
X139088905Y-88259533D01*
X140279381Y-87973819D02*
X140374619Y-87973819D01*
X140374619Y-87973819D02*
X140469857Y-88021438D01*
X140469857Y-88021438D02*
X140517476Y-88069057D01*
X140517476Y-88069057D02*
X140565095Y-88164295D01*
X140565095Y-88164295D02*
X140612714Y-88354771D01*
X140612714Y-88354771D02*
X140612714Y-88592866D01*
X140612714Y-88592866D02*
X140565095Y-88783342D01*
X140565095Y-88783342D02*
X140517476Y-88878580D01*
X140517476Y-88878580D02*
X140469857Y-88926200D01*
X140469857Y-88926200D02*
X140374619Y-88973819D01*
X140374619Y-88973819D02*
X140279381Y-88973819D01*
X140279381Y-88973819D02*
X140184143Y-88926200D01*
X140184143Y-88926200D02*
X140136524Y-88878580D01*
X140136524Y-88878580D02*
X140088905Y-88783342D01*
X140088905Y-88783342D02*
X140041286Y-88592866D01*
X140041286Y-88592866D02*
X140041286Y-88354771D01*
X140041286Y-88354771D02*
X140088905Y-88164295D01*
X140088905Y-88164295D02*
X140136524Y-88069057D01*
X140136524Y-88069057D02*
X140184143Y-88021438D01*
X140184143Y-88021438D02*
X140279381Y-87973819D01*
X141469857Y-88307152D02*
X141469857Y-88973819D01*
X141231762Y-87926200D02*
X140993667Y-88640485D01*
X140993667Y-88640485D02*
X141612714Y-88640485D01*
X139697619Y-83773828D02*
X139697619Y-84345256D01*
X139697619Y-84059542D02*
X138697619Y-84059542D01*
X138697619Y-84059542D02*
X138840476Y-84154780D01*
X138840476Y-84154780D02*
X138935714Y-84250018D01*
X138935714Y-84250018D02*
X138983333Y-84345256D01*
X138697619Y-83154780D02*
X138697619Y-83059542D01*
X138697619Y-83059542D02*
X138745238Y-82964304D01*
X138745238Y-82964304D02*
X138792857Y-82916685D01*
X138792857Y-82916685D02*
X138888095Y-82869066D01*
X138888095Y-82869066D02*
X139078571Y-82821447D01*
X139078571Y-82821447D02*
X139316666Y-82821447D01*
X139316666Y-82821447D02*
X139507142Y-82869066D01*
X139507142Y-82869066D02*
X139602380Y-82916685D01*
X139602380Y-82916685D02*
X139650000Y-82964304D01*
X139650000Y-82964304D02*
X139697619Y-83059542D01*
X139697619Y-83059542D02*
X139697619Y-83154780D01*
X139697619Y-83154780D02*
X139650000Y-83250018D01*
X139650000Y-83250018D02*
X139602380Y-83297637D01*
X139602380Y-83297637D02*
X139507142Y-83345256D01*
X139507142Y-83345256D02*
X139316666Y-83392875D01*
X139316666Y-83392875D02*
X139078571Y-83392875D01*
X139078571Y-83392875D02*
X138888095Y-83345256D01*
X138888095Y-83345256D02*
X138792857Y-83297637D01*
X138792857Y-83297637D02*
X138745238Y-83250018D01*
X138745238Y-83250018D02*
X138697619Y-83154780D01*
X138697619Y-82202399D02*
X138697619Y-82107161D01*
X138697619Y-82107161D02*
X138745238Y-82011923D01*
X138745238Y-82011923D02*
X138792857Y-81964304D01*
X138792857Y-81964304D02*
X138888095Y-81916685D01*
X138888095Y-81916685D02*
X139078571Y-81869066D01*
X139078571Y-81869066D02*
X139316666Y-81869066D01*
X139316666Y-81869066D02*
X139507142Y-81916685D01*
X139507142Y-81916685D02*
X139602380Y-81964304D01*
X139602380Y-81964304D02*
X139650000Y-82011923D01*
X139650000Y-82011923D02*
X139697619Y-82107161D01*
X139697619Y-82107161D02*
X139697619Y-82202399D01*
X139697619Y-82202399D02*
X139650000Y-82297637D01*
X139650000Y-82297637D02*
X139602380Y-82345256D01*
X139602380Y-82345256D02*
X139507142Y-82392875D01*
X139507142Y-82392875D02*
X139316666Y-82440494D01*
X139316666Y-82440494D02*
X139078571Y-82440494D01*
X139078571Y-82440494D02*
X138888095Y-82392875D01*
X138888095Y-82392875D02*
X138792857Y-82345256D01*
X138792857Y-82345256D02*
X138745238Y-82297637D01*
X138745238Y-82297637D02*
X138697619Y-82202399D01*
X139697619Y-81440494D02*
X138697619Y-81440494D01*
X139316666Y-81345256D02*
X139697619Y-81059542D01*
X139030952Y-81059542D02*
X139411904Y-81440494D01*
X127880952Y-91242219D02*
X127547619Y-90766028D01*
X127309524Y-91242219D02*
X127309524Y-90242219D01*
X127309524Y-90242219D02*
X127690476Y-90242219D01*
X127690476Y-90242219D02*
X127785714Y-90289838D01*
X127785714Y-90289838D02*
X127833333Y-90337457D01*
X127833333Y-90337457D02*
X127880952Y-90432695D01*
X127880952Y-90432695D02*
X127880952Y-90575552D01*
X127880952Y-90575552D02*
X127833333Y-90670790D01*
X127833333Y-90670790D02*
X127785714Y-90718409D01*
X127785714Y-90718409D02*
X127690476Y-90766028D01*
X127690476Y-90766028D02*
X127309524Y-90766028D01*
X128833333Y-91242219D02*
X128261905Y-91242219D01*
X128547619Y-91242219D02*
X128547619Y-90242219D01*
X128547619Y-90242219D02*
X128452381Y-90385076D01*
X128452381Y-90385076D02*
X128357143Y-90480314D01*
X128357143Y-90480314D02*
X128261905Y-90527933D01*
X129452381Y-90242219D02*
X129547619Y-90242219D01*
X129547619Y-90242219D02*
X129642857Y-90289838D01*
X129642857Y-90289838D02*
X129690476Y-90337457D01*
X129690476Y-90337457D02*
X129738095Y-90432695D01*
X129738095Y-90432695D02*
X129785714Y-90623171D01*
X129785714Y-90623171D02*
X129785714Y-90861266D01*
X129785714Y-90861266D02*
X129738095Y-91051742D01*
X129738095Y-91051742D02*
X129690476Y-91146980D01*
X129690476Y-91146980D02*
X129642857Y-91194600D01*
X129642857Y-91194600D02*
X129547619Y-91242219D01*
X129547619Y-91242219D02*
X129452381Y-91242219D01*
X129452381Y-91242219D02*
X129357143Y-91194600D01*
X129357143Y-91194600D02*
X129309524Y-91146980D01*
X129309524Y-91146980D02*
X129261905Y-91051742D01*
X129261905Y-91051742D02*
X129214286Y-90861266D01*
X129214286Y-90861266D02*
X129214286Y-90623171D01*
X129214286Y-90623171D02*
X129261905Y-90432695D01*
X129261905Y-90432695D02*
X129309524Y-90337457D01*
X129309524Y-90337457D02*
X129357143Y-90289838D01*
X129357143Y-90289838D02*
X129452381Y-90242219D01*
X130690476Y-90242219D02*
X130214286Y-90242219D01*
X130214286Y-90242219D02*
X130166667Y-90718409D01*
X130166667Y-90718409D02*
X130214286Y-90670790D01*
X130214286Y-90670790D02*
X130309524Y-90623171D01*
X130309524Y-90623171D02*
X130547619Y-90623171D01*
X130547619Y-90623171D02*
X130642857Y-90670790D01*
X130642857Y-90670790D02*
X130690476Y-90718409D01*
X130690476Y-90718409D02*
X130738095Y-90813647D01*
X130738095Y-90813647D02*
X130738095Y-91051742D01*
X130738095Y-91051742D02*
X130690476Y-91146980D01*
X130690476Y-91146980D02*
X130642857Y-91194600D01*
X130642857Y-91194600D02*
X130547619Y-91242219D01*
X130547619Y-91242219D02*
X130309524Y-91242219D01*
X130309524Y-91242219D02*
X130214286Y-91194600D01*
X130214286Y-91194600D02*
X130166667Y-91146980D01*
X128404761Y-88872219D02*
X127833333Y-88872219D01*
X128119047Y-88872219D02*
X128119047Y-87872219D01*
X128119047Y-87872219D02*
X128023809Y-88015076D01*
X128023809Y-88015076D02*
X127928571Y-88110314D01*
X127928571Y-88110314D02*
X127833333Y-88157933D01*
X129023809Y-87872219D02*
X129119047Y-87872219D01*
X129119047Y-87872219D02*
X129214285Y-87919838D01*
X129214285Y-87919838D02*
X129261904Y-87967457D01*
X129261904Y-87967457D02*
X129309523Y-88062695D01*
X129309523Y-88062695D02*
X129357142Y-88253171D01*
X129357142Y-88253171D02*
X129357142Y-88491266D01*
X129357142Y-88491266D02*
X129309523Y-88681742D01*
X129309523Y-88681742D02*
X129261904Y-88776980D01*
X129261904Y-88776980D02*
X129214285Y-88824600D01*
X129214285Y-88824600D02*
X129119047Y-88872219D01*
X129119047Y-88872219D02*
X129023809Y-88872219D01*
X129023809Y-88872219D02*
X128928571Y-88824600D01*
X128928571Y-88824600D02*
X128880952Y-88776980D01*
X128880952Y-88776980D02*
X128833333Y-88681742D01*
X128833333Y-88681742D02*
X128785714Y-88491266D01*
X128785714Y-88491266D02*
X128785714Y-88253171D01*
X128785714Y-88253171D02*
X128833333Y-88062695D01*
X128833333Y-88062695D02*
X128880952Y-87967457D01*
X128880952Y-87967457D02*
X128928571Y-87919838D01*
X128928571Y-87919838D02*
X129023809Y-87872219D01*
X129785714Y-88872219D02*
X129785714Y-87872219D01*
X129880952Y-88491266D02*
X130166666Y-88872219D01*
X130166666Y-88205552D02*
X129785714Y-88586504D01*
X114657429Y-65053819D02*
X114657429Y-64053819D01*
X115705047Y-64958580D02*
X115657428Y-65006200D01*
X115657428Y-65006200D02*
X115514571Y-65053819D01*
X115514571Y-65053819D02*
X115419333Y-65053819D01*
X115419333Y-65053819D02*
X115276476Y-65006200D01*
X115276476Y-65006200D02*
X115181238Y-64910961D01*
X115181238Y-64910961D02*
X115133619Y-64815723D01*
X115133619Y-64815723D02*
X115086000Y-64625247D01*
X115086000Y-64625247D02*
X115086000Y-64482390D01*
X115086000Y-64482390D02*
X115133619Y-64291914D01*
X115133619Y-64291914D02*
X115181238Y-64196676D01*
X115181238Y-64196676D02*
X115276476Y-64101438D01*
X115276476Y-64101438D02*
X115419333Y-64053819D01*
X115419333Y-64053819D02*
X115514571Y-64053819D01*
X115514571Y-64053819D02*
X115657428Y-64101438D01*
X115657428Y-64101438D02*
X115705047Y-64149057D01*
X116657428Y-65053819D02*
X116086000Y-65053819D01*
X116371714Y-65053819D02*
X116371714Y-64053819D01*
X116371714Y-64053819D02*
X116276476Y-64196676D01*
X116276476Y-64196676D02*
X116181238Y-64291914D01*
X116181238Y-64291914D02*
X116086000Y-64339533D01*
X117276476Y-64053819D02*
X117371714Y-64053819D01*
X117371714Y-64053819D02*
X117466952Y-64101438D01*
X117466952Y-64101438D02*
X117514571Y-64149057D01*
X117514571Y-64149057D02*
X117562190Y-64244295D01*
X117562190Y-64244295D02*
X117609809Y-64434771D01*
X117609809Y-64434771D02*
X117609809Y-64672866D01*
X117609809Y-64672866D02*
X117562190Y-64863342D01*
X117562190Y-64863342D02*
X117514571Y-64958580D01*
X117514571Y-64958580D02*
X117466952Y-65006200D01*
X117466952Y-65006200D02*
X117371714Y-65053819D01*
X117371714Y-65053819D02*
X117276476Y-65053819D01*
X117276476Y-65053819D02*
X117181238Y-65006200D01*
X117181238Y-65006200D02*
X117133619Y-64958580D01*
X117133619Y-64958580D02*
X117086000Y-64863342D01*
X117086000Y-64863342D02*
X117038381Y-64672866D01*
X117038381Y-64672866D02*
X117038381Y-64434771D01*
X117038381Y-64434771D02*
X117086000Y-64244295D01*
X117086000Y-64244295D02*
X117133619Y-64149057D01*
X117133619Y-64149057D02*
X117181238Y-64101438D01*
X117181238Y-64101438D02*
X117276476Y-64053819D01*
X118562190Y-65053819D02*
X117990762Y-65053819D01*
X118276476Y-65053819D02*
X118276476Y-64053819D01*
X118276476Y-64053819D02*
X118181238Y-64196676D01*
X118181238Y-64196676D02*
X118086000Y-64291914D01*
X118086000Y-64291914D02*
X117990762Y-64339533D01*
X110419334Y-90033819D02*
X110419334Y-89033819D01*
X110419334Y-89033819D02*
X110800286Y-89033819D01*
X110800286Y-89033819D02*
X110895524Y-89081438D01*
X110895524Y-89081438D02*
X110943143Y-89129057D01*
X110943143Y-89129057D02*
X110990762Y-89224295D01*
X110990762Y-89224295D02*
X110990762Y-89367152D01*
X110990762Y-89367152D02*
X110943143Y-89462390D01*
X110943143Y-89462390D02*
X110895524Y-89510009D01*
X110895524Y-89510009D02*
X110800286Y-89557628D01*
X110800286Y-89557628D02*
X110419334Y-89557628D01*
X111419334Y-90033819D02*
X111419334Y-89033819D01*
X112466952Y-89938580D02*
X112419333Y-89986200D01*
X112419333Y-89986200D02*
X112276476Y-90033819D01*
X112276476Y-90033819D02*
X112181238Y-90033819D01*
X112181238Y-90033819D02*
X112038381Y-89986200D01*
X112038381Y-89986200D02*
X111943143Y-89890961D01*
X111943143Y-89890961D02*
X111895524Y-89795723D01*
X111895524Y-89795723D02*
X111847905Y-89605247D01*
X111847905Y-89605247D02*
X111847905Y-89462390D01*
X111847905Y-89462390D02*
X111895524Y-89271914D01*
X111895524Y-89271914D02*
X111943143Y-89176676D01*
X111943143Y-89176676D02*
X112038381Y-89081438D01*
X112038381Y-89081438D02*
X112181238Y-89033819D01*
X112181238Y-89033819D02*
X112276476Y-89033819D01*
X112276476Y-89033819D02*
X112419333Y-89081438D01*
X112419333Y-89081438D02*
X112466952Y-89129057D01*
X113419333Y-90033819D02*
X112847905Y-90033819D01*
X113133619Y-90033819D02*
X113133619Y-89033819D01*
X113133619Y-89033819D02*
X113038381Y-89176676D01*
X113038381Y-89176676D02*
X112943143Y-89271914D01*
X112943143Y-89271914D02*
X112847905Y-89319533D01*
X114276476Y-89033819D02*
X114086000Y-89033819D01*
X114086000Y-89033819D02*
X113990762Y-89081438D01*
X113990762Y-89081438D02*
X113943143Y-89129057D01*
X113943143Y-89129057D02*
X113847905Y-89271914D01*
X113847905Y-89271914D02*
X113800286Y-89462390D01*
X113800286Y-89462390D02*
X113800286Y-89843342D01*
X113800286Y-89843342D02*
X113847905Y-89938580D01*
X113847905Y-89938580D02*
X113895524Y-89986200D01*
X113895524Y-89986200D02*
X113990762Y-90033819D01*
X113990762Y-90033819D02*
X114181238Y-90033819D01*
X114181238Y-90033819D02*
X114276476Y-89986200D01*
X114276476Y-89986200D02*
X114324095Y-89938580D01*
X114324095Y-89938580D02*
X114371714Y-89843342D01*
X114371714Y-89843342D02*
X114371714Y-89605247D01*
X114371714Y-89605247D02*
X114324095Y-89510009D01*
X114324095Y-89510009D02*
X114276476Y-89462390D01*
X114276476Y-89462390D02*
X114181238Y-89414771D01*
X114181238Y-89414771D02*
X113990762Y-89414771D01*
X113990762Y-89414771D02*
X113895524Y-89462390D01*
X113895524Y-89462390D02*
X113847905Y-89510009D01*
X113847905Y-89510009D02*
X113800286Y-89605247D01*
X115133619Y-89510009D02*
X114800286Y-89510009D01*
X114800286Y-90033819D02*
X114800286Y-89033819D01*
X114800286Y-89033819D02*
X115276476Y-89033819D01*
X116181238Y-90033819D02*
X115609810Y-90033819D01*
X115895524Y-90033819D02*
X115895524Y-89033819D01*
X115895524Y-89033819D02*
X115800286Y-89176676D01*
X115800286Y-89176676D02*
X115705048Y-89271914D01*
X115705048Y-89271914D02*
X115609810Y-89319533D01*
X116752667Y-89462390D02*
X116657429Y-89414771D01*
X116657429Y-89414771D02*
X116609810Y-89367152D01*
X116609810Y-89367152D02*
X116562191Y-89271914D01*
X116562191Y-89271914D02*
X116562191Y-89224295D01*
X116562191Y-89224295D02*
X116609810Y-89129057D01*
X116609810Y-89129057D02*
X116657429Y-89081438D01*
X116657429Y-89081438D02*
X116752667Y-89033819D01*
X116752667Y-89033819D02*
X116943143Y-89033819D01*
X116943143Y-89033819D02*
X117038381Y-89081438D01*
X117038381Y-89081438D02*
X117086000Y-89129057D01*
X117086000Y-89129057D02*
X117133619Y-89224295D01*
X117133619Y-89224295D02*
X117133619Y-89271914D01*
X117133619Y-89271914D02*
X117086000Y-89367152D01*
X117086000Y-89367152D02*
X117038381Y-89414771D01*
X117038381Y-89414771D02*
X116943143Y-89462390D01*
X116943143Y-89462390D02*
X116752667Y-89462390D01*
X116752667Y-89462390D02*
X116657429Y-89510009D01*
X116657429Y-89510009D02*
X116609810Y-89557628D01*
X116609810Y-89557628D02*
X116562191Y-89652866D01*
X116562191Y-89652866D02*
X116562191Y-89843342D01*
X116562191Y-89843342D02*
X116609810Y-89938580D01*
X116609810Y-89938580D02*
X116657429Y-89986200D01*
X116657429Y-89986200D02*
X116752667Y-90033819D01*
X116752667Y-90033819D02*
X116943143Y-90033819D01*
X116943143Y-90033819D02*
X117038381Y-89986200D01*
X117038381Y-89986200D02*
X117086000Y-89938580D01*
X117086000Y-89938580D02*
X117133619Y-89843342D01*
X117133619Y-89843342D02*
X117133619Y-89652866D01*
X117133619Y-89652866D02*
X117086000Y-89557628D01*
X117086000Y-89557628D02*
X117038381Y-89510009D01*
X117038381Y-89510009D02*
X116943143Y-89462390D01*
X117514572Y-89129057D02*
X117562191Y-89081438D01*
X117562191Y-89081438D02*
X117657429Y-89033819D01*
X117657429Y-89033819D02*
X117895524Y-89033819D01*
X117895524Y-89033819D02*
X117990762Y-89081438D01*
X117990762Y-89081438D02*
X118038381Y-89129057D01*
X118038381Y-89129057D02*
X118086000Y-89224295D01*
X118086000Y-89224295D02*
X118086000Y-89319533D01*
X118086000Y-89319533D02*
X118038381Y-89462390D01*
X118038381Y-89462390D02*
X117466953Y-90033819D01*
X117466953Y-90033819D02*
X118086000Y-90033819D01*
X118419334Y-89033819D02*
X119086000Y-89033819D01*
X119086000Y-89033819D02*
X118657429Y-90033819D01*
X119466953Y-89652866D02*
X120228858Y-89652866D01*
X120705048Y-90033819D02*
X120705048Y-89033819D01*
X121895523Y-88986200D02*
X121038381Y-90271914D01*
X122228857Y-90033819D02*
X122228857Y-89033819D01*
X122228857Y-89033819D02*
X122609809Y-89033819D01*
X122609809Y-89033819D02*
X122705047Y-89081438D01*
X122705047Y-89081438D02*
X122752666Y-89129057D01*
X122752666Y-89129057D02*
X122800285Y-89224295D01*
X122800285Y-89224295D02*
X122800285Y-89367152D01*
X122800285Y-89367152D02*
X122752666Y-89462390D01*
X122752666Y-89462390D02*
X122705047Y-89510009D01*
X122705047Y-89510009D02*
X122609809Y-89557628D01*
X122609809Y-89557628D02*
X122228857Y-89557628D01*
X144219752Y-84179580D02*
X144172133Y-84227200D01*
X144172133Y-84227200D02*
X144029276Y-84274819D01*
X144029276Y-84274819D02*
X143934038Y-84274819D01*
X143934038Y-84274819D02*
X143791181Y-84227200D01*
X143791181Y-84227200D02*
X143695943Y-84131961D01*
X143695943Y-84131961D02*
X143648324Y-84036723D01*
X143648324Y-84036723D02*
X143600705Y-83846247D01*
X143600705Y-83846247D02*
X143600705Y-83703390D01*
X143600705Y-83703390D02*
X143648324Y-83512914D01*
X143648324Y-83512914D02*
X143695943Y-83417676D01*
X143695943Y-83417676D02*
X143791181Y-83322438D01*
X143791181Y-83322438D02*
X143934038Y-83274819D01*
X143934038Y-83274819D02*
X144029276Y-83274819D01*
X144029276Y-83274819D02*
X144172133Y-83322438D01*
X144172133Y-83322438D02*
X144219752Y-83370057D01*
X145172133Y-84274819D02*
X144600705Y-84274819D01*
X144886419Y-84274819D02*
X144886419Y-83274819D01*
X144886419Y-83274819D02*
X144791181Y-83417676D01*
X144791181Y-83417676D02*
X144695943Y-83512914D01*
X144695943Y-83512914D02*
X144600705Y-83560533D01*
X145791181Y-83274819D02*
X145886419Y-83274819D01*
X145886419Y-83274819D02*
X145981657Y-83322438D01*
X145981657Y-83322438D02*
X146029276Y-83370057D01*
X146029276Y-83370057D02*
X146076895Y-83465295D01*
X146076895Y-83465295D02*
X146124514Y-83655771D01*
X146124514Y-83655771D02*
X146124514Y-83893866D01*
X146124514Y-83893866D02*
X146076895Y-84084342D01*
X146076895Y-84084342D02*
X146029276Y-84179580D01*
X146029276Y-84179580D02*
X145981657Y-84227200D01*
X145981657Y-84227200D02*
X145886419Y-84274819D01*
X145886419Y-84274819D02*
X145791181Y-84274819D01*
X145791181Y-84274819D02*
X145695943Y-84227200D01*
X145695943Y-84227200D02*
X145648324Y-84179580D01*
X145648324Y-84179580D02*
X145600705Y-84084342D01*
X145600705Y-84084342D02*
X145553086Y-83893866D01*
X145553086Y-83893866D02*
X145553086Y-83655771D01*
X145553086Y-83655771D02*
X145600705Y-83465295D01*
X145600705Y-83465295D02*
X145648324Y-83370057D01*
X145648324Y-83370057D02*
X145695943Y-83322438D01*
X145695943Y-83322438D02*
X145791181Y-83274819D01*
X147076895Y-84274819D02*
X146505467Y-84274819D01*
X146791181Y-84274819D02*
X146791181Y-83274819D01*
X146791181Y-83274819D02*
X146695943Y-83417676D01*
X146695943Y-83417676D02*
X146600705Y-83512914D01*
X146600705Y-83512914D02*
X146505467Y-83560533D01*
X143797543Y-87288019D02*
X143892781Y-87288019D01*
X143892781Y-87288019D02*
X143988019Y-87335638D01*
X143988019Y-87335638D02*
X144035638Y-87383257D01*
X144035638Y-87383257D02*
X144083257Y-87478495D01*
X144083257Y-87478495D02*
X144130876Y-87668971D01*
X144130876Y-87668971D02*
X144130876Y-87907066D01*
X144130876Y-87907066D02*
X144083257Y-88097542D01*
X144083257Y-88097542D02*
X144035638Y-88192780D01*
X144035638Y-88192780D02*
X143988019Y-88240400D01*
X143988019Y-88240400D02*
X143892781Y-88288019D01*
X143892781Y-88288019D02*
X143797543Y-88288019D01*
X143797543Y-88288019D02*
X143702305Y-88240400D01*
X143702305Y-88240400D02*
X143654686Y-88192780D01*
X143654686Y-88192780D02*
X143607067Y-88097542D01*
X143607067Y-88097542D02*
X143559448Y-87907066D01*
X143559448Y-87907066D02*
X143559448Y-87668971D01*
X143559448Y-87668971D02*
X143607067Y-87478495D01*
X143607067Y-87478495D02*
X143654686Y-87383257D01*
X143654686Y-87383257D02*
X143702305Y-87335638D01*
X143702305Y-87335638D02*
X143797543Y-87288019D01*
X144559448Y-88192780D02*
X144607067Y-88240400D01*
X144607067Y-88240400D02*
X144559448Y-88288019D01*
X144559448Y-88288019D02*
X144511829Y-88240400D01*
X144511829Y-88240400D02*
X144559448Y-88192780D01*
X144559448Y-88192780D02*
X144559448Y-88288019D01*
X145559447Y-88288019D02*
X144988019Y-88288019D01*
X145273733Y-88288019D02*
X145273733Y-87288019D01*
X145273733Y-87288019D02*
X145178495Y-87430876D01*
X145178495Y-87430876D02*
X145083257Y-87526114D01*
X145083257Y-87526114D02*
X144988019Y-87573733D01*
X146416590Y-87621352D02*
X146416590Y-88288019D01*
X145988019Y-87621352D02*
X145988019Y-88145161D01*
X145988019Y-88145161D02*
X146035638Y-88240400D01*
X146035638Y-88240400D02*
X146130876Y-88288019D01*
X146130876Y-88288019D02*
X146273733Y-88288019D01*
X146273733Y-88288019D02*
X146368971Y-88240400D01*
X146368971Y-88240400D02*
X146416590Y-88192780D01*
X147226114Y-87764209D02*
X146892781Y-87764209D01*
X146892781Y-88288019D02*
X146892781Y-87288019D01*
X146892781Y-87288019D02*
X147368971Y-87288019D01*
X123486057Y-83851619D02*
X123438438Y-83946857D01*
X123438438Y-83946857D02*
X123343200Y-84042095D01*
X123343200Y-84042095D02*
X123200342Y-84184952D01*
X123200342Y-84184952D02*
X123152723Y-84280190D01*
X123152723Y-84280190D02*
X123152723Y-84375428D01*
X123390819Y-84327809D02*
X123343200Y-84423047D01*
X123343200Y-84423047D02*
X123247961Y-84518285D01*
X123247961Y-84518285D02*
X123057485Y-84565904D01*
X123057485Y-84565904D02*
X122724152Y-84565904D01*
X122724152Y-84565904D02*
X122533676Y-84518285D01*
X122533676Y-84518285D02*
X122438438Y-84423047D01*
X122438438Y-84423047D02*
X122390819Y-84327809D01*
X122390819Y-84327809D02*
X122390819Y-84137333D01*
X122390819Y-84137333D02*
X122438438Y-84042095D01*
X122438438Y-84042095D02*
X122533676Y-83946857D01*
X122533676Y-83946857D02*
X122724152Y-83899238D01*
X122724152Y-83899238D02*
X123057485Y-83899238D01*
X123057485Y-83899238D02*
X123247961Y-83946857D01*
X123247961Y-83946857D02*
X123343200Y-84042095D01*
X123343200Y-84042095D02*
X123390819Y-84137333D01*
X123390819Y-84137333D02*
X123390819Y-84327809D01*
X123390819Y-82946857D02*
X123390819Y-83518285D01*
X123390819Y-83232571D02*
X122390819Y-83232571D01*
X122390819Y-83232571D02*
X122533676Y-83327809D01*
X122533676Y-83327809D02*
X122628914Y-83423047D01*
X122628914Y-83423047D02*
X122676533Y-83518285D01*
X122390819Y-82327809D02*
X122390819Y-82232571D01*
X122390819Y-82232571D02*
X122438438Y-82137333D01*
X122438438Y-82137333D02*
X122486057Y-82089714D01*
X122486057Y-82089714D02*
X122581295Y-82042095D01*
X122581295Y-82042095D02*
X122771771Y-81994476D01*
X122771771Y-81994476D02*
X123009866Y-81994476D01*
X123009866Y-81994476D02*
X123200342Y-82042095D01*
X123200342Y-82042095D02*
X123295580Y-82089714D01*
X123295580Y-82089714D02*
X123343200Y-82137333D01*
X123343200Y-82137333D02*
X123390819Y-82232571D01*
X123390819Y-82232571D02*
X123390819Y-82327809D01*
X123390819Y-82327809D02*
X123343200Y-82423047D01*
X123343200Y-82423047D02*
X123295580Y-82470666D01*
X123295580Y-82470666D02*
X123200342Y-82518285D01*
X123200342Y-82518285D02*
X123009866Y-82565904D01*
X123009866Y-82565904D02*
X122771771Y-82565904D01*
X122771771Y-82565904D02*
X122581295Y-82518285D01*
X122581295Y-82518285D02*
X122486057Y-82470666D01*
X122486057Y-82470666D02*
X122438438Y-82423047D01*
X122438438Y-82423047D02*
X122390819Y-82327809D01*
X123390819Y-81042095D02*
X123390819Y-81613523D01*
X123390819Y-81327809D02*
X122390819Y-81327809D01*
X122390819Y-81327809D02*
X122533676Y-81423047D01*
X122533676Y-81423047D02*
X122628914Y-81518285D01*
X122628914Y-81518285D02*
X122676533Y-81613523D01*
X123416219Y-79236676D02*
X123416219Y-79808104D01*
X123416219Y-79522390D02*
X122416219Y-79522390D01*
X122416219Y-79522390D02*
X122559076Y-79617628D01*
X122559076Y-79617628D02*
X122654314Y-79712866D01*
X122654314Y-79712866D02*
X122701933Y-79808104D01*
X122416219Y-78617628D02*
X122416219Y-78522390D01*
X122416219Y-78522390D02*
X122463838Y-78427152D01*
X122463838Y-78427152D02*
X122511457Y-78379533D01*
X122511457Y-78379533D02*
X122606695Y-78331914D01*
X122606695Y-78331914D02*
X122797171Y-78284295D01*
X122797171Y-78284295D02*
X123035266Y-78284295D01*
X123035266Y-78284295D02*
X123225742Y-78331914D01*
X123225742Y-78331914D02*
X123320980Y-78379533D01*
X123320980Y-78379533D02*
X123368600Y-78427152D01*
X123368600Y-78427152D02*
X123416219Y-78522390D01*
X123416219Y-78522390D02*
X123416219Y-78617628D01*
X123416219Y-78617628D02*
X123368600Y-78712866D01*
X123368600Y-78712866D02*
X123320980Y-78760485D01*
X123320980Y-78760485D02*
X123225742Y-78808104D01*
X123225742Y-78808104D02*
X123035266Y-78855723D01*
X123035266Y-78855723D02*
X122797171Y-78855723D01*
X122797171Y-78855723D02*
X122606695Y-78808104D01*
X122606695Y-78808104D02*
X122511457Y-78760485D01*
X122511457Y-78760485D02*
X122463838Y-78712866D01*
X122463838Y-78712866D02*
X122416219Y-78617628D01*
X123416219Y-77855723D02*
X122416219Y-77855723D01*
X122416219Y-77855723D02*
X123130504Y-77522390D01*
X123130504Y-77522390D02*
X122416219Y-77189057D01*
X122416219Y-77189057D02*
X123416219Y-77189057D01*
X123416219Y-76712866D02*
X122416219Y-76712866D01*
X122892409Y-76712866D02*
X122892409Y-76141438D01*
X123416219Y-76141438D02*
X122416219Y-76141438D01*
X122749552Y-75760485D02*
X122749552Y-75236676D01*
X122749552Y-75236676D02*
X123416219Y-75760485D01*
X123416219Y-75760485D02*
X123416219Y-75236676D01*
X123340952Y-70050819D02*
X123007619Y-69574628D01*
X122769524Y-70050819D02*
X122769524Y-69050819D01*
X122769524Y-69050819D02*
X123150476Y-69050819D01*
X123150476Y-69050819D02*
X123245714Y-69098438D01*
X123245714Y-69098438D02*
X123293333Y-69146057D01*
X123293333Y-69146057D02*
X123340952Y-69241295D01*
X123340952Y-69241295D02*
X123340952Y-69384152D01*
X123340952Y-69384152D02*
X123293333Y-69479390D01*
X123293333Y-69479390D02*
X123245714Y-69527009D01*
X123245714Y-69527009D02*
X123150476Y-69574628D01*
X123150476Y-69574628D02*
X122769524Y-69574628D01*
X124293333Y-70050819D02*
X123721905Y-70050819D01*
X124007619Y-70050819D02*
X124007619Y-69050819D01*
X124007619Y-69050819D02*
X123912381Y-69193676D01*
X123912381Y-69193676D02*
X123817143Y-69288914D01*
X123817143Y-69288914D02*
X123721905Y-69336533D01*
X124912381Y-69050819D02*
X125007619Y-69050819D01*
X125007619Y-69050819D02*
X125102857Y-69098438D01*
X125102857Y-69098438D02*
X125150476Y-69146057D01*
X125150476Y-69146057D02*
X125198095Y-69241295D01*
X125198095Y-69241295D02*
X125245714Y-69431771D01*
X125245714Y-69431771D02*
X125245714Y-69669866D01*
X125245714Y-69669866D02*
X125198095Y-69860342D01*
X125198095Y-69860342D02*
X125150476Y-69955580D01*
X125150476Y-69955580D02*
X125102857Y-70003200D01*
X125102857Y-70003200D02*
X125007619Y-70050819D01*
X125007619Y-70050819D02*
X124912381Y-70050819D01*
X124912381Y-70050819D02*
X124817143Y-70003200D01*
X124817143Y-70003200D02*
X124769524Y-69955580D01*
X124769524Y-69955580D02*
X124721905Y-69860342D01*
X124721905Y-69860342D02*
X124674286Y-69669866D01*
X124674286Y-69669866D02*
X124674286Y-69431771D01*
X124674286Y-69431771D02*
X124721905Y-69241295D01*
X124721905Y-69241295D02*
X124769524Y-69146057D01*
X124769524Y-69146057D02*
X124817143Y-69098438D01*
X124817143Y-69098438D02*
X124912381Y-69050819D01*
X125579048Y-69050819D02*
X126198095Y-69050819D01*
X126198095Y-69050819D02*
X125864762Y-69431771D01*
X125864762Y-69431771D02*
X126007619Y-69431771D01*
X126007619Y-69431771D02*
X126102857Y-69479390D01*
X126102857Y-69479390D02*
X126150476Y-69527009D01*
X126150476Y-69527009D02*
X126198095Y-69622247D01*
X126198095Y-69622247D02*
X126198095Y-69860342D01*
X126198095Y-69860342D02*
X126150476Y-69955580D01*
X126150476Y-69955580D02*
X126102857Y-70003200D01*
X126102857Y-70003200D02*
X126007619Y-70050819D01*
X126007619Y-70050819D02*
X125721905Y-70050819D01*
X125721905Y-70050819D02*
X125626667Y-70003200D01*
X125626667Y-70003200D02*
X125579048Y-69955580D01*
X127450933Y-72057419D02*
X126879505Y-72057419D01*
X127165219Y-72057419D02*
X127165219Y-71057419D01*
X127165219Y-71057419D02*
X127069981Y-71200276D01*
X127069981Y-71200276D02*
X126974743Y-71295514D01*
X126974743Y-71295514D02*
X126879505Y-71343133D01*
X128069981Y-71057419D02*
X128165219Y-71057419D01*
X128165219Y-71057419D02*
X128260457Y-71105038D01*
X128260457Y-71105038D02*
X128308076Y-71152657D01*
X128308076Y-71152657D02*
X128355695Y-71247895D01*
X128355695Y-71247895D02*
X128403314Y-71438371D01*
X128403314Y-71438371D02*
X128403314Y-71676466D01*
X128403314Y-71676466D02*
X128355695Y-71866942D01*
X128355695Y-71866942D02*
X128308076Y-71962180D01*
X128308076Y-71962180D02*
X128260457Y-72009800D01*
X128260457Y-72009800D02*
X128165219Y-72057419D01*
X128165219Y-72057419D02*
X128069981Y-72057419D01*
X128069981Y-72057419D02*
X127974743Y-72009800D01*
X127974743Y-72009800D02*
X127927124Y-71962180D01*
X127927124Y-71962180D02*
X127879505Y-71866942D01*
X127879505Y-71866942D02*
X127831886Y-71676466D01*
X127831886Y-71676466D02*
X127831886Y-71438371D01*
X127831886Y-71438371D02*
X127879505Y-71247895D01*
X127879505Y-71247895D02*
X127927124Y-71152657D01*
X127927124Y-71152657D02*
X127974743Y-71105038D01*
X127974743Y-71105038D02*
X128069981Y-71057419D01*
X129022362Y-71057419D02*
X129117600Y-71057419D01*
X129117600Y-71057419D02*
X129212838Y-71105038D01*
X129212838Y-71105038D02*
X129260457Y-71152657D01*
X129260457Y-71152657D02*
X129308076Y-71247895D01*
X129308076Y-71247895D02*
X129355695Y-71438371D01*
X129355695Y-71438371D02*
X129355695Y-71676466D01*
X129355695Y-71676466D02*
X129308076Y-71866942D01*
X129308076Y-71866942D02*
X129260457Y-71962180D01*
X129260457Y-71962180D02*
X129212838Y-72009800D01*
X129212838Y-72009800D02*
X129117600Y-72057419D01*
X129117600Y-72057419D02*
X129022362Y-72057419D01*
X129022362Y-72057419D02*
X128927124Y-72009800D01*
X128927124Y-72009800D02*
X128879505Y-71962180D01*
X128879505Y-71962180D02*
X128831886Y-71866942D01*
X128831886Y-71866942D02*
X128784267Y-71676466D01*
X128784267Y-71676466D02*
X128784267Y-71438371D01*
X128784267Y-71438371D02*
X128831886Y-71247895D01*
X128831886Y-71247895D02*
X128879505Y-71152657D01*
X128879505Y-71152657D02*
X128927124Y-71105038D01*
X128927124Y-71105038D02*
X129022362Y-71057419D01*
X127150952Y-66653580D02*
X127103333Y-66701200D01*
X127103333Y-66701200D02*
X126960476Y-66748819D01*
X126960476Y-66748819D02*
X126865238Y-66748819D01*
X126865238Y-66748819D02*
X126722381Y-66701200D01*
X126722381Y-66701200D02*
X126627143Y-66605961D01*
X126627143Y-66605961D02*
X126579524Y-66510723D01*
X126579524Y-66510723D02*
X126531905Y-66320247D01*
X126531905Y-66320247D02*
X126531905Y-66177390D01*
X126531905Y-66177390D02*
X126579524Y-65986914D01*
X126579524Y-65986914D02*
X126627143Y-65891676D01*
X126627143Y-65891676D02*
X126722381Y-65796438D01*
X126722381Y-65796438D02*
X126865238Y-65748819D01*
X126865238Y-65748819D02*
X126960476Y-65748819D01*
X126960476Y-65748819D02*
X127103333Y-65796438D01*
X127103333Y-65796438D02*
X127150952Y-65844057D01*
X128103333Y-66748819D02*
X127531905Y-66748819D01*
X127817619Y-66748819D02*
X127817619Y-65748819D01*
X127817619Y-65748819D02*
X127722381Y-65891676D01*
X127722381Y-65891676D02*
X127627143Y-65986914D01*
X127627143Y-65986914D02*
X127531905Y-66034533D01*
X128722381Y-65748819D02*
X128817619Y-65748819D01*
X128817619Y-65748819D02*
X128912857Y-65796438D01*
X128912857Y-65796438D02*
X128960476Y-65844057D01*
X128960476Y-65844057D02*
X129008095Y-65939295D01*
X129008095Y-65939295D02*
X129055714Y-66129771D01*
X129055714Y-66129771D02*
X129055714Y-66367866D01*
X129055714Y-66367866D02*
X129008095Y-66558342D01*
X129008095Y-66558342D02*
X128960476Y-66653580D01*
X128960476Y-66653580D02*
X128912857Y-66701200D01*
X128912857Y-66701200D02*
X128817619Y-66748819D01*
X128817619Y-66748819D02*
X128722381Y-66748819D01*
X128722381Y-66748819D02*
X128627143Y-66701200D01*
X128627143Y-66701200D02*
X128579524Y-66653580D01*
X128579524Y-66653580D02*
X128531905Y-66558342D01*
X128531905Y-66558342D02*
X128484286Y-66367866D01*
X128484286Y-66367866D02*
X128484286Y-66129771D01*
X128484286Y-66129771D02*
X128531905Y-65939295D01*
X128531905Y-65939295D02*
X128579524Y-65844057D01*
X128579524Y-65844057D02*
X128627143Y-65796438D01*
X128627143Y-65796438D02*
X128722381Y-65748819D01*
X129912857Y-66082152D02*
X129912857Y-66748819D01*
X129674762Y-65701200D02*
X129436667Y-66415485D01*
X129436667Y-66415485D02*
X130055714Y-66415485D01*
X131453143Y-65748819D02*
X131548381Y-65748819D01*
X131548381Y-65748819D02*
X131643619Y-65796438D01*
X131643619Y-65796438D02*
X131691238Y-65844057D01*
X131691238Y-65844057D02*
X131738857Y-65939295D01*
X131738857Y-65939295D02*
X131786476Y-66129771D01*
X131786476Y-66129771D02*
X131786476Y-66367866D01*
X131786476Y-66367866D02*
X131738857Y-66558342D01*
X131738857Y-66558342D02*
X131691238Y-66653580D01*
X131691238Y-66653580D02*
X131643619Y-66701200D01*
X131643619Y-66701200D02*
X131548381Y-66748819D01*
X131548381Y-66748819D02*
X131453143Y-66748819D01*
X131453143Y-66748819D02*
X131357905Y-66701200D01*
X131357905Y-66701200D02*
X131310286Y-66653580D01*
X131310286Y-66653580D02*
X131262667Y-66558342D01*
X131262667Y-66558342D02*
X131215048Y-66367866D01*
X131215048Y-66367866D02*
X131215048Y-66129771D01*
X131215048Y-66129771D02*
X131262667Y-65939295D01*
X131262667Y-65939295D02*
X131310286Y-65844057D01*
X131310286Y-65844057D02*
X131357905Y-65796438D01*
X131357905Y-65796438D02*
X131453143Y-65748819D01*
X132215048Y-66653580D02*
X132262667Y-66701200D01*
X132262667Y-66701200D02*
X132215048Y-66748819D01*
X132215048Y-66748819D02*
X132167429Y-66701200D01*
X132167429Y-66701200D02*
X132215048Y-66653580D01*
X132215048Y-66653580D02*
X132215048Y-66748819D01*
X133215047Y-66748819D02*
X132643619Y-66748819D01*
X132929333Y-66748819D02*
X132929333Y-65748819D01*
X132929333Y-65748819D02*
X132834095Y-65891676D01*
X132834095Y-65891676D02*
X132738857Y-65986914D01*
X132738857Y-65986914D02*
X132643619Y-66034533D01*
X134072190Y-66082152D02*
X134072190Y-66748819D01*
X133643619Y-66082152D02*
X133643619Y-66605961D01*
X133643619Y-66605961D02*
X133691238Y-66701200D01*
X133691238Y-66701200D02*
X133786476Y-66748819D01*
X133786476Y-66748819D02*
X133929333Y-66748819D01*
X133929333Y-66748819D02*
X134024571Y-66701200D01*
X134024571Y-66701200D02*
X134072190Y-66653580D01*
X134881714Y-66225009D02*
X134548381Y-66225009D01*
X134548381Y-66748819D02*
X134548381Y-65748819D01*
X134548381Y-65748819D02*
X135024571Y-65748819D01*
X114030285Y-91910819D02*
X114030285Y-92625104D01*
X114030285Y-92625104D02*
X113982666Y-92767961D01*
X113982666Y-92767961D02*
X113887428Y-92863200D01*
X113887428Y-92863200D02*
X113744571Y-92910819D01*
X113744571Y-92910819D02*
X113649333Y-92910819D01*
X115030285Y-92910819D02*
X114458857Y-92910819D01*
X114744571Y-92910819D02*
X114744571Y-91910819D01*
X114744571Y-91910819D02*
X114649333Y-92053676D01*
X114649333Y-92053676D02*
X114554095Y-92148914D01*
X114554095Y-92148914D02*
X114458857Y-92196533D01*
X115649333Y-91910819D02*
X115744571Y-91910819D01*
X115744571Y-91910819D02*
X115839809Y-91958438D01*
X115839809Y-91958438D02*
X115887428Y-92006057D01*
X115887428Y-92006057D02*
X115935047Y-92101295D01*
X115935047Y-92101295D02*
X115982666Y-92291771D01*
X115982666Y-92291771D02*
X115982666Y-92529866D01*
X115982666Y-92529866D02*
X115935047Y-92720342D01*
X115935047Y-92720342D02*
X115887428Y-92815580D01*
X115887428Y-92815580D02*
X115839809Y-92863200D01*
X115839809Y-92863200D02*
X115744571Y-92910819D01*
X115744571Y-92910819D02*
X115649333Y-92910819D01*
X115649333Y-92910819D02*
X115554095Y-92863200D01*
X115554095Y-92863200D02*
X115506476Y-92815580D01*
X115506476Y-92815580D02*
X115458857Y-92720342D01*
X115458857Y-92720342D02*
X115411238Y-92529866D01*
X115411238Y-92529866D02*
X115411238Y-92291771D01*
X115411238Y-92291771D02*
X115458857Y-92101295D01*
X115458857Y-92101295D02*
X115506476Y-92006057D01*
X115506476Y-92006057D02*
X115554095Y-91958438D01*
X115554095Y-91958438D02*
X115649333Y-91910819D01*
X116363619Y-92006057D02*
X116411238Y-91958438D01*
X116411238Y-91958438D02*
X116506476Y-91910819D01*
X116506476Y-91910819D02*
X116744571Y-91910819D01*
X116744571Y-91910819D02*
X116839809Y-91958438D01*
X116839809Y-91958438D02*
X116887428Y-92006057D01*
X116887428Y-92006057D02*
X116935047Y-92101295D01*
X116935047Y-92101295D02*
X116935047Y-92196533D01*
X116935047Y-92196533D02*
X116887428Y-92339390D01*
X116887428Y-92339390D02*
X116316000Y-92910819D01*
X116316000Y-92910819D02*
X116935047Y-92910819D01*
X118864286Y-92910819D02*
X118864286Y-91910819D01*
X118864286Y-91910819D02*
X119245238Y-91910819D01*
X119245238Y-91910819D02*
X119340476Y-91958438D01*
X119340476Y-91958438D02*
X119388095Y-92006057D01*
X119388095Y-92006057D02*
X119435714Y-92101295D01*
X119435714Y-92101295D02*
X119435714Y-92244152D01*
X119435714Y-92244152D02*
X119388095Y-92339390D01*
X119388095Y-92339390D02*
X119340476Y-92387009D01*
X119340476Y-92387009D02*
X119245238Y-92434628D01*
X119245238Y-92434628D02*
X118864286Y-92434628D01*
X120435714Y-92910819D02*
X120102381Y-92434628D01*
X119864286Y-92910819D02*
X119864286Y-91910819D01*
X119864286Y-91910819D02*
X120245238Y-91910819D01*
X120245238Y-91910819D02*
X120340476Y-91958438D01*
X120340476Y-91958438D02*
X120388095Y-92006057D01*
X120388095Y-92006057D02*
X120435714Y-92101295D01*
X120435714Y-92101295D02*
X120435714Y-92244152D01*
X120435714Y-92244152D02*
X120388095Y-92339390D01*
X120388095Y-92339390D02*
X120340476Y-92387009D01*
X120340476Y-92387009D02*
X120245238Y-92434628D01*
X120245238Y-92434628D02*
X119864286Y-92434628D01*
X121054762Y-91910819D02*
X121245238Y-91910819D01*
X121245238Y-91910819D02*
X121340476Y-91958438D01*
X121340476Y-91958438D02*
X121435714Y-92053676D01*
X121435714Y-92053676D02*
X121483333Y-92244152D01*
X121483333Y-92244152D02*
X121483333Y-92577485D01*
X121483333Y-92577485D02*
X121435714Y-92767961D01*
X121435714Y-92767961D02*
X121340476Y-92863200D01*
X121340476Y-92863200D02*
X121245238Y-92910819D01*
X121245238Y-92910819D02*
X121054762Y-92910819D01*
X121054762Y-92910819D02*
X120959524Y-92863200D01*
X120959524Y-92863200D02*
X120864286Y-92767961D01*
X120864286Y-92767961D02*
X120816667Y-92577485D01*
X120816667Y-92577485D02*
X120816667Y-92244152D01*
X120816667Y-92244152D02*
X120864286Y-92053676D01*
X120864286Y-92053676D02*
X120959524Y-91958438D01*
X120959524Y-91958438D02*
X121054762Y-91910819D01*
X122435714Y-91958438D02*
X122340476Y-91910819D01*
X122340476Y-91910819D02*
X122197619Y-91910819D01*
X122197619Y-91910819D02*
X122054762Y-91958438D01*
X122054762Y-91958438D02*
X121959524Y-92053676D01*
X121959524Y-92053676D02*
X121911905Y-92148914D01*
X121911905Y-92148914D02*
X121864286Y-92339390D01*
X121864286Y-92339390D02*
X121864286Y-92482247D01*
X121864286Y-92482247D02*
X121911905Y-92672723D01*
X121911905Y-92672723D02*
X121959524Y-92767961D01*
X121959524Y-92767961D02*
X122054762Y-92863200D01*
X122054762Y-92863200D02*
X122197619Y-92910819D01*
X122197619Y-92910819D02*
X122292857Y-92910819D01*
X122292857Y-92910819D02*
X122435714Y-92863200D01*
X122435714Y-92863200D02*
X122483333Y-92815580D01*
X122483333Y-92815580D02*
X122483333Y-92482247D01*
X122483333Y-92482247D02*
X122292857Y-92482247D01*
X138047552Y-70615980D02*
X137999933Y-70663600D01*
X137999933Y-70663600D02*
X137857076Y-70711219D01*
X137857076Y-70711219D02*
X137761838Y-70711219D01*
X137761838Y-70711219D02*
X137618981Y-70663600D01*
X137618981Y-70663600D02*
X137523743Y-70568361D01*
X137523743Y-70568361D02*
X137476124Y-70473123D01*
X137476124Y-70473123D02*
X137428505Y-70282647D01*
X137428505Y-70282647D02*
X137428505Y-70139790D01*
X137428505Y-70139790D02*
X137476124Y-69949314D01*
X137476124Y-69949314D02*
X137523743Y-69854076D01*
X137523743Y-69854076D02*
X137618981Y-69758838D01*
X137618981Y-69758838D02*
X137761838Y-69711219D01*
X137761838Y-69711219D02*
X137857076Y-69711219D01*
X137857076Y-69711219D02*
X137999933Y-69758838D01*
X137999933Y-69758838D02*
X138047552Y-69806457D01*
X138999933Y-70711219D02*
X138428505Y-70711219D01*
X138714219Y-70711219D02*
X138714219Y-69711219D01*
X138714219Y-69711219D02*
X138618981Y-69854076D01*
X138618981Y-69854076D02*
X138523743Y-69949314D01*
X138523743Y-69949314D02*
X138428505Y-69996933D01*
X139618981Y-69711219D02*
X139714219Y-69711219D01*
X139714219Y-69711219D02*
X139809457Y-69758838D01*
X139809457Y-69758838D02*
X139857076Y-69806457D01*
X139857076Y-69806457D02*
X139904695Y-69901695D01*
X139904695Y-69901695D02*
X139952314Y-70092171D01*
X139952314Y-70092171D02*
X139952314Y-70330266D01*
X139952314Y-70330266D02*
X139904695Y-70520742D01*
X139904695Y-70520742D02*
X139857076Y-70615980D01*
X139857076Y-70615980D02*
X139809457Y-70663600D01*
X139809457Y-70663600D02*
X139714219Y-70711219D01*
X139714219Y-70711219D02*
X139618981Y-70711219D01*
X139618981Y-70711219D02*
X139523743Y-70663600D01*
X139523743Y-70663600D02*
X139476124Y-70615980D01*
X139476124Y-70615980D02*
X139428505Y-70520742D01*
X139428505Y-70520742D02*
X139380886Y-70330266D01*
X139380886Y-70330266D02*
X139380886Y-70092171D01*
X139380886Y-70092171D02*
X139428505Y-69901695D01*
X139428505Y-69901695D02*
X139476124Y-69806457D01*
X139476124Y-69806457D02*
X139523743Y-69758838D01*
X139523743Y-69758838D02*
X139618981Y-69711219D01*
X140857076Y-69711219D02*
X140380886Y-69711219D01*
X140380886Y-69711219D02*
X140333267Y-70187409D01*
X140333267Y-70187409D02*
X140380886Y-70139790D01*
X140380886Y-70139790D02*
X140476124Y-70092171D01*
X140476124Y-70092171D02*
X140714219Y-70092171D01*
X140714219Y-70092171D02*
X140809457Y-70139790D01*
X140809457Y-70139790D02*
X140857076Y-70187409D01*
X140857076Y-70187409D02*
X140904695Y-70282647D01*
X140904695Y-70282647D02*
X140904695Y-70520742D01*
X140904695Y-70520742D02*
X140857076Y-70615980D01*
X140857076Y-70615980D02*
X140809457Y-70663600D01*
X140809457Y-70663600D02*
X140714219Y-70711219D01*
X140714219Y-70711219D02*
X140476124Y-70711219D01*
X140476124Y-70711219D02*
X140380886Y-70663600D01*
X140380886Y-70663600D02*
X140333267Y-70615980D01*
X137650743Y-71032019D02*
X137745981Y-71032019D01*
X137745981Y-71032019D02*
X137841219Y-71079638D01*
X137841219Y-71079638D02*
X137888838Y-71127257D01*
X137888838Y-71127257D02*
X137936457Y-71222495D01*
X137936457Y-71222495D02*
X137984076Y-71412971D01*
X137984076Y-71412971D02*
X137984076Y-71651066D01*
X137984076Y-71651066D02*
X137936457Y-71841542D01*
X137936457Y-71841542D02*
X137888838Y-71936780D01*
X137888838Y-71936780D02*
X137841219Y-71984400D01*
X137841219Y-71984400D02*
X137745981Y-72032019D01*
X137745981Y-72032019D02*
X137650743Y-72032019D01*
X137650743Y-72032019D02*
X137555505Y-71984400D01*
X137555505Y-71984400D02*
X137507886Y-71936780D01*
X137507886Y-71936780D02*
X137460267Y-71841542D01*
X137460267Y-71841542D02*
X137412648Y-71651066D01*
X137412648Y-71651066D02*
X137412648Y-71412971D01*
X137412648Y-71412971D02*
X137460267Y-71222495D01*
X137460267Y-71222495D02*
X137507886Y-71127257D01*
X137507886Y-71127257D02*
X137555505Y-71079638D01*
X137555505Y-71079638D02*
X137650743Y-71032019D01*
X138412648Y-71936780D02*
X138460267Y-71984400D01*
X138460267Y-71984400D02*
X138412648Y-72032019D01*
X138412648Y-72032019D02*
X138365029Y-71984400D01*
X138365029Y-71984400D02*
X138412648Y-71936780D01*
X138412648Y-71936780D02*
X138412648Y-72032019D01*
X139412647Y-72032019D02*
X138841219Y-72032019D01*
X139126933Y-72032019D02*
X139126933Y-71032019D01*
X139126933Y-71032019D02*
X139031695Y-71174876D01*
X139031695Y-71174876D02*
X138936457Y-71270114D01*
X138936457Y-71270114D02*
X138841219Y-71317733D01*
X140269790Y-71365352D02*
X140269790Y-72032019D01*
X139841219Y-71365352D02*
X139841219Y-71889161D01*
X139841219Y-71889161D02*
X139888838Y-71984400D01*
X139888838Y-71984400D02*
X139984076Y-72032019D01*
X139984076Y-72032019D02*
X140126933Y-72032019D01*
X140126933Y-72032019D02*
X140222171Y-71984400D01*
X140222171Y-71984400D02*
X140269790Y-71936780D01*
X141079314Y-71508209D02*
X140745981Y-71508209D01*
X140745981Y-72032019D02*
X140745981Y-71032019D01*
X140745981Y-71032019D02*
X141222171Y-71032019D01*
X134556752Y-89005219D02*
X134223419Y-88529028D01*
X133985324Y-89005219D02*
X133985324Y-88005219D01*
X133985324Y-88005219D02*
X134366276Y-88005219D01*
X134366276Y-88005219D02*
X134461514Y-88052838D01*
X134461514Y-88052838D02*
X134509133Y-88100457D01*
X134509133Y-88100457D02*
X134556752Y-88195695D01*
X134556752Y-88195695D02*
X134556752Y-88338552D01*
X134556752Y-88338552D02*
X134509133Y-88433790D01*
X134509133Y-88433790D02*
X134461514Y-88481409D01*
X134461514Y-88481409D02*
X134366276Y-88529028D01*
X134366276Y-88529028D02*
X133985324Y-88529028D01*
X135509133Y-89005219D02*
X134937705Y-89005219D01*
X135223419Y-89005219D02*
X135223419Y-88005219D01*
X135223419Y-88005219D02*
X135128181Y-88148076D01*
X135128181Y-88148076D02*
X135032943Y-88243314D01*
X135032943Y-88243314D02*
X134937705Y-88290933D01*
X136128181Y-88005219D02*
X136223419Y-88005219D01*
X136223419Y-88005219D02*
X136318657Y-88052838D01*
X136318657Y-88052838D02*
X136366276Y-88100457D01*
X136366276Y-88100457D02*
X136413895Y-88195695D01*
X136413895Y-88195695D02*
X136461514Y-88386171D01*
X136461514Y-88386171D02*
X136461514Y-88624266D01*
X136461514Y-88624266D02*
X136413895Y-88814742D01*
X136413895Y-88814742D02*
X136366276Y-88909980D01*
X136366276Y-88909980D02*
X136318657Y-88957600D01*
X136318657Y-88957600D02*
X136223419Y-89005219D01*
X136223419Y-89005219D02*
X136128181Y-89005219D01*
X136128181Y-89005219D02*
X136032943Y-88957600D01*
X136032943Y-88957600D02*
X135985324Y-88909980D01*
X135985324Y-88909980D02*
X135937705Y-88814742D01*
X135937705Y-88814742D02*
X135890086Y-88624266D01*
X135890086Y-88624266D02*
X135890086Y-88386171D01*
X135890086Y-88386171D02*
X135937705Y-88195695D01*
X135937705Y-88195695D02*
X135985324Y-88100457D01*
X135985324Y-88100457D02*
X136032943Y-88052838D01*
X136032943Y-88052838D02*
X136128181Y-88005219D01*
X136842467Y-88100457D02*
X136890086Y-88052838D01*
X136890086Y-88052838D02*
X136985324Y-88005219D01*
X136985324Y-88005219D02*
X137223419Y-88005219D01*
X137223419Y-88005219D02*
X137318657Y-88052838D01*
X137318657Y-88052838D02*
X137366276Y-88100457D01*
X137366276Y-88100457D02*
X137413895Y-88195695D01*
X137413895Y-88195695D02*
X137413895Y-88290933D01*
X137413895Y-88290933D02*
X137366276Y-88433790D01*
X137366276Y-88433790D02*
X136794848Y-89005219D01*
X136794848Y-89005219D02*
X137413895Y-89005219D01*
X136079819Y-82979847D02*
X136079819Y-83551275D01*
X136079819Y-83265561D02*
X135079819Y-83265561D01*
X135079819Y-83265561D02*
X135222676Y-83360799D01*
X135222676Y-83360799D02*
X135317914Y-83456037D01*
X135317914Y-83456037D02*
X135365533Y-83551275D01*
X136079819Y-82551275D02*
X135079819Y-82551275D01*
X135698866Y-82456037D02*
X136079819Y-82170323D01*
X135413152Y-82170323D02*
X135794104Y-82551275D01*
X148204819Y-72785714D02*
X148919104Y-72785714D01*
X148919104Y-72785714D02*
X149061961Y-72833333D01*
X149061961Y-72833333D02*
X149157200Y-72928571D01*
X149157200Y-72928571D02*
X149204819Y-73071428D01*
X149204819Y-73071428D02*
X149204819Y-73166666D01*
X149204819Y-71785714D02*
X149204819Y-72357142D01*
X149204819Y-72071428D02*
X148204819Y-72071428D01*
X148204819Y-72071428D02*
X148347676Y-72166666D01*
X148347676Y-72166666D02*
X148442914Y-72261904D01*
X148442914Y-72261904D02*
X148490533Y-72357142D01*
X148204819Y-71166666D02*
X148204819Y-71071428D01*
X148204819Y-71071428D02*
X148252438Y-70976190D01*
X148252438Y-70976190D02*
X148300057Y-70928571D01*
X148300057Y-70928571D02*
X148395295Y-70880952D01*
X148395295Y-70880952D02*
X148585771Y-70833333D01*
X148585771Y-70833333D02*
X148823866Y-70833333D01*
X148823866Y-70833333D02*
X149014342Y-70880952D01*
X149014342Y-70880952D02*
X149109580Y-70928571D01*
X149109580Y-70928571D02*
X149157200Y-70976190D01*
X149157200Y-70976190D02*
X149204819Y-71071428D01*
X149204819Y-71071428D02*
X149204819Y-71166666D01*
X149204819Y-71166666D02*
X149157200Y-71261904D01*
X149157200Y-71261904D02*
X149109580Y-71309523D01*
X149109580Y-71309523D02*
X149014342Y-71357142D01*
X149014342Y-71357142D02*
X148823866Y-71404761D01*
X148823866Y-71404761D02*
X148585771Y-71404761D01*
X148585771Y-71404761D02*
X148395295Y-71357142D01*
X148395295Y-71357142D02*
X148300057Y-71309523D01*
X148300057Y-71309523D02*
X148252438Y-71261904D01*
X148252438Y-71261904D02*
X148204819Y-71166666D01*
X148204819Y-70499999D02*
X148204819Y-69880952D01*
X148204819Y-69880952D02*
X148585771Y-70214285D01*
X148585771Y-70214285D02*
X148585771Y-70071428D01*
X148585771Y-70071428D02*
X148633390Y-69976190D01*
X148633390Y-69976190D02*
X148681009Y-69928571D01*
X148681009Y-69928571D02*
X148776247Y-69880952D01*
X148776247Y-69880952D02*
X149014342Y-69880952D01*
X149014342Y-69880952D02*
X149109580Y-69928571D01*
X149109580Y-69928571D02*
X149157200Y-69976190D01*
X149157200Y-69976190D02*
X149204819Y-70071428D01*
X149204819Y-70071428D02*
X149204819Y-70357142D01*
X149204819Y-70357142D02*
X149157200Y-70452380D01*
X149157200Y-70452380D02*
X149109580Y-70499999D01*
X148358819Y-77941808D02*
X148358819Y-77370380D01*
X149358819Y-77656094D02*
X148358819Y-77656094D01*
X149358819Y-76465618D02*
X148882628Y-76798951D01*
X149358819Y-77037046D02*
X148358819Y-77037046D01*
X148358819Y-77037046D02*
X148358819Y-76656094D01*
X148358819Y-76656094D02*
X148406438Y-76560856D01*
X148406438Y-76560856D02*
X148454057Y-76513237D01*
X148454057Y-76513237D02*
X148549295Y-76465618D01*
X148549295Y-76465618D02*
X148692152Y-76465618D01*
X148692152Y-76465618D02*
X148787390Y-76513237D01*
X148787390Y-76513237D02*
X148835009Y-76560856D01*
X148835009Y-76560856D02*
X148882628Y-76656094D01*
X148882628Y-76656094D02*
X148882628Y-77037046D01*
X149358819Y-76037046D02*
X148358819Y-76037046D01*
X149358819Y-75560856D02*
X148358819Y-75560856D01*
X148358819Y-75560856D02*
X148358819Y-75179904D01*
X148358819Y-75179904D02*
X148406438Y-75084666D01*
X148406438Y-75084666D02*
X148454057Y-75037047D01*
X148454057Y-75037047D02*
X148549295Y-74989428D01*
X148549295Y-74989428D02*
X148692152Y-74989428D01*
X148692152Y-74989428D02*
X148787390Y-75037047D01*
X148787390Y-75037047D02*
X148835009Y-75084666D01*
X148835009Y-75084666D02*
X148882628Y-75179904D01*
X148882628Y-75179904D02*
X148882628Y-75560856D01*
X130198952Y-79353580D02*
X130151333Y-79401200D01*
X130151333Y-79401200D02*
X130008476Y-79448819D01*
X130008476Y-79448819D02*
X129913238Y-79448819D01*
X129913238Y-79448819D02*
X129770381Y-79401200D01*
X129770381Y-79401200D02*
X129675143Y-79305961D01*
X129675143Y-79305961D02*
X129627524Y-79210723D01*
X129627524Y-79210723D02*
X129579905Y-79020247D01*
X129579905Y-79020247D02*
X129579905Y-78877390D01*
X129579905Y-78877390D02*
X129627524Y-78686914D01*
X129627524Y-78686914D02*
X129675143Y-78591676D01*
X129675143Y-78591676D02*
X129770381Y-78496438D01*
X129770381Y-78496438D02*
X129913238Y-78448819D01*
X129913238Y-78448819D02*
X130008476Y-78448819D01*
X130008476Y-78448819D02*
X130151333Y-78496438D01*
X130151333Y-78496438D02*
X130198952Y-78544057D01*
X131151333Y-79448819D02*
X130579905Y-79448819D01*
X130865619Y-79448819D02*
X130865619Y-78448819D01*
X130865619Y-78448819D02*
X130770381Y-78591676D01*
X130770381Y-78591676D02*
X130675143Y-78686914D01*
X130675143Y-78686914D02*
X130579905Y-78734533D01*
X131770381Y-78448819D02*
X131865619Y-78448819D01*
X131865619Y-78448819D02*
X131960857Y-78496438D01*
X131960857Y-78496438D02*
X132008476Y-78544057D01*
X132008476Y-78544057D02*
X132056095Y-78639295D01*
X132056095Y-78639295D02*
X132103714Y-78829771D01*
X132103714Y-78829771D02*
X132103714Y-79067866D01*
X132103714Y-79067866D02*
X132056095Y-79258342D01*
X132056095Y-79258342D02*
X132008476Y-79353580D01*
X132008476Y-79353580D02*
X131960857Y-79401200D01*
X131960857Y-79401200D02*
X131865619Y-79448819D01*
X131865619Y-79448819D02*
X131770381Y-79448819D01*
X131770381Y-79448819D02*
X131675143Y-79401200D01*
X131675143Y-79401200D02*
X131627524Y-79353580D01*
X131627524Y-79353580D02*
X131579905Y-79258342D01*
X131579905Y-79258342D02*
X131532286Y-79067866D01*
X131532286Y-79067866D02*
X131532286Y-78829771D01*
X131532286Y-78829771D02*
X131579905Y-78639295D01*
X131579905Y-78639295D02*
X131627524Y-78544057D01*
X131627524Y-78544057D02*
X131675143Y-78496438D01*
X131675143Y-78496438D02*
X131770381Y-78448819D01*
X132437048Y-78448819D02*
X133056095Y-78448819D01*
X133056095Y-78448819D02*
X132722762Y-78829771D01*
X132722762Y-78829771D02*
X132865619Y-78829771D01*
X132865619Y-78829771D02*
X132960857Y-78877390D01*
X132960857Y-78877390D02*
X133008476Y-78925009D01*
X133008476Y-78925009D02*
X133056095Y-79020247D01*
X133056095Y-79020247D02*
X133056095Y-79258342D01*
X133056095Y-79258342D02*
X133008476Y-79353580D01*
X133008476Y-79353580D02*
X132960857Y-79401200D01*
X132960857Y-79401200D02*
X132865619Y-79448819D01*
X132865619Y-79448819D02*
X132579905Y-79448819D01*
X132579905Y-79448819D02*
X132484667Y-79401200D01*
X132484667Y-79401200D02*
X132437048Y-79353580D01*
X132646057Y-77558056D02*
X132598438Y-77510437D01*
X132598438Y-77510437D02*
X132550819Y-77415199D01*
X132550819Y-77415199D02*
X132550819Y-77177104D01*
X132550819Y-77177104D02*
X132598438Y-77081866D01*
X132598438Y-77081866D02*
X132646057Y-77034247D01*
X132646057Y-77034247D02*
X132741295Y-76986628D01*
X132741295Y-76986628D02*
X132836533Y-76986628D01*
X132836533Y-76986628D02*
X132979390Y-77034247D01*
X132979390Y-77034247D02*
X133550819Y-77605675D01*
X133550819Y-77605675D02*
X133550819Y-76986628D01*
X132646057Y-76605675D02*
X132598438Y-76558056D01*
X132598438Y-76558056D02*
X132550819Y-76462818D01*
X132550819Y-76462818D02*
X132550819Y-76224723D01*
X132550819Y-76224723D02*
X132598438Y-76129485D01*
X132598438Y-76129485D02*
X132646057Y-76081866D01*
X132646057Y-76081866D02*
X132741295Y-76034247D01*
X132741295Y-76034247D02*
X132836533Y-76034247D01*
X132836533Y-76034247D02*
X132979390Y-76081866D01*
X132979390Y-76081866D02*
X133550819Y-76653294D01*
X133550819Y-76653294D02*
X133550819Y-76034247D01*
X132884152Y-75605675D02*
X133884152Y-75605675D01*
X132931771Y-75605675D02*
X132884152Y-75510437D01*
X132884152Y-75510437D02*
X132884152Y-75319961D01*
X132884152Y-75319961D02*
X132931771Y-75224723D01*
X132931771Y-75224723D02*
X132979390Y-75177104D01*
X132979390Y-75177104D02*
X133074628Y-75129485D01*
X133074628Y-75129485D02*
X133360342Y-75129485D01*
X133360342Y-75129485D02*
X133455580Y-75177104D01*
X133455580Y-75177104D02*
X133503200Y-75224723D01*
X133503200Y-75224723D02*
X133550819Y-75319961D01*
X133550819Y-75319961D02*
X133550819Y-75510437D01*
X133550819Y-75510437D02*
X133503200Y-75605675D01*
X133027009Y-74367580D02*
X133027009Y-74700913D01*
X133550819Y-74700913D02*
X132550819Y-74700913D01*
X132550819Y-74700913D02*
X132550819Y-74224723D01*
D15*
%TO.C,J101*%
X102152000Y-90246000D02*
X102152000Y-91496000D01*
X102152000Y-91496000D02*
X103402000Y-91496000D01*
X102442000Y-78586000D02*
X102442000Y-91206000D01*
X102442000Y-91206000D02*
X108412000Y-91206000D01*
X102452000Y-78596000D02*
X102452000Y-80396000D01*
X102452000Y-80396000D02*
X103202000Y-80396000D01*
X102452000Y-81896000D02*
X102452000Y-87896000D01*
X102452000Y-87896000D02*
X103202000Y-87896000D01*
X102452000Y-89396000D02*
X102452000Y-91196000D01*
X102452000Y-91196000D02*
X103202000Y-91196000D01*
X103202000Y-78596000D02*
X102452000Y-78596000D01*
X103202000Y-80396000D02*
X103202000Y-78596000D01*
X103202000Y-81896000D02*
X102452000Y-81896000D01*
X103202000Y-87896000D02*
X103202000Y-81896000D01*
X103202000Y-89396000D02*
X102452000Y-89396000D01*
X103202000Y-91196000D02*
X103202000Y-89396000D01*
X104702000Y-78596000D02*
X104702000Y-79346000D01*
X104702000Y-79346000D02*
X107652000Y-79346000D01*
X104702000Y-90446000D02*
X106042000Y-90446000D01*
X104702000Y-91196000D02*
X104702000Y-90446000D01*
X107652000Y-79346000D02*
X107652000Y-84896000D01*
X107652000Y-84896000D02*
X107652000Y-89386000D01*
X108412000Y-78586000D02*
X102442000Y-78586000D01*
X108412000Y-91206000D02*
X108412000Y-78586000D01*
%TO.C,R101*%
X134250000Y-68910000D02*
X134580000Y-68910000D01*
X134250000Y-75450000D02*
X134250000Y-68910000D01*
X134580000Y-75450000D02*
X134250000Y-75450000D01*
X136660000Y-75450000D02*
X136990000Y-75450000D01*
X136990000Y-68910000D02*
X136660000Y-68910000D01*
X136990000Y-75450000D02*
X136990000Y-68910000D01*
%TO.C,C102*%
X129944000Y-81712000D02*
X129944000Y-84952000D01*
X130009000Y-81712000D02*
X129944000Y-81712000D01*
X130009000Y-84952000D02*
X129944000Y-84952000D01*
X132184000Y-81712000D02*
X132119000Y-81712000D01*
X132184000Y-81712000D02*
X132184000Y-84952000D01*
X132184000Y-84952000D02*
X132119000Y-84952000D01*
%TO.C,SW101*%
X102704000Y-72644000D02*
X102704000Y-75184000D01*
X102704000Y-75184000D02*
X104434000Y-76914000D01*
X104434000Y-70914000D02*
X102704000Y-72644000D01*
X104434000Y-76914000D02*
X106974000Y-76914000D01*
X106974000Y-70914000D02*
X104434000Y-70914000D01*
X106974000Y-76914000D02*
X108704000Y-75184000D01*
X108704000Y-72644000D02*
X106974000Y-70914000D01*
X108704000Y-75184000D02*
X108704000Y-72644000D01*
X107486530Y-73914000D02*
G75*
G02*
X103921470Y-73914000I-1782530J0D01*
G01*
X103921470Y-73914000D02*
G75*
G02*
X107486530Y-73914000I1782530J0D01*
G01*
%TO.C,R104*%
X137822000Y-79534000D02*
X138152000Y-79534000D01*
X137822000Y-86074000D02*
X137822000Y-79534000D01*
X138152000Y-86074000D02*
X137822000Y-86074000D01*
X140232000Y-86074000D02*
X140562000Y-86074000D01*
X140562000Y-79534000D02*
X140232000Y-79534000D01*
X140562000Y-86074000D02*
X140562000Y-79534000D01*
%TO.C,R105*%
X125730000Y-87047400D02*
X125730000Y-87377400D01*
X125730000Y-89787400D02*
X125730000Y-89457400D01*
X132270000Y-87047400D02*
X125730000Y-87047400D01*
X132270000Y-87377400D02*
X132270000Y-87047400D01*
X132270000Y-89457400D02*
X132270000Y-89787400D01*
X132270000Y-89787400D02*
X125730000Y-89787400D01*
%TO.C,IC101*%
X111336000Y-65539000D02*
X111336000Y-88639000D01*
X111336000Y-88639000D02*
X121836000Y-88639000D01*
X114336000Y-65599000D02*
X114336000Y-88579000D01*
X114336000Y-88579000D02*
X118836000Y-88579000D01*
X115586000Y-65599000D02*
X114336000Y-65599000D01*
X118836000Y-65599000D02*
X117586000Y-65599000D01*
X118836000Y-88579000D02*
X118836000Y-65599000D01*
X121836000Y-65539000D02*
X111336000Y-65539000D01*
X121836000Y-88639000D02*
X121836000Y-65539000D01*
X117586000Y-65599000D02*
G75*
G02*
X115586000Y-65599000I-1000000J0D01*
G01*
%TO.C,C101*%
X143668000Y-84797000D02*
X143668000Y-84732000D01*
X143668000Y-86972000D02*
X143668000Y-86907000D01*
X146908000Y-84732000D02*
X143668000Y-84732000D01*
X146908000Y-84797000D02*
X146908000Y-84732000D01*
X146908000Y-86972000D02*
X143668000Y-86972000D01*
X146908000Y-86972000D02*
X146908000Y-86907000D01*
%TO.C,Q101*%
X123967000Y-76402000D02*
X123967000Y-82802000D01*
X129017000Y-76402000D02*
X129017000Y-82802000D01*
X123967000Y-76402000D02*
G75*
G02*
X129017000Y-76402000I2525000J0D01*
G01*
X129017000Y-82802000D02*
G75*
G02*
X123967000Y-82802000I-2525000J0D01*
G01*
%TO.C,R103*%
X124746000Y-70258000D02*
X124746000Y-70588000D01*
X124746000Y-72998000D02*
X124746000Y-72668000D01*
X131286000Y-70258000D02*
X124746000Y-70258000D01*
X131286000Y-70588000D02*
X131286000Y-70258000D01*
X131286000Y-72668000D02*
X131286000Y-72998000D01*
X131286000Y-72998000D02*
X124746000Y-72998000D01*
%TO.C,C104*%
X128936000Y-67271000D02*
X128936000Y-67206000D01*
X128936000Y-69446000D02*
X128936000Y-69381000D01*
X132176000Y-67206000D02*
X128936000Y-67206000D01*
X132176000Y-67271000D02*
X132176000Y-67206000D01*
X132176000Y-69446000D02*
X128936000Y-69446000D01*
X132176000Y-69446000D02*
X132176000Y-69381000D01*
%TO.C,J102*%
X112930000Y-93920000D02*
X112930000Y-96580000D01*
X123150000Y-93920000D02*
X112930000Y-93920000D01*
X123150000Y-93920000D02*
X123150000Y-96580000D01*
X123150000Y-96580000D02*
X112930000Y-96580000D01*
X124420000Y-93920000D02*
X125750000Y-93920000D01*
X125750000Y-93920000D02*
X125750000Y-95250000D01*
%TO.C,C105*%
X138072000Y-73056000D02*
X138072000Y-76296000D01*
X138137000Y-73056000D02*
X138072000Y-73056000D01*
X138137000Y-76296000D02*
X138072000Y-76296000D01*
X140312000Y-73056000D02*
X140247000Y-73056000D01*
X140312000Y-73056000D02*
X140312000Y-76296000D01*
X140312000Y-76296000D02*
X140247000Y-76296000D01*
%TO.C,R102*%
X134255000Y-79540000D02*
X134585000Y-79540000D01*
X134255000Y-86080000D02*
X134255000Y-79540000D01*
X134585000Y-86080000D02*
X134255000Y-86080000D01*
X136665000Y-86080000D02*
X136995000Y-86080000D01*
X136995000Y-79540000D02*
X136665000Y-79540000D01*
X136995000Y-86080000D02*
X136995000Y-79540000D01*
%TO.C,J103*%
X141554000Y-80518000D02*
X141554000Y-81768000D01*
X141554000Y-81768000D02*
X142804000Y-81768000D01*
X141844000Y-71358000D02*
X141844000Y-81478000D01*
X141844000Y-81478000D02*
X147814000Y-81478000D01*
X141854000Y-71368000D02*
X141854000Y-73168000D01*
X141854000Y-73168000D02*
X142604000Y-73168000D01*
X141854000Y-74668000D02*
X141854000Y-78168000D01*
X141854000Y-78168000D02*
X142604000Y-78168000D01*
X141854000Y-79668000D02*
X141854000Y-81468000D01*
X141854000Y-81468000D02*
X142604000Y-81468000D01*
X142604000Y-71368000D02*
X141854000Y-71368000D01*
X142604000Y-73168000D02*
X142604000Y-71368000D01*
X142604000Y-74668000D02*
X141854000Y-74668000D01*
X142604000Y-78168000D02*
X142604000Y-74668000D01*
X142604000Y-79668000D02*
X141854000Y-79668000D01*
X142604000Y-81468000D02*
X142604000Y-79668000D01*
X144104000Y-71368000D02*
X144104000Y-72118000D01*
X144104000Y-72118000D02*
X147054000Y-72118000D01*
X144104000Y-80718000D02*
X147054000Y-80718000D01*
X144104000Y-81468000D02*
X144104000Y-80718000D01*
X147054000Y-72118000D02*
X147054000Y-76418000D01*
X147054000Y-80718000D02*
X147054000Y-76418000D01*
X147814000Y-71358000D02*
X141844000Y-71358000D01*
X147814000Y-81478000D02*
X147814000Y-71358000D01*
%TO.C,C103*%
X129918600Y-74295200D02*
X129983600Y-74295200D01*
X129918600Y-77535200D02*
X129918600Y-74295200D01*
X129918600Y-77535200D02*
X129983600Y-77535200D01*
X132093600Y-74295200D02*
X132158600Y-74295200D01*
X132093600Y-77535200D02*
X132158600Y-77535200D01*
X132158600Y-77535200D02*
X132158600Y-74295200D01*
%TD*%
M02*
