M48
; DRILL file {KiCad 8.0.8-8.0.8-0~ubuntu22.04.1} date 2025-01-20T16:53:16+0900
; FORMAT={-:-/ absolute / inch / decimal}
; #@! TF.CreationDate,2025-01-20T16:53:16+09:00
; #@! TF.GenerationSoftware,Kicad,Pcbnew,8.0.8-8.0.8-0~ubuntu22.04.1
; #@! TF.FileFunction,MixedPlating,1,2
FMAT,2
INCH
; #@! TA.AperFunction,Plated,PTH,ViaDrill
T1C0.0118
; #@! TA.AperFunction,Plated,PTH,ComponentDrill
T2C0.0315
; #@! TA.AperFunction,Plated,PTH,ComponentDrill
T3C0.0374
; #@! TA.AperFunction,Plated,PTH,ComponentDrill
T4C0.0394
; #@! TA.AperFunction,NonPlated,NPTH,ComponentDrill
T5C0.0472
; #@! TA.AperFunction,NonPlated,NPTH,ComponentDrill
T6C0.1260
%
G90
G05
T1
X3.9173Y-3.3189
X3.9173Y-3.6535
X4.0984Y-2.8346
X4.0984Y-3.378
X4.7244Y-3.3701
X4.7638Y-3.29
X4.7638Y-3.3701
X5.1732Y-2.311
X5.1732Y-2.4055
X5.2362Y-2.4055
X5.3346Y-2.311
X5.4606Y-3.122
X5.4606Y-3.3346
X5.7047Y-2.4055
X5.7047Y-3.122
T2
X4.1614Y-2.4173
X4.2598Y-2.4173
X4.2598Y-2.5504
X4.2598Y-2.8504
X4.4094Y-2.5508
X4.4094Y-2.8508
X4.5898Y-2.637
X4.5898Y-2.737
X4.5898Y-2.837
X4.5898Y-2.937
X4.5898Y-3.037
X4.5898Y-3.137
X4.5898Y-3.237
X4.5898Y-3.337
X4.5898Y-3.437
X4.8898Y-2.637
X4.8898Y-2.737
X4.8898Y-2.837
X4.8898Y-2.937
X4.8898Y-3.037
X4.8898Y-3.137
X4.8898Y-3.237
X4.8898Y-3.337
X4.8898Y-3.437
X5.1732Y-2.8346
X5.1732Y-3.0268
X5.3067Y-2.5984
X5.3067Y-3.5984
X5.3676Y-2.8346
X5.3676Y-2.9331
X5.3686Y-3.0236
X5.3686Y-3.122
X5.5079Y-2.748
X5.6063Y-2.748
X5.6063Y-2.9913
X5.6063Y-3.2913
X5.6067Y-2.5984
X5.6067Y-3.5984
X5.7776Y-3.6063
X5.876Y-3.6063
T3
X4.0Y-3.1811
X4.0Y-3.2795
X4.0Y-3.378
X4.0Y-3.4764
X5.876Y-3.189
X5.876Y-3.2874
X5.876Y-3.3858
T4
X3.9252Y-2.685
X4.122Y-2.685
X4.1699Y-3.8583
X4.1768Y-2.2244
X4.2699Y-3.8583
X4.2768Y-2.2244
X4.3699Y-3.8583
X4.3768Y-2.2244
X4.4699Y-3.8583
X4.4768Y-2.2244
X4.5366Y-4.1244
X4.5699Y-3.8583
X4.5768Y-2.2244
X4.6366Y-4.1244
X4.6768Y-2.2244
X4.7366Y-4.1244
X4.7768Y-2.2244
X4.8366Y-4.1244
X4.8768Y-2.2244
X4.9366Y-4.1244
X4.9768Y-2.2244
X5.0366Y-4.1244
X5.0768Y-2.2244
X5.1366Y-4.1244
X5.2366Y-2.2244
X5.2366Y-4.1244
X5.3366Y-2.2244
X5.4366Y-2.2244
X5.4366Y-4.1244
X5.5366Y-2.2244
X5.5366Y-4.1244
X5.6366Y-2.2244
X5.6366Y-4.1244
X5.7366Y-2.2244
X5.7366Y-4.1244
X5.8366Y-2.2244
X5.8366Y-4.1244
X5.9366Y-2.2244
X5.9366Y-4.1244
T5
X4.0787Y-3.5394
T6
X3.9866Y-4.1244
X4.0366Y-2.2244
X6.0366Y-2.8244
X6.0366Y-3.9244
M30
