%TF.GenerationSoftware,KiCad,Pcbnew,8.0.8-8.0.8-0~ubuntu22.04.1*%
%TF.CreationDate,2025-01-20T16:52:57+09:00*%
%TF.ProjectId,M252,4d323532-2e6b-4696-9361-645f70636258,2.00*%
%TF.SameCoordinates,Original*%
%TF.FileFunction,Soldermask,Bot*%
%TF.FilePolarity,Negative*%
%FSLAX46Y46*%
G04 Gerber Fmt 4.6, Leading zero omitted, Abs format (unit mm)*
G04 Created by KiCad (PCBNEW 8.0.8-8.0.8-0~ubuntu22.04.1) date 2025-01-20 16:52:57*
%MOMM*%
%LPD*%
G01*
G04 APERTURE LIST*
G04 Aperture macros list*
%AMRoundRect*
0 Rectangle with rounded corners*
0 $1 Rounding radius*
0 $2 $3 $4 $5 $6 $7 $8 $9 X,Y pos of 4 corners*
0 Add a 4 corners polygon primitive as box body*
4,1,4,$2,$3,$4,$5,$6,$7,$8,$9,$2,$3,0*
0 Add four circle primitives for the rounded corners*
1,1,$1+$1,$2,$3*
1,1,$1+$1,$4,$5*
1,1,$1+$1,$6,$7*
1,1,$1+$1,$8,$9*
0 Add four rect primitives between the rounded corners*
20,1,$1+$1,$2,$3,$4,$5,0*
20,1,$1+$1,$4,$5,$6,$7,0*
20,1,$1+$1,$6,$7,$8,$9,0*
20,1,$1+$1,$8,$9,$2,$3,0*%
G04 Aperture macros list end*
%ADD10C,3.200000*%
%ADD11R,1.600000X1.600000*%
%ADD12O,1.600000X1.600000*%
%ADD13C,1.200000*%
%ADD14RoundRect,0.250000X0.725000X-0.600000X0.725000X0.600000X-0.725000X0.600000X-0.725000X-0.600000X0*%
%ADD15O,1.950000X1.700000*%
%ADD16C,1.600000*%
%ADD17C,2.000000*%
%ADD18R,2.400000X1.600000*%
%ADD19O,2.400000X1.600000*%
%ADD20C,1.500000*%
%ADD21R,1.700000X1.700000*%
%ADD22O,1.700000X1.700000*%
G04 APERTURE END LIST*
D10*
%TO.C,REF\u002A\u002A*%
X101260000Y-104760000D03*
X102530000Y-56500000D03*
X153330000Y-71740000D03*
X153330000Y-99680000D03*
D11*
X115230000Y-104760000D03*
D12*
X117770000Y-104760000D03*
X120310000Y-104760000D03*
X122850000Y-104760000D03*
X125390000Y-104760000D03*
X127930000Y-104760000D03*
X130470000Y-104760000D03*
X133010000Y-104760000D03*
X138090000Y-104760000D03*
X140630000Y-104760000D03*
X143170000Y-104760000D03*
X145710000Y-104760000D03*
X148250000Y-104760000D03*
X150790000Y-104760000D03*
X150790000Y-56500000D03*
X148250000Y-56500000D03*
X145710000Y-56500000D03*
X143170000Y-56500000D03*
X140630000Y-56500000D03*
X138090000Y-56500000D03*
X135550000Y-56500000D03*
X133010000Y-56500000D03*
X128950000Y-56500000D03*
X126410000Y-56500000D03*
X123870000Y-56500000D03*
X121330000Y-56500000D03*
X118790000Y-56500000D03*
X116250000Y-56500000D03*
X113710000Y-56500000D03*
X111170000Y-56500000D03*
X108630000Y-56500000D03*
X106090000Y-56500000D03*
%TD*%
D13*
%TO.C,J101*%
X103600000Y-89900000D03*
D14*
X101600000Y-88300000D03*
D15*
X101600000Y-85800000D03*
X101600000Y-83300000D03*
X101600000Y-80800000D03*
%TD*%
D16*
%TO.C,R101*%
X108200000Y-64780000D03*
D12*
X108200000Y-72400000D03*
%TD*%
D16*
%TO.C,C102*%
X136362000Y-76800000D03*
X136362000Y-79300000D03*
%TD*%
D17*
%TO.C,SW101*%
X104700000Y-68200000D03*
X99700000Y-68200000D03*
%TD*%
D16*
%TO.C,R104*%
X142400000Y-83600000D03*
D12*
X142400000Y-75980000D03*
%TD*%
D16*
%TO.C,R105*%
X142410000Y-91400000D03*
D12*
X134790000Y-91400000D03*
%TD*%
D18*
%TO.C,IC101*%
X116580000Y-66980000D03*
D19*
X116580000Y-69520000D03*
X116580000Y-72060000D03*
X116580000Y-74600000D03*
X116580000Y-77140000D03*
X116580000Y-79680000D03*
X116580000Y-82220000D03*
X116580000Y-84760000D03*
X116580000Y-87300000D03*
X124200000Y-87300000D03*
X124200000Y-84760000D03*
X124200000Y-82220000D03*
X124200000Y-79680000D03*
X124200000Y-77140000D03*
X124200000Y-74600000D03*
X124200000Y-72060000D03*
X124200000Y-69520000D03*
X124200000Y-66980000D03*
%TD*%
D16*
%TO.C,C101*%
X146750000Y-91600000D03*
X149250000Y-91600000D03*
%TD*%
D20*
%TO.C,Q101*%
X131400000Y-72000000D03*
X131400000Y-76880000D03*
%TD*%
D16*
%TO.C,R103*%
X142410000Y-66000000D03*
D12*
X134790000Y-66000000D03*
%TD*%
D16*
%TO.C,C104*%
X108200000Y-61400000D03*
X105700000Y-61400000D03*
%TD*%
D21*
%TO.C,J102*%
X116075000Y-98000000D03*
D22*
X113535000Y-98000000D03*
X110995000Y-98000000D03*
X108455000Y-98000000D03*
X105915000Y-98000000D03*
%TD*%
D16*
%TO.C,C105*%
X142400000Y-69800000D03*
X139900000Y-69800000D03*
%TD*%
%TO.C,R102*%
X112000000Y-72410000D03*
D12*
X112000000Y-64790000D03*
%TD*%
D14*
%TO.C,J103*%
X149250000Y-86000000D03*
D15*
X149250000Y-83500000D03*
X149250000Y-81000000D03*
%TD*%
D16*
%TO.C,C103*%
X136336600Y-72000000D03*
X136336600Y-74500000D03*
%TD*%
M02*
