M48
; DRILL file {KiCad 8.0.7-8.0.7-0~ubuntu22.04.1} date 2024-12-10T16:13:59+0900
; FORMAT={-:-/ absolute / inch / decimal}
; #@! TF.CreationDate,2024-12-10T16:13:59+09:00
; #@! TF.GenerationSoftware,Kicad,Pcbnew,8.0.7-8.0.7-0~ubuntu22.04.1
; #@! TF.FileFunction,MixedPlating,1,2
FMAT,2
INCH
; #@! TA.AperFunction,Plated,PTH,ComponentDrill
T1C0.0315
; #@! TA.AperFunction,Plated,PTH,ComponentDrill
T2C0.0374
; #@! TA.AperFunction,Plated,PTH,ComponentDrill
T3C0.0394
; #@! TA.AperFunction,Plated,PTH,ComponentDrill
T4C0.0984
; #@! TA.AperFunction,NonPlated,NPTH,ComponentDrill
T5C0.0472
%
G90
G05
T1
X4.44Y-2.635
X4.44Y-2.735
X4.44Y-2.835
X4.44Y-2.935
X4.44Y-3.035
X4.44Y-3.135
X4.44Y-3.235
X4.44Y-3.335
X4.44Y-3.435
X4.74Y-2.635
X4.74Y-2.735
X4.74Y-2.835
X4.74Y-2.935
X4.74Y-3.035
X4.74Y-3.135
X4.74Y-3.235
X4.74Y-3.335
X4.74Y-3.435
X4.89Y-2.82
X4.9287Y-3.481
X4.98Y-3.0379
X4.98Y-3.23
X5.0908Y-2.69
X5.159Y-2.9396
X5.159Y-3.038
X5.16Y-3.2316
X5.16Y-3.33
X5.1892Y-2.69
X5.19Y-2.82
X5.2287Y-3.481
X5.3394Y-2.6917
X5.3394Y-2.9917
X5.3396Y-3.1102
X5.3396Y-3.4102
X5.48Y-2.8908
X5.48Y-2.9892
X5.48Y-3.11
X5.48Y-3.41
X5.6708Y-3.38
X5.7692Y-3.38
T2
X4.13Y-3.1947
X4.13Y-3.2931
X4.13Y-3.3916
X4.13Y-3.49
X5.6813Y-2.9102
X5.6813Y-3.0086
X5.6813Y-3.107
T3
X4.0631Y-2.91
X4.26Y-2.91
X4.4984Y-3.75
X4.5984Y-3.75
X4.6984Y-3.75
X4.7984Y-3.75
X4.8984Y-3.75
T4
X4.0945Y-2.5197
X4.0945Y-3.7795
X5.748Y-2.5197
X5.748Y-3.7795
T5
X4.2087Y-3.553
M30
